<svg version="1.1" viewBox="0 0 128 128" xmlns="http://www.w3.org/2000/svg"><style type="text/css">.Back{fill:#555577;}</style><path class="Back" d="m69.454 63.904 43.633 43.633c3.0158 3.0158 3.0158 7.8925 0 10.876l-7.2508 7.2508c-3.0158 3.0158-7.8925 3.0158-10.876 0l-30.96-30.896-30.928 30.928c-3.0158 3.0158-7.8925 3.0158-10.876 0l-7.2829-7.2508c-3.0158-3.0158-3.0158-7.8925 0-10.876l43.633-43.633c3.0158-3.0479 7.8925-3.0479 10.908-0.03207zm-10.908-61.6-43.633 43.633c-3.0158 3.0158-3.0158 7.8925 0 10.876l7.2508 7.2508c3.0158 3.0158 7.8925 3.0158 10.876 0l30.928-30.928 30.928 30.928c3.0158 3.0158 7.8925 3.0158 10.876 0l7.2508-7.2508c3.0158-3.0158 3.0158-7.8925 0-10.876l-43.633-43.633c-2.9517-3.0158-7.8283-3.0158-10.844 0z"/></svg>
