<svg version="1.1" viewBox="0 0 128 128" xmlns="http://www.w3.org/2000/svg"><style type="text/css">.Back{fill:#000022;fill-opacity:.66667;}</style><path class="Back" d="m58.544 64.034-43.645-43.645c-3.0166-3.0166-3.0166-7.8945 0-10.879l7.2527-7.2527c3.0166-3.0166 7.8945-3.0166 10.879 0l30.936 30.936 30.936-30.936c3.0166-3.0166 7.8945-3.0166 10.879 0l7.3169 7.2206c3.0166 3.0166 3.0166 7.8945 0 10.879l-43.645 43.645c-3.0166 3.0487-7.8945 3.0487-10.911 0.03204zm10.911 61.616 43.645-43.645c3.0166-3.0166 3.0166-7.8945 0-10.879l-7.2527-7.2527c-3.0166-3.0166-7.8945-3.0166-10.879 0l-30.968 30.904-30.936-30.936c-3.0166-3.0166-7.8945-3.0166-10.879 0l-7.2848 7.2527c-3.0166 3.0166-3.0166 7.8945 0 10.879l43.645 43.645c3.0166 3.0487 7.8945 3.0487 10.911 0.0321z"/></svg>
