<svg version="1.1" viewBox="0 0 128 128" xmlns="http://www.w3.org/2000/svg"><style type="text/css">.Back{fill:#555577;}</style><path class="Back" d="m26 118c-1.3 0-2.7-0.51-3.7-1.5l-3.9-3.9c-2.1-2.1-2.1-5.4 0-7.4l38-38c1-1 2.4-1.5 3.7-1.5 1.4-0.0075 2.7 0.51 3.7 1.5l38 38c2.1 2.1 2.1 5.4 0 7.4l-3.9 3.9c-2.1 2.1-5.4 2.1-7.4 0l-30-30-30 30c-1 1-2.4 1.5-3.7 1.5zm0-48c-1.3 0-2.7-0.51-3.7-1.5l-3.9-3.9c-2.1-2.1-2.1-5.4 0-7.4l38-38c1-1 2.4-1.5 3.7-1.5 1.4-7e-3 2.7 0.51 3.7 1.5l38 38c2.1 2.1 2.1 5.4 0 7.4l-3.9 3.9c-2.1 2.1-5.4 2.1-7.4 0l-30-30-30 30c-1 1-2.4 1.5-3.7 1.5z"/></svg>
