<svg version="1.1" viewBox="0 0 128 128" xmlns="http://www.w3.org/2000/svg"><style type="text/css">.Back{fill:#555577;}</style><path class="Back" d="m120 90v-84c0-3.3-2.7-6-6-6h-82c-13 0-24 11-24 24v80c0 13 11 24 24 24h82c3.3 0 6-2.7 6-6v-4c0-1.9-0.87-3.6-2.2-4.7-1-3.8-1-15 0-19 1.3-1.1 2.2-2.8 2.2-4.6zm-80-56c0-0.82 0.67-1.5 1.5-1.5h53c0.82 0 1.5 0.67 1.5 1.5v5c0 0.82-0.67 1.5-1.5 1.5h-53c-0.82 0-1.5-0.67-1.5-1.5zm0 16c0-0.82 0.67-1.5 1.5-1.5h53c0.82 0 1.5 0.67 1.5 1.5v5c0 0.82-0.67 1.5-1.5 1.5h-53c-0.82 0-1.5-0.67-1.5-1.5zm63 62h-71c-4.4 0-8-3.6-8-8 0-4.4 3.6-8 8-8h71c-0.47 4.3-0.47 12 0 16z"/></svg>
