<svg version="1.1" viewBox="0 0 128 128" xmlns="http://www.w3.org/2000/svg"><style type="text/css">.Back{fill:#555577;}</style><path class="Back" d="m128 106-25-94c-0.73-2.7-3.5-4.9-7-4l-3.4 0.92c-1.4 0.37-2.6 1.4-3.6 3.2-3.1 1.5-12 3.8-15 4-1.7-1-3.3-1.3-4.7-0.95l-3.4 0.92c-0.54 0.14-0.93 0.43-1.4 0.68v-1.9c0-3.9-3.2-7.1-7.1-7.1h-14c-3.9 0-7.1 3.2-7.1 7.1v14h28l23 88c0.73 2.7 3.5 4.9 7 4l3.4-0.92c1.4-0.37 2.6-1.4 3.6-3.2 3.1-1.5 12-3.8 15-4 1.7 1 3.3 1.3 4.7 0.95l3.4-0.92c3.4-0.92 4.7-4.2 4-7zm-30-1.6-20-76 14-3.7 20 76zm-98-12h28v-57h-28zm21-85h-14c-3.9 0-7.1 3.2-7.1 7.1v14h28v-14c0-3.9-3.2-7.1-7.1-7.1zm-21 106c0 3.9 3.2 7.1 7.1 7.1h14c3.9 0 7.1-3.2 7.1-7.1v-14h-28zm35-21h28v-57h-28zm0 21c0 3.9 3.2 7.1 7.1 7.1h14c3.9 0 7.1-3.2 7.1-7.1v-14h-28z"/></svg>
