<svg version="1.1" viewBox="0 0 128 128" xmlns="http://www.w3.org/2000/svg"><style type="text/css">.Line{fill:#000000;}</style><path class="Line" d="m127.67 105.52-25.191-94.065c-0.73399-2.7408-3.5258-4.9317-6.9541-4.0137l-3.426 0.91805c-1.3704 0.36811-2.5568 1.4192-3.5613 3.1577-3.1112 1.539-11.598 3.8163-15.079 4.0403-1.7385-1.0045-3.293-1.3216-4.6634-0.95353l-3.4283 0.91805c-0.53664 0.14414-0.93135 0.43241-1.3638 0.68299v-1.8804c0-3.9183-3.1777-7.096-7.096-7.096h-14.192c-3.9183 0-7.096 3.1777-7.096 7.096v14.192h28.384l22.543 88.022c0.734 2.7408 3.5258 4.9317 6.9541 4.0137l3.4261-0.91805c1.3704-0.36811 2.5568-1.4192 3.5613-3.1577 3.0846-1.5256 11.571-3.8141 15.079-4.0403 1.7385 1.0045 3.293 1.3216 4.6634 0.95353l3.4283-0.91805c3.426-0.91806 4.7477-4.2111 4.0115-6.9519zm-29.803-1.5656-20.417-76.242 13.709-3.6722 20.417 76.242zm-97.728-11.573h28.384v-56.768h-28.384zm21.288-85.152h-14.192c-3.9183 0-7.096 3.1777-7.096 7.096v14.192h28.384v-14.192c0-3.9183-3.1777-7.096-7.096-7.096zm-21.288 106.44c0 3.9184 3.1777 7.096 7.096 7.096h14.192c3.9183 0 7.096-3.1777 7.096-7.096v-14.192h-28.384zm35.48-21.288h28.384v-56.768h-28.384zm0 21.288c0 3.9184 3.1777 7.096 7.096 7.096h14.192c3.9183 0 7.096-3.1777 7.096-7.096v-14.192h-28.384z"/></svg>
