<svg version="1.1" viewBox="0 0 128 128" xmlns="http://www.w3.org/2000/svg"><style type="text/css">.Back{fill:#555577;}</style><path class="Back" d="m128 108-22-95c-0.56-2.7-3.2-5.1-6.8-4.4l-3.5 0.74c-1.4 0.31-2.6 1.3-3.7 3-3.2 1.3-6.2 1.3-8.7 1.4-1.6-1.1-3.2-1.5-4.7-1.2l-4.6 1.3c-1.2 0.59-2.1 1.3-2.7 2.2v-0.35c0-3.9-2.5-7.1-6.4-7.1h-18c-3.9 0-6.6 3.2-7.1 7.1v17h32l-0.014-8.8 22 93c0.56 2.7 3.2 5.1 6.8 4.4l3.5-0.74c1.4-0.31 2.6-1.3 3.7-3 3.2-1.3 6.2-1.7 8.7-1.8 1.6 1.1 3.1 1.3 4.5 0.98l3.5-0.74c3.5-0.74 4.9-3.9 4.4-6.8zm-25-1.8-19-81 12-2.8 19 81zm-103-18h32v-48h-32zm7-80c-3.9 0-7.1 3.2-7.1 7.1v17h32v-17c0-3.9-3.2-7.1-7.1-7.1zm-7 105c0 3.9 3.2 7.1 7.1 7.1h18c3.9 0 7.6-3.2 7.1-7.1v-17h-32zm40-25h32v-48h-32zm0 25c0 3.9 3.2 7.1 7.1 7.1h18c3.9 0 7.1-3.2 7.1-7.1v-17h-32z"/></svg>
