<svg version="1.1" viewBox="0 0 128 128" xmlns="http://www.w3.org/2000/svg"><style type="text/css">.Line{fill:#000000;}</style><path class="Line" d="m119.78 89.823v-83.835c0-3.3185-2.6697-5.9882-5.9882-5.9882h-81.839c-13.224 0-23.953 10.729-23.953 23.953v79.843c0 13.224 10.729 23.953 23.953 23.953h81.839c3.3185 0 5.9882-2.6697 5.9882-5.9882v-3.9921c0-1.8713-0.87328-3.568-2.2206-4.6658-1.0479-3.8424-1.0479-14.796 0-18.638 1.3473-1.0729 2.2206-2.7695 2.2206-4.6408zm-79.843-56.389c0-0.82338 0.67367-1.497 1.497-1.497h52.896c0.82338 0 1.497 0.67367 1.497 1.497v4.9902c0 0.82338-0.67367 1.497-1.497 1.497h-52.896c-0.82338 0-1.497-0.67367-1.497-1.497zm0 15.969c0-0.82338 0.67367-1.497 1.497-1.497h52.896c0.82338 0 1.497 0.67367 1.497 1.497v4.9902c0 0.82338-0.67367 1.497-1.497 1.497h-52.896c-0.82338 0-1.497-0.67367-1.497-1.497zm63.225 62.377h-71.21c-4.4163 0-7.9843-3.568-7.9843-7.9843 0-4.3913 3.5929-7.9843 7.9843-7.9843h71.21c-0.47406 4.2666-0.47406 11.702 0 15.969z"/></svg>
