<svg version="1.1" viewBox="0 0 128 128" xmlns="http://www.w3.org/2000/svg"><style type="text/css">.Back{fill:#555577;}</style><path class="Back" d="m100 20h-24c0-8.8-7.2-16-16-16s-16 7.2-16 16h-24c-6.6 0-12 5.4-12 12v84c0 6.6 5.4 12 12 12h80c6.6 0 12-5.4 12-12v-84c0-6.6-5.4-12-12-12zm-64 86c-3.3 0-6-2.7-6-6s2.7-6 6-6 6 2.7 6 6-2.7 6-6 6zm0-24c-3.3 0-6-2.7-6-6s2.7-6 6-6 6 2.7 6 6-2.7 6-6 6zm0-24c-3.3 0-6-2.7-6-6s2.7-6 6-6 6 2.7 6 6-2.7 6-6 6zm24-44c3.3 0 6 2.7 6 6s-2.7 6-6 6-6-2.7-6-6 2.7-6 6-6zm36 88c0 1.1-0.9 2-2 2h-40c-1.1 0-2-0.9-2-2v-4c0-1.1 0.9-2 2-2h40c1.1 0 2 0.9 2 2zm0-24c0 1.1-0.9 2-2 2h-40c-1.1 0-2-0.9-2-2v-4c0-1.1 0.9-2 2-2h40c1.1 0 2 0.9 2 2zm0-24c0 1.1-0.9 2-2 2h-40c-1.1 0-2-0.9-2-2v-4c0-1.1 0.9-2 2-2h40c1.1 0 2 0.9 2 2z"/></svg>
