<svg version="1.1" viewBox="0 0 128 128" xmlns="http://www.w3.org/2000/svg"><style type="text/css">.Back{fill:#555577;}</style><path class="Back" d="m99.917 15.984h-19.98c0-8.8163-7.1679-15.984-15.984-15.984-8.8163 0-15.984 7.1679-15.984 15.984h-19.98c-6.6185 0-11.988 5.3697-11.988 11.988v87.913c0 6.6185 5.3697 11.988 11.988 11.988h71.929c6.6185 0 11.988-5.3697 11.988-11.988v-87.913c0-6.6185-5.3697-11.988-11.988-11.988zm-59.941 89.911c-3.3217 0-5.9941-2.6724-5.9941-5.9941 0-3.3217 2.6724-5.9941 5.9941-5.9941s5.9941 2.6724 5.9941 5.9941c0 3.3217-2.6724 5.9941-5.9941 5.9941zm0-23.976c-3.3217 0-5.9941-2.6724-5.9941-5.9941s2.6724-5.9941 5.9941-5.9941 5.9941 2.6724 5.9941 5.9941-2.6724 5.9941-5.9941 5.9941zm0-23.976c-3.3217 0-5.9941-2.6724-5.9941-5.9941s2.6724-5.9941 5.9941-5.9941 5.9941 2.6724 5.9941 5.9941-2.6724 5.9941-5.9941 5.9941zm23.976-47.953c3.3217 0 5.9941 2.6724 5.9941 5.9941s-2.6724 5.9941-5.9941 5.9941-5.9941-2.6724-5.9941-5.9941 2.6724-5.9941 5.9941-5.9941zm31.969 91.909c0 1.0989-0.89911 1.998-1.998 1.998h-35.965c-1.0989 0-1.998-0.89912-1.998-1.998v-3.9961c0-1.0989 0.89911-1.998 1.998-1.998h35.965c1.0989 0 1.998 0.89911 1.998 1.998zm0-23.976c0 1.0989-0.89911 1.998-1.998 1.998h-35.965c-1.0989 0-1.998-0.89911-1.998-1.998v-3.9961c0-1.0989 0.89911-1.998 1.998-1.998h35.965c1.0989 0 1.998 0.89911 1.998 1.998zm0-23.976c0 1.0989-0.89911 1.998-1.998 1.998h-35.965c-1.0989 0-1.998-0.89911-1.998-1.998v-3.9961c0-1.0989 0.89911-1.998 1.998-1.998h35.965c1.0989 0 1.998 0.89911 1.998 1.998z"/></svg>
