<svg version="1.1" viewBox="0 0 128 128" xmlns="http://www.w3.org/2000/svg"><style type="text/css">.Back{fill:#000022;fill-opacity:.66667;}</style><path class="Back" d="m55.697 112-12.186-3.5987c-1.2786-0.36599-1.9977-1.7282-1.6381-3.0294l27.269-95.595c0.35959-1.3012 1.6981-2.0332 2.9766-1.6672l12.186 3.5987c1.2786 0.36597 1.9977 1.7282 1.6381 3.0294l-27.269 95.595c-0.37957 1.3013-1.6981 2.0535-2.9766 1.6672zm-22.774-22.812 8.6901-9.4342c0.91896-0.99625 0.85902-2.5821-0.15982-3.4971l-18.099-16.204 18.099-16.204c1.0188-0.91493 1.0988-2.5008 0.15982-3.4971l-8.6901-9.4342c-0.89898-0.97592-2.4173-1.0369-3.3961-0.10166l-28.787 27.448c-1.0188 0.95558-1.0188 2.6025 0 3.5581l28.787 27.468c0.97889 0.93525 2.4972 0.8946 3.3961-0.10166zm65.366 0.12199 28.787-27.468c1.0188-0.95558 1.0188-2.6025 0-3.5581l-28.787-27.488c-0.95891-0.91493-2.4772-0.87427-3.3961 0.10166l-8.6901 9.4342c-0.91896 0.99625-0.85903 2.5821 0.15982 3.4971l18.099 16.225-18.099 16.204c-1.0188 0.91493-1.0988 2.5008-0.15982 3.4971l8.6901 9.4342c0.89898 0.99625 2.4173 1.0369 3.3961 0.12199z"/></svg>
