<svg version="1.1" viewBox="0 0 128 128" xmlns="http://www.w3.org/2000/svg"><style type="text/css">.Back{fill:#555577;}</style><path class="Back" d="m56 112-12-3.6c-1.3-0.37-2-1.7-1.6-3l27-96c0.36-1.3 1.7-2 3-1.7l12 3.6c1.3 0.37 2 1.7 1.6 3l-27 96c-0.38 1.3-1.7 2.1-3 1.7zm-23-23 8.7-9.4c0.92-1 0.86-2.6-0.16-3.5l-18-16 18-16c1-0.91 1.1-2.5 0.16-3.5l-8.7-9.4c-0.9-0.98-2.4-1-3.4-0.1l-29 27c-1 0.96-1 2.6 0 3.6l29 27c0.98 0.94 2.5 0.89 3.4-0.1zm65 0.12 29-27c1-0.96 1-2.6 0-3.6l-29-27c-0.96-0.91-2.5-0.87-3.4 0.1l-8.7 9.4c-0.92 1-0.86 2.6 0.16 3.5l18 16-18 16c-1 0.91-1.1 2.5-0.16 3.5l8.7 9.4c0.9 1 2.4 1 3.4 0.12z"/></svg>
