<svg version="1.1" viewBox="0 0 128 128" xmlns="http://www.w3.org/2000/svg"><style type="text/css">.Back{fill:#555577;}</style><path class="Back" d="m128 65v5.7c0 5-14 9.1-32 9.1s-32-4.1-32-9.1v-5.7c0-5 14-9.1 32-9.1s32 4.1 32 9.1zm0 17v13c0 5-14 9.1-32 9.1s-32-4.1-32-9.1v-13c6.9 4.1 19 6.1 32 6.1 13 0 25-1.9 32-6.1zm0 24v13c0 5-14 9.1-32 9.1s-32-4.1-32-9.1v-13c6.9 4.1 19 6.1 32 6.1 13 0 25-1.9 32-6.1z"/><path class="Back" d="m72 7.9c-1.1-0.087-2.2 0.62-2.5 1.8l-27 96c-0.36 1.3 0.36 2.7 1.6 3l12 3.6c0.11 0.033 0.22 0.046 0.32 0.062v-47c0-5.1 3.3-8.3 6-10 2.7-1.8 5.7-3 9.1-4 1.5-0.42 3.1-0.79 4.7-1.1l10-35c0.36-1.3-0.36-2.7-1.6-3l-12-3.6c-0.16-0.046-0.32-0.073-0.48-0.086zm25 22c-0.61 0.018-1.2 0.27-1.7 0.76l-8.7 9.4c-0.92 1-0.86 2.6 0.16 3.5l4.9 4.4c1.6-0.06 3.1-0.1 4.7-0.1 8.7 0 17 0.88 23 2.5l-21-20c-0.48-0.46-1.1-0.68-1.7-0.66zm-65 0.014c-0.61-0.02-1.2 0.2-1.7 0.66l-29 27c-1 0.96-1 2.6 0 3.6l29 27c0.98 0.94 2.5 0.89 3.4-0.1l8.7-9.4c0.92-1 0.86-2.6-0.16-3.5l-18-16 18-16c1-0.91 1.1-2.5 0.16-3.5l-8.7-9.4c-0.45-0.49-1.1-0.75-1.7-0.77z"/></svg>
