<svg version="1.1" viewBox="0 0 128 128" xmlns="http://www.w3.org/2000/svg"><style type="text/css">.Back{fill:#555577;}</style><path class="Back" d="m128 65.161v5.7149c0 5.0363-14.334 9.1438-32 9.1438-17.666 0-32-4.1076-32-9.1438v-5.7149c0-5.0363 14.334-9.1438 32-9.1438 17.666 0 32 4.1076 32 9.1438zm0 16.859v12.859c0 5.0363-14.334 9.1438-32 9.1438-17.666 0-32-4.1076-32-9.1438v-12.859c6.875 4.1434 19.459 6.0721 32 6.0721 12.542 0 25.125-1.9289 32-6.0721zm0 24.002v12.859c0 5.0363-14.334 9.1438-32 9.1438-17.666 0-32-4.1076-32-9.1438v-12.859c6.875 4.1434 19.459 6.0722 32 6.0722 12.542 0 25.125-1.9289 32-6.0722z"/><path class="Back" d="m71.617 7.9082c-1.1176-0.087292-2.1815 0.61536-2.4961 1.7539l-27.27 95.594c-0.3596 1.3012 0.36007 2.6633 1.6387 3.0293l12.186 3.5996c0.1083 0.03272 0.21594 0.04575 0.32422 0.0625v-17.068-3.0195-20.984-3.0176-2.6973c0-5.0539 3.3031-8.3356 6.041-10.184 2.738-1.848 5.7229-2.9929 9.1348-3.9688 1.4801-0.42331 3.0555-0.79474 4.6895-1.1309l10.057-35.254c0.3596-1.3012-0.36007-2.6653-1.6387-3.0312l-12.186-3.5977c-0.15981-0.04575-0.32081-0.073467-0.48047-0.085938zm24.938 22.113c-0.6143 0.01779-1.2241 0.2718-1.6836 0.75977l-8.6895 9.4355c-0.91896 0.99625-0.85869 2.5811 0.16016 3.4961l4.9141 4.4062c1.5564-0.059873 3.1309-0.10156 4.7441-0.10156 8.6711 0 16.562 0.88239 23.078 2.5332l-20.811-19.871c-0.47946-0.45746-1.0986-0.67599-1.7129-0.6582zm-65.32 0.013672c-0.6143-0.02033-1.2391 0.19644-1.7285 0.66406l-28.787 27.449c-1.0188 0.95558-1.0188 2.603 0 3.5586l28.787 27.467c0.97889 0.93525 2.4976 0.8947 3.3965-0.10156l8.6895-9.4336c0.91896-0.99625 0.85868-2.583-0.16016-3.498l-18.1-16.203 18.1-16.205c1.0188-0.91493 1.0991-2.4998 0.16016-3.4961l-8.6895-9.4355c-0.44949-0.48796-1.0537-0.7453-1.668-0.76562z"/></svg>
