<svg version="1.1" viewBox="0 0 128 128" xmlns="http://www.w3.org/2000/svg"><style type="text/css">.Back{fill:#555577;}</style><path class="Back" d="m118.28 78.728-9.7815-5.6485c0.98733-5.327 0.98733-10.792 0-16.119l9.7815-5.6485c1.1251-0.64291 1.6302-1.9747 1.2629-3.2146-2.5487-8.1742-6.8884-15.568-12.56-21.721-0.87253-0.94141-2.2961-1.171-3.3983-0.52811l-9.7815 5.6485c-4.1101-3.536-8.8401-6.2684-13.96-8.0594v-11.274c0-1.2858-0.89549-2.4109-2.1584-2.6865-8.4268-1.8828-17.06-1.791-25.074 0-1.2629 0.27553-2.1584 1.4006-2.1584 2.6865v11.297c-5.0974 1.8139-9.8274 4.5463-13.96 8.0594l-9.7585-5.6485c-1.1251-0.64292-2.5257-0.43626-3.3983 0.52811-5.6714 6.1306-10.011 13.524-12.56 21.721-0.39034 1.2399 0.13777 2.5717 1.2629 3.2146l9.7815 5.6485c-0.98733 5.327-0.98733 10.792 0 16.119l-9.7815 5.6485c-1.1251 0.64291-1.6302 1.9747-1.2629 3.2146 2.5487 8.1742 6.8884 15.568 12.56 21.721 0.87253 0.9414 2.2961 1.171 3.3983 0.5281l9.7815-5.6485c4.1101 3.536 8.8401 6.2684 13.96 8.0594v11.297c0 1.2858 0.89549 2.4109 2.1584 2.6864 8.4268 1.8828 17.06 1.791 25.074 0 1.2629-0.27553 2.1584-1.4006 2.1584-2.6864v-11.297c5.0974-1.8139 9.8274-4.5463 13.96-8.0594l9.7815 5.6485c1.1251 0.64292 2.5257 0.43627 3.3983-0.5281 5.6714-6.1306 10.011-13.524 12.56-21.721 0.34442-1.2629-0.16072-2.5946-1.2858-3.2375zm-53.132 4.6611c-10.126 0-18.369-8.2431-18.369-18.369 0-10.126 8.2431-18.369 18.369-18.369s18.369 8.2431 18.369 18.369c0 10.126-8.2431 18.369-18.369 18.369z" style="stroke-width:.22961"/></svg>
