<svg version="1.1" viewBox="0 0 128 128" xmlns="http://www.w3.org/2000/svg"><style type="text/css">.Back{fill:#555577;}</style><path class="Back" d="m118 79-9.8-5.6c0.99-5.3 0.99-11 0-16l9.8-5.6c1.1-0.64 1.6-2 1.3-3.2-2.5-8.2-6.9-16-13-22-0.87-0.94-2.3-1.2-3.4-0.53l-9.8 5.6c-4.1-3.5-8.8-6.3-14-8.1v-11c0-1.3-0.9-2.4-2.2-2.7-8.4-1.9-17-1.8-25 0-1.3 0.28-2.2 1.4-2.2 2.7v11c-5.1 1.8-9.8 4.5-14 8.1l-9.8-5.6c-1.1-0.64-2.5-0.44-3.4 0.53-5.7 6.1-10 14-13 22-0.39 1.2 0.14 2.6 1.3 3.2l9.8 5.6c-0.99 5.3-0.99 11 0 16l-9.8 5.6c-1.1 0.64-1.6 2-1.3 3.2 2.5 8.2 6.9 16 13 22 0.87 0.94 2.3 1.2 3.4 0.53l9.8-5.6c4.1 3.5 8.8 6.3 14 8.1v11c0 1.3 0.9 2.4 2.2 2.7 8.4 1.9 17 1.8 25 0 1.3-0.28 2.2-1.4 2.2-2.7v-11c5.1-1.8 9.8-4.5 14-8.1l9.8 5.6c1.1 0.64 2.5 0.44 3.4-0.53 5.7-6.1 10-14 13-22 0.34-1.3-0.16-2.6-1.3-3.2zm-53 4.7c-10 0-18-8.2-18-18 0-10 8.2-18 18-18s18 8.2 18 18c0 10-8.2 18-18 18z" stroke-width=".23"/></svg>
