<svg width="128" height="128" version="1.1" viewBox="0 0 128 128" xmlns="http://www.w3.org/2000/svg">
 <style type="text/css">.f{fill:#eeeeee;}</style>
 <path class="f" d="m123.94 91.621h-41.577c-0.18484 4.9483-3.6744 8.9753-8.178 8.9753h-19.77c-4.6685 0-8.248-5.3459-8.1855-8.9753h-41.969c-2.1981 0-3.9966 1.7985-3.9966 3.9966v15.271c0 8.7925 7.1939 8.1296 15.986 8.1296h95.7c8.7925 0 15.986 0.66292 15.986-8.1296v-15.271c0-2.1981-1.7985-3.9966-3.9966-3.9966zm3.9761-91.405-127.74-0.063922v82.402h127.74zm-9.0026 73.06h-109.85l1.9e-6 -64.054 110.07-0.10912z"/>
</svg>
