<svg version="1.1" viewBox="0 0 128 128" xmlns="http://www.w3.org/2000/svg"><style type="text/css">.Back{fill:#000022;fill-opacity:.66667;}</style><path class="Back" d="m87.986 111.98v9.9983c0 3.3132-2.6858 5.999-5.999 5.999h-67.988c-3.3132 0-5.999-2.6858-5.999-5.999v-91.984c0-3.3132 2.6858-5.999 5.999-5.999h17.997v73.987c0 7.7184 6.2792 13.998 13.998 13.998zm0-85.985v-25.996h-41.993c-3.3132 0-5.999 2.6858-5.999 5.999v91.984c0 3.3132 2.6858 5.999 5.999 5.999h67.988c3.3132 0 5.999-2.6858 5.999-5.999v-65.989h-25.996c-3.2994 0-5.999-2.6995-5.999-5.999zm30.238-7.7559-16.483-16.483a5.999 5.999 0 0 0-4.2418-1.7569h-1.5145v23.996h23.996v-1.5145a5.999 5.999 0 0 0-1.757-4.2418z"/></svg>
