<svg version="1.1" viewBox="0 0 128 128" xmlns="http://www.w3.org/2000/svg"><style type="text/css">.Back{fill:#555577;}</style><path class="Back" d="m74 60 45-45c1.3-1.3 1.3-3.3 0-4.5-8.8-8.8-23-8.8-32 0l-31 31-6.7-6.7c1.2-2.9 1.8-6.1 1.8-9.4 0-14-12-26-26-26s-26 12-26 26 12 26 26 26c1.2 0 2.4-0.086 3.6-0.25l8.8 8.8-8.8 8.8c-1.2-0.16-2.4-0.25-3.6-0.25-14 0-26 12-26 26 0 14 12 26 26 26s26-12 26-26c0-3.3-0.63-6.5-1.8-9.4l6.7-6.7 31 31c8.8 8.8 23 8.8 32 0 1.3-1.3 1.3-3.3 0-4.5zm-49-26c-4.7 0-8.6-3.8-8.6-8.6s3.8-8.6 8.6-8.6 8.6 3.8 8.6 8.6-3.8 8.6-8.6 8.6zm0 69c-4.7 0-8.6-3.8-8.6-8.6s3.8-8.6 8.6-8.6 8.6 3.8 8.6 8.6-3.8 8.6-8.6 8.6z" stroke-width=".27"/></svg>
