<svg version="1.1" viewBox="0 0 128 128" xmlns="http://www.w3.org/2000/svg"><style type="text/css">.Back{fill:#000022;fill-opacity:.66667;}</style><path class="Back" d="m74.443 60.03 44.554-44.557c1.2556-1.2556 1.2556-3.2903 0-4.5432-8.7813-8.7813-23.021-8.7813-31.803 0l-30.925 30.927-6.6556-6.6556c1.1539-2.9235 1.7884-6.1067 1.7884-9.4399 0-14.195-11.507-25.701-25.701-25.701s-25.701 11.507-25.701 25.701 11.507 25.701 25.701 25.701c1.2155 0 2.4068-0.08567 3.5768-0.24898l8.8161 8.8161-8.8161 8.8161c-1.1699-0.16331-2.364-0.24898-3.5768-0.24898-14.195 0-25.701 11.507-25.701 25.701 0 14.195 11.507 25.701 25.701 25.701s25.701-11.507 25.701-25.701c0-3.3331-0.6345-6.5164-1.7884-9.4399l6.6556-6.6556 30.925 30.927c8.7813 8.7813 23.021 8.7813 31.803 0 1.2556-1.253 1.2556-3.2876 0-4.5433zm-48.742-25.701c-4.7226 0-8.5671-3.8445-8.5671-8.5671 0-4.7226 3.8445-8.5671 8.5671-8.5671 4.7226 0 8.5671 3.8445 8.5671 8.5671 0 4.7226-3.8445 8.5671-8.5671 8.5671zm0 68.537c-4.7226 0-8.5671-3.8445-8.5671-8.5671 0-4.7226 3.8445-8.5671 8.5671-8.5671 4.7226 0 8.5671 3.8445 8.5671 8.5671 0 4.7226-3.8445 8.5671-8.5671 8.5671z" style="stroke-width:.26772"/></svg>
