<svg version="1.1" viewBox="0 0 128 128" xmlns="http://www.w3.org/2000/svg"><style type="text/css">.Back{fill:#555577;}</style><path class="Back" d="m73 60 45-45c1.2-1.2 1.2-3 0-4.1-8.1-8.1-21-8.1-29 0l-33 33-6.2-6.2c1.1-2.7 1.7-5.6 1.7-8.7 0-13-11-24-24-24s-24 11-24 24 11 24 24 24c1.1 0 2.2-0.079 3.3-0.23l8.1 8.1-8.1 8.1c-1.1-0.15-2.2-0.23-3.3-0.23-13 0-24 11-24 24s11 24 24 24 24-11 24-24c0-3-0.58-6-1.7-8.7l6.2-6.2 33 33c8.1 8.1 21 8.1 29 0 1.2-1.2 1.2-3 0-4.1zm-45-20c-6.5 0-12-5.3-12-12s5.3-12 12-12 12 5.3 12 12-5.3 12-12 12zm0 64c-6.5 0-12-5.3-12-12s5.3-12 12-12 12 5.3 12 12-5.3 12-12 12z"/></svg>
