<svg version="1.1" viewBox="0 0 128 128" xmlns="http://www.w3.org/2000/svg"><style type="text/css">.Back{fill:#555577;}</style><path class="Back" d="m126 48c0.98-0.78 2.4-0.05 2.4 1.2v51c0 6.6-5.4 12-12 12h-104c-6.6 0-12-5.4-12-12v-51c0-1.2 1.4-2 2.4-1.2 5.6 4.4 13 9.9 39 28 5.3 3.8 14 12 23 12 8.9 0.075 18-8.2 23-12 26-19 33-24 38-28zm-62 32c5.8 0.1 14-7.3 18-10 33-24 36-26 43-32 1.4-1.1 2.3-2.9 2.3-4.7v-4.8c0-6.6-5.4-12-12-12h-104c-6.6 0-12 5.4-12 12v4.8c0 1.8 0.85 3.6 2.3 4.7 7.6 6 10 8.1 43 32 4.2 3 13 10 18 10z"/></svg>
