<svg version="1.1" viewBox="0 0 128 128" xmlns="http://www.w3.org/2000/svg"><style type="text/css">.Back{fill:#000022;fill-opacity:.66667;}</style><path class="Back" d="m125.58 47.61c0.975-0.775 2.425-0.05 2.425 1.175v51.125c0 6.625-5.375 12-12 12h-104c-6.625 0-12-5.375-12-12v-51.1c0-1.25 1.425-1.95 2.425-1.175 5.6 4.35 13.025 9.875 38.525 28.4 5.275 3.85 14.175 11.95 23.05 11.9 8.925 0.075 18-8.2 23.075-11.9 25.5-18.525 32.9-24.075 38.5-28.425zm-61.575 32.3c5.8 0.1 14.15-7.3 18.35-10.35 33.175-24.075 35.7-26.175 43.35-32.175 1.45-1.125 2.3-2.875 2.3-4.725v-4.75c0-6.625-5.375-12-12-12h-104c-6.625 0-12 5.375-12 12v4.75c0 1.85 0.85 3.575 2.3 4.725 7.65 5.975 10.175 8.1 43.35 32.175 4.2 3.05 12.55 10.45 18.35 10.35z"/></svg>
