<svg width="128" height="128" version="1.1" viewBox="0 0 128 128" xmlns="http://www.w3.org/2000/svg"><style type="text/css">.Line{fill:#000000;}</style><path class="Line" d="m116 16.056h-104c-6.625 0-12 5.375-12 12v72c0 6.625 5.375 12 12 12h104c6.625 0 12-5.375 12-12v-72c0-6.625-5.375-12-12-12zm-104 8h104c2.2 0 4 1.8 4 4v10.35c-5.475 4.625-13.3 11-37.65 30.325-4.225 3.35-12.55 11.425-18.35 11.325-5.8 0.1-14.15-7.975-18.35-11.325-24.35-19.325-32.175-25.7-37.65-30.325v-10.35c0-2.2 1.8-4 4-4zm104 80h-104c-2.2 0-4-1.8-4-4v-51.25c5.7 4.675 14.7 11.9 32.675 26.175 5.125 4.1 14.175 13.125 23.325 13.075 9.1 0.075 18.075-8.875 23.325-13.075 17.975-14.275 26.975-21.5 32.675-26.175v51.25c0 2.2-1.8 4-4 4z"/></svg>
