<svg version="1.1" viewBox="0 0 128 128" xmlns="http://www.w3.org/2000/svg"><style type="text/css">.Back{fill:#000022;fill-opacity:.66667;}</style><path class="Back" d="m102.42 78.037h-6.9938a3.4969 3.4969 0 0 0-3.4969 3.4969v24.478h-69.938v-69.938h31.472a3.4969 3.4969 0 0 0 3.4969-3.4969v-6.9938a3.4969 3.4969 0 0 0-3.4969-3.4969h-34.969a10.491 10.491 0 0 0-10.491 10.491v76.932a10.491 10.491 0 0 0 10.491 10.491h76.932a10.491 10.491 0 0 0 10.491-10.491v-27.975a3.4969 3.4969 0 0 0-3.4969-3.4969zm9.3258-69.938h-34.678a6.1196 6.1196 0 0 0-6.1196 6.1196v4.0892a6.1196 6.1196 0 0 0 6.2922 5.9425l14.689-0.41526-54.407 54.003-0.01311 0.01312a5.2454 5.2454 0 0 0 0 7.4178l5.2322 5.2126 0.01311 0.01311a5.2454 5.2454 0 0 0 7.4112-0.01966l54.003-54.401-0.41088 14.691v0.17047a6.1196 6.1196 0 0 0 6.1196 6.1196h3.9078a6.1196 6.1196 0 0 0 6.1196-6.1196v-34.678a8.1587 8.1587 0 0 0-8.1587-8.1587z"/></svg>
