<svg version="1.1" viewBox="0 0 128 128" xmlns="http://www.w3.org/2000/svg"><style type="text/css">.Back{fill:#555577;}</style><path class="Back" d="m102 78h-7a3.5 3.5 0 0 0-3.5 3.5v24h-70v-70h31a3.5 3.5 0 0 0 3.5-3.5v-7a3.5 3.5 0 0 0-3.5-3.5h-35a10 10 0 0 0-10 10v77a10 10 0 0 0 10 10h77a10 10 0 0 0 10-10v-28a3.5 3.5 0 0 0-3.5-3.5zm9.3-70h-35a6.1 6.1 0 0 0-6.1 6.1v4.1a6.1 6.1 0 0 0 6.3 5.9l15-0.42-54 54a5.2 5.2 0 0 0 0 7.4l5.2 5.2a5.2 5.2 0 0 0 7.4-0.02l54-54-0.41 15v0.17a6.1 6.1 0 0 0 6.1 6.1h3.9a6.1 6.1 0 0 0 6.1-6.1v-35a8.2 8.2 0 0 0-8.2-8.2z"/></svg>
