<svg version="1.1" viewBox="0 0 128 128" xmlns="http://www.w3.org/2000/svg"><style type="text/css">.Back{fill:#000022;fill-opacity:.66667;}</style><path d="m13.381 0c-2.9057 0-5.2441 3.3437-5.2441 7.5v105c0 4.1563 2.3384 7.5 5.2441 7.5h2.627v-5.4668c0-2.0625 1.1792-2.5039 2.6211-2.5039h2.8145c1.4419 0 2.5317 0.44365 2.6211 2.5039v5.4668h79.898v-5.4668c0-2.0625 1.1793-2.5039 2.6211-2.5039h2.8379c1.4419 0 2.6211 0.4414 2.6211 2.5039v5.4668h2.707c2.9057 0 5.2441-3.3437 5.2441-7.5v-105c0-4.1563-2.3384-7.5-5.2441-7.5h-2.707v5.6133c0 2.0625-1.1792 2.3945-2.6211 2.3945h-2.8379c-1.4419 0-2.6211-0.33203-2.6211-2.3945v-5.6133h-79.898v5.6133c0 2.0625-1.1792 2.3945-2.6211 2.3945h-2.8145c-1.4419 0-2.6211-0.33203-2.6211-2.3945v-5.6133zm29.273 8h42.752c1.4419 0 2.623 1.6875 2.623 3.75v40.517c0 2.0625-1.1811 3.75-2.623 3.75h-42.752c-1.4419 0-2.6211-1.6875-2.6211-3.75v-40.517c0-2.0625 1.1792-3.75 2.6211-3.75zm-24.025 8.1191h2.8145c1.4419 0 2.6211 0.53516 2.6211 2.5977v10.783c0 2.0625-1.1792 2.5996-2.6211 2.5996h-2.8145c-1.4419 0-2.6211-0.53711-2.6211-2.5996v-10.783c0-2.0625 1.1792-2.5977 2.6211-2.5977zm87.955 0h2.8379c1.4419 0 2.6211 0.53516 2.6211 2.5977v10.783c0 2.0625-1.1792 2.5996-2.6211 2.5996h-2.8379c-1.4419 0-2.6211-0.53711-2.6211-2.5996v-10.783c0-2.0625 1.1793-2.5977 2.6211-2.5977zm-87.955 24h2.8145c1.4419 0 2.6211 0.53516 2.6211 2.5977v10.783c0 2.0625-1.1792 2.5996-2.6211 2.5996h-2.8145c-1.4419 0-2.6211-0.53711-2.6211-2.5996v-10.783c0-2.0625 1.1792-2.5977 2.6211-2.5977zm87.955 0h2.8379c1.4419 0 2.6211 0.53516 2.6211 2.5977v10.783c0 2.0625-1.1792 2.5996-2.6211 2.5996h-2.8379c-1.4419 0-2.6211-0.53711-2.6211-2.5996v-10.783c0-2.0625 1.1793-2.5977 2.6211-2.5977zm-87.955 24h2.8145c1.4419 0 2.6211 0.53516 2.6211 2.5977v10.783c0 2.0625-1.1792 2.5996-2.6211 2.5996h-2.8145c-1.4419 0-2.6211-0.53711-2.6211-2.5996v-10.783c0-2.0625 1.1792-2.5977 2.6211-2.5977zm87.955 0h2.8379c1.4419 0 2.6211 0.53516 2.6211 2.5977v10.783c0 2.0625-1.1792 2.5996-2.6211 2.5996h-2.8379c-1.4419 0-2.6211-0.53711-2.6211-2.5996v-10.783c0-2.0625 1.1793-2.5977 2.6211-2.5977zm-63.93-4.97e-4h42.752c1.4419 0 2.623 1.6875 2.623 3.75v40.314c0 2.0625-1.1811 3.75-2.623 3.75h-42.752c-1.4419 0-2.6211-1.6875-2.6211-3.75v-40.314c0-2.0625 1.1792-3.75 2.6211-3.75zm-24.025 24h2.8145c1.4419 0 2.6211 0.53516 2.6211 2.5977v10.783c0 2.0625-1.1792 2.5996-2.6211 2.5996h-2.8145c-1.4419 0-2.6211-0.53711-2.6211-2.5996v-10.783c0-2.0625 1.1792-2.5977 2.6211-2.5977zm87.955 0h2.8379c1.4419 0 2.6211 0.53516 2.6211 2.5977v10.783c0 2.0625-1.1792 2.5996-2.6211 2.5996h-2.8379c-1.4419 0-2.6211-0.53711-2.6211-2.5996v-10.783c0-2.0625 1.1793-2.5977 2.6211-2.5977z" style="fill-opacity:.66667;fill:#002;stroke-width:1.0351"/></svg>
