<svg version="1.1" viewBox="0 0 128 128" xmlns="http://www.w3.org/2000/svg"><style type="text/css">.Back{fill:#555577;}</style><path d="m13 0c-2.9 0-5.2 3.3-5.2 7.5v105c0 4.2 2.3 7.5 5.2 7.5h2.6v-5.5c0-2.1 1.2-2.5 2.6-2.5h2.8c1.4 0 2.5 0.44 2.6 2.5v5.5h80v-5.5c0-2.1 1.2-2.5 2.6-2.5h2.8c1.4 0 2.6 0.44 2.6 2.5v5.5h2.7c2.9 0 5.2-3.3 5.2-7.5v-105c0-4.2-2.3-7.5-5.2-7.5h-2.7v5.6c0 2.1-1.2 2.4-2.6 2.4h-2.8c-1.4 0-2.6-0.33-2.6-2.4v-5.6h-80v5.6c0 2.1-1.2 2.4-2.6 2.4h-2.8c-1.4 0-2.6-0.33-2.6-2.4v-5.6zm29 8h43c1.4 0 2.6 1.7 2.6 3.8v41c0 2.1-1.2 3.8-2.6 3.8h-43c-1.4 0-2.6-1.7-2.6-3.8v-41c0-2.1 1.2-3.8 2.6-3.8zm-24 8.1h2.8c1.4 0 2.6 0.54 2.6 2.6v11c0 2.1-1.2 2.6-2.6 2.6h-2.8c-1.4 0-2.6-0.54-2.6-2.6v-11c0-2.1 1.2-2.6 2.6-2.6zm88 0h2.8c1.4 0 2.6 0.54 2.6 2.6v11c0 2.1-1.2 2.6-2.6 2.6h-2.8c-1.4 0-2.6-0.54-2.6-2.6v-11c0-2.1 1.2-2.6 2.6-2.6zm-88 24h2.8c1.4 0 2.6 0.54 2.6 2.6v11c0 2.1-1.2 2.6-2.6 2.6h-2.8c-1.4 0-2.6-0.54-2.6-2.6v-11c0-2.1 1.2-2.6 2.6-2.6zm88 0h2.8c1.4 0 2.6 0.54 2.6 2.6v11c0 2.1-1.2 2.6-2.6 2.6h-2.8c-1.4 0-2.6-0.54-2.6-2.6v-11c0-2.1 1.2-2.6 2.6-2.6zm-88 24h2.8c1.4 0 2.6 0.54 2.6 2.6v11c0 2.1-1.2 2.6-2.6 2.6h-2.8c-1.4 0-2.6-0.54-2.6-2.6v-11c0-2.1 1.2-2.6 2.6-2.6zm88 0h2.8c1.4 0 2.6 0.54 2.6 2.6v11c0 2.1-1.2 2.6-2.6 2.6h-2.8c-1.4 0-2.6-0.54-2.6-2.6v-11c0-2.1 1.2-2.6 2.6-2.6zm-64-5e-4h43c1.4 0 2.6 1.7 2.6 3.8v40c0 2.1-1.2 3.8-2.6 3.8h-43c-1.4 0-2.6-1.7-2.6-3.8v-40c0-2.1 1.2-3.8 2.6-3.8zm-24 24h2.8c1.4 0 2.6 0.54 2.6 2.6v11c0 2.1-1.2 2.6-2.6 2.6h-2.8c-1.4 0-2.6-0.54-2.6-2.6v-11c0-2.1 1.2-2.6 2.6-2.6zm88 0h2.8c1.4 0 2.6 0.54 2.6 2.6v11c0 2.1-1.2 2.6-2.6 2.6h-2.8c-1.4 0-2.6-0.54-2.6-2.6v-11c0-2.1 1.2-2.6 2.6-2.6z" fill="#002" fill-opacity=".67"/></svg>
