<svg version="1.1" viewBox="0 0 128 128" xmlns="http://www.w3.org/2000/svg"><style type="text/css">.Back{fill:#000022;fill-opacity:.66667;}</style><path class="Back" d="m124.03 73.023-15.651 31.039a13.83 15.999 0 0 1-11.946 7.938h-86.433c-4.0029 0-6.4969-5.0232-4.48-9.0232l15.651-31.039a13.831 16 0 0 1 11.947-7.938h86.433c4.0028 0 6.4969 5.0232 4.4798 9.0232zm-90.913-17.023h70.881v-12c0-6.6275-4.644-12-10.373-12h-34.576l-13.831-16h-34.576c-5.7289 0-10.373 5.3725-10.373 12v69.511l14.928-29.604c3.7033-7.3445 10.57-11.907 17.92-11.907z"/></svg>
