<svg version="1.1" viewBox="0 0 128 128" xmlns="http://www.w3.org/2000/svg"><style type="text/css">.Back{fill:#555577;}</style><path class="Back" d="m52-0.086c-24 0-44 6.2-44 14v4.6c0 5.8 11 11 28 13 2.1-1 4.4-1.9 6.9-2.7 9.1-2.8 21-4.4 33-4.4 5.2 0 10 0.27 15 0.76 3.3-1.9 5.2-4.1 5.2-6.4v-4.6c0-7.6-20-14-44-14zm-44 31v19c0 4.3 6.2 8.1 16 11v-15c0-3.1 1.1-5.7 2.8-7.9-7.5-1.5-14-3.8-19-6.8zm0 32v19c0 4.3 6.2 8.1 16 11v-24c-6.4-1.5-12-3.5-16-6.2z"/><path class="Back" d="m120 46v4.6c0 7.6-20 14-44 14s-44-6.2-44-14v-4.6c0-7.6 20-14 44-14s44 6.2 44 14zm0 17v19c0 7.6-20 14-44 14s-44-6.2-44-14v-19c9.5 6.2 27 9.1 44 9.1 17 0 35-2.9 44-9.1zm0 32v19c0 7.6-20 14-44 14s-44-6.2-44-14v-19c9.5 6.2 27 9.1 44 9.1 17 0 35-2.9 44-9.1z"/></svg>
