<svg version="1.1" viewBox="0 0 128 128" xmlns="http://www.w3.org/2000/svg"><style type="text/css">.Back{fill:#000022;fill-opacity:.66667;}</style><path class="Back" d="m52-0.085938c-24.291 0-44 6.1664-44 13.727v4.5859c0 5.7569 11.441 10.697 27.617 12.73 2.1183-1.0184 4.4079-1.8777 6.8887-2.6523 9.0663-2.831 20.672-4.3906 33.494-4.3906 5.1785 0 10.144 0.26608 14.838 0.75586 3.2906-1.9231 5.1621-4.1174 5.1621-6.4434v-4.5859c0-7.5605-19.709-13.727-44-13.727zm-44 31.033v19.303c0 4.2504 6.2295 8.0589 16 10.58v-10.604-2.1191-2.4668c0-3.1115 1.1482-5.7288 2.752-7.873-7.5245-1.5018-14.094-3.7553-18.752-6.8203zm0 32.021v19.303c0 4.2505 6.2295 8.0609 16 10.582v-10.604-2.1211-10.932c-6.3708-1.4805-11.919-3.5433-16-6.2285z"/><path class="Back" d="m120 45.64v4.5869c0 7.5602-19.709 13.727-44 13.727s-44-6.1661-44-13.727v-4.5869c0-7.5602 19.709-13.727 44-13.727s44 6.1661 44 13.727zm0 17.306v19.302c0 7.5602-19.709 13.727-44 13.727s-44-6.1661-44-13.727v-19.302c9.4532 6.2198 26.756 9.1152 44 9.1152 17.245 0 34.548-2.8955 44-9.1152zm0 32.022v19.302c0 7.5602-19.709 13.727-44 13.727s-44-6.1661-44-13.727v-19.302c9.4532 6.2198 26.756 9.1152 44 9.1152 17.245 0 34.548-2.8955 44-9.1152z"/></svg>
