<svg version="1.1" viewBox="0 0 128 128" xmlns="http://www.w3.org/2000/svg"><style type="text/css">.Back{fill:#555577;}</style><path class="Back" d="m126 50-5-5c-1.4-1.4-3.6-1.4-5 0l-2.5 2.5-6.4-6.4c1.2-4.7 0.079-9.9-3.6-14l-10-10c-14-14-36-14-50 0l20 10v4.1c0 3.7 1.5 7.3 4.1 10l11 11c3.7 3.7 8.9 4.8 14 3.6l6.4 6.4-2.5 2.5c-1.4 1.4-1.4 3.6 0 5l5 5c1.4 1.4 3.6 1.4 5 0l20-20c1.4-1.4 1.4-3.6-4e-3 -5zm-63-3.4c-0.82-0.82-1.5-1.7-2.2-2.6l-56 52c-5.6 5.3-5.8 14-0.34 20 5.5 5.5 14 5.3 20-0.34l52-56c-0.87-0.64-1.7-1.3-2.5-2.1z"/></svg>
