<svg version="1.1" viewBox="0 0 128 128" xmlns="http://www.w3.org/2000/svg"><style type="text/css">.Back{fill:#555577;}</style><path class="Back" d="m62 42-41 34v36a3.6 3.6 0 0 0 3.6 3.6l25-0.064a3.6 3.6 0 0 0 3.5-3.6v-21a3.6 3.6 0 0 1 3.6-3.6h14a3.6 3.6 0 0 1 3.6 3.6v21a3.6 3.6 0 0 0 3.6 3.6l25 0.069a3.6 3.6 0 0 0 3.6-3.6v-36l-41-34a2.7 2.7 0 0 0-3.4 0zm65 23-19-15v-31a2.7 2.7 0 0 0-2.7-2.7h-12a2.7 2.7 0 0 0-2.7 2.7v16l-20-16a11 11 0 0 0-14 0l-56 46a2.7 2.7 0 0 0-0.36 3.8l5.7 6.9a2.7 2.7 0 0 0 3.8 0.36l52-43a2.7 2.7 0 0 1 3.4 0l52 43a2.7 2.7 0 0 0 3.8-0.36l5.7-6.9a2.7 2.7 0 0 0-0.38-3.8z"/></svg>
