<svg version="1.1" viewBox="0 0 128 128" xmlns="http://www.w3.org/2000/svg"><style type="text/css">.Back{fill:#555577;}</style><path class="Back" d="m59 40-43 36v30c0 1.9 1.5 3.4 3.4 3.4l26-0.06c1.8-0.051 3.3-1.6 3.3-3.4v-20c0-1.9 1.5-3.4 3.4-3.4h17c1.9 0 3.4 1.5 3.4 3.4v20c0 1.9 1.5 3.4 3.4 3.4l26 0.065c1.9 0 3.4-1.5 3.4-3.4v-30l-43-36c-0.93-0.76-2.3-0.76-3.2 0zm61 18-15-12v-27c0-1.4-1.1-2.5-2.5-2.5h-11c-1.4 0-2.5 1.1-2.5 2.5v13l-21-17c-3.8-3.2-9.3-3.2-13 0l-53 43c-1.1 0.89-1.2 2.5-0.34 3.6l5.4 6.5c0.89 1.1 2.5 1.2 3.6 0.34l49-40c0.93-0.76 2.3-0.76 3.2 0l49 40c1.1 0.89 2.7 0.74 3.6-0.34l5.1-6.2c0.89-1.1 1.4-2.7 0.34-3.6z"/></svg>
