<svg version="1.1" viewBox="0 0 128 128" xmlns="http://www.w3.org/2000/svg"><style type="text/css">.Back{fill:#555577;}</style><path class="Back" d="m62.204 41.838-40.913 33.696v36.368a3.5505 3.5505 0 0 0 3.5505 3.5505l24.867-0.0644a3.5505 3.5505 0 0 0 3.5327-3.5505v-21.239a3.5505 3.5505 0 0 1 3.5505-3.5505h14.202a3.5505 3.5505 0 0 1 3.5505 3.5505v21.223a3.5505 3.5505 0 0 0 3.5505 3.5616l24.858 0.0688a3.5505 3.5505 0 0 0 3.5505-3.5505v-36.392l-40.904-33.672a2.705 2.705 0 0 0-3.3951 0zm64.625 22.903-18.551-15.291v-30.736a2.6629 2.6629 0 0 0-2.6629-2.6629h-12.427a2.6629 2.6629 0 0 0-2.6629 2.6629v16.113l-19.867-16.346a10.651 10.651 0 0 0-13.536 0l-56.171 46.261a2.6629 2.6629 0 0 0-0.35505 3.7502l5.6586 6.8791a2.6629 2.6629 0 0 0 3.7524 0.3617l52.196-42.992a2.705 2.705 0 0 1 3.3951 0l52.199 42.992a2.6629 2.6629 0 0 0 3.7502-0.35505l5.6586-6.8791a2.6629 2.6629 0 0 0-0.37724-3.7568z"/></svg>
