<svg width="128" height="128" version="1.1" viewBox="0 0 128 128" xmlns="http://www.w3.org/2000/svg"><style type="text/css">.Back{fill:#555577;}</style><path class="Back" d="m105.92 0h-83.928c-3.3109 0-5.9949 2.684-5.9949 5.9949v3.9966c0 3.3109 2.684 5.9949 5.9949 5.9949 0 22.722 12.743 41.898 30.185 47.959-17.442 6.0613-30.185 25.237-30.185 47.959-3.3109 0-5.9949 2.684-5.9949 5.9949v3.9966c0 3.3109 2.684 5.9949 5.9949 5.9949h83.928c3.3109 0 5.9949-2.684 5.9949-5.9949v-3.9966c0-3.3109-2.684-5.9949-5.9949-5.9949 0-22.722-12.743-41.898-30.185-47.959 17.442-6.0613 30.185-25.237 30.185-47.959 3.3109 0 5.9949-2.684 5.9949-5.9949v-3.9966c0-3.3109-2.684-5.9949-5.9949-5.9949zm-18.753 95.918h-46.421c4.2611-11.689 13.013-19.983 23.21-19.983 10.197 0 18.949 8.2919 23.211 19.983zm0.0047-63.945h-46.426c-1.771-4.8589-2.7671-10.304-2.7671-15.986h51.956c0 5.6964-0.9959 11.137-2.7624 15.986z"/>
</svg>
