<svg version="1.1" viewBox="0 0 128 128" xmlns="http://www.w3.org/2000/svg"><style type="text/css">.Back{fill:#555577;}</style><g transform="matrix(.05732 0 0 .05732 8.672 .5556)"><path class="Back" d="m1478 1030v-128c0-17.33-6.333-32.33-19-45s-27.77-17.12-45-19h-320v-320c0-17.33-6.333-32.33-19-45s-27.67-19-45-19h-128c-17.33 0-32.33 6.333-45 19s-19 27.67-19 45v320h-320c-17.33 0-32.33 6.333-45 19s-19 27.67-19 45v128c0 17.33 6.333 32.33 19 45s27.77 20.88 45 19h320v320c0 17.33 6.333 32.33 19 45s27.67 19 45 19h128c17.33 0 32.33-6.333 45-19s19-27.67 19-45v-320h320c17.33 0 32.33-6.333 45-19s19-27.67 19-45zm186.2-474.2v820.4c0 79.33-28.17 147.2-84.5 203.5s-124.2 84.5-203.5 84.5h-820.4c-79.33 0-147.2-28.17-203.5-84.5-56.33-56.33-84.5-124.2-84.5-203.5v-820.4c0-79.33 28.17-147.2 84.5-203.5 56.33-56.33 124.2-84.5 203.5-84.5h820.4c79.33 0 147.2 28.17 203.5 84.5 56.33 56.33 84.5 124.2 84.5 203.5z"/></g><g transform="matrix(.07204 0 0 .04204 -4.481 99.1)"><path class="Back" d="m1728 186.4v256c0 17.33-6.333 32.33-19 45s-27.67 19-45 19h-1425c-17.33 0-32.33-6.333-45-19-12.67-12.67-19-27.67-19-45v-256c0-17.33 6.333-32.33 19-45 12.67-12.67 27.67-19 45-19h1425c17.33 0 32.33 6.333 45 19s19 27.67 19 45z"/></g></svg>
