<svg version="1.1" viewBox="0 0 128 128" xmlns="http://www.w3.org/2000/svg">
 <style type="text/css">.Back{fill:#555577;}</style>
 <path class="Back" d="m63.624 43.513c-2.2207-0.96732-5.9643-0.87003-8.4465 0.21071l-51.261 22.319c-2.4695 1.1015-2.6685 2.7631-0.4703 3.7665l52.199 23.828c2.1982 1.0035 5.9899 0.91305 8.4465-0.20884l51.261-23.41c2.4695-1.1015 2.6798-2.7829 0.47033-3.7684zm0.11547 8.2558 30.252 14.042c2.3395 1.0435 1.6973 3.2696-0.64274 4.3131l-29.607 12.514c-2.3395 1.0435-6.107 1.0426-8.4465-9.3e-4l-29.608-12.514c-2.3395-1.0435-2.9765-3.257-0.64428-4.3121l30.252-14.042c2.1824-0.97345 6.8752-0.94016 8.4444-1e-6z"/>
</svg>
