<svg version="1.1" viewBox="0 0 128 128" xmlns="http://www.w3.org/2000/svg">
 <style type="text/css">.Back{fill:#555577;}</style>
 <path class="Back" d="m63.624 27.513c-2.2207-0.96732-5.9643-0.87003-8.4465 0.21071l-51.261 22.319c-2.4695 1.1015-2.6685 2.7631-0.4703 3.7665l52.199 23.828c2.1982 1.0035 5.9899 0.91305 8.4465-0.20884l51.261-23.41c2.4695-1.1015 2.6798-2.7829 0.47033-3.7684zm0.11547 8.2558 30.252 14.042c2.3395 1.0435 1.6973 3.2696-0.64274 4.3131l-29.607 12.514c-2.3395 1.0435-6.107 1.0426-8.4465-9.3e-4l-29.608-12.514c-2.3395-1.0435-2.9765-3.257-0.64428-4.3121l30.252-14.042c2.1824-0.97345 6.8752-0.94016 8.4444-1e-6z"/>
 <path class="Back" d="m10.666 79.104-6.75 2.9395c-2.4695 1.1015-2.6689 2.7622-0.4707 3.7656l52.199 23.828c2.1982 1.0035 5.9907 0.9129 8.4473-0.20899l51.262-23.41c2.4695-1.1015 2.6782-2.7821 0.46875-3.7676l-7.2246-3.1465-14.672 6.6992c-0.18322 0.11224-0.3641 0.22574-0.57617 0.32031l-1.668 0.70508-27.59 12.6c-2.4566 1.1219-6.2491 1.2125-8.4473 0.20898l-25.191-11.5-4.7656-2.0137c-0.39258-0.17511-0.7171-0.3911-1.0078-0.62109z"/>
 <path class="Back" d="m10.666 63.104-6.75 2.9395c-2.4695 1.1015-2.6689 2.7622-0.4707 3.7656l52.199 23.828c2.1982 1.0035 5.9907 0.9129 8.4473-0.20899l51.262-23.41c2.4695-1.1015 2.6782-2.7821 0.46875-3.7676l-7.2246-3.1465-14.672 6.6992c-0.18322 0.11224-0.3641 0.22574-0.57617 0.32031l-1.668 0.70508-27.59 12.6c-2.4566 1.1219-6.2491 1.2125-8.4473 0.20898l-25.191-11.5-4.7656-2.0137c-0.39258-0.17511-0.7171-0.3911-1.0078-0.62109z"/>
</svg>
