<svg width="128" height="128" version="1.1" viewBox="0 0 128 128" xmlns="http://www.w3.org/2000/svg"><style type="text/css">.f{fill:#eeeeee;}</style><path class="f" d="m86.879 39.413c-3.7304-22.974-12.529-39.105-22.768-39.105-10.239 0-19.038 16.131-22.768 39.105zm-47.466 24.698c0 5.7113 0.30872 11.191 0.84898 16.465h47.672c0.54026-5.274 0.84898-10.754 0.84898-16.465 0-5.7113-0.30872-11.191-0.84898-16.465h-47.672c-0.54026 5.274-0.84898 10.754-0.84898 16.465zm83.535-24.698c-7.3578-17.468-22.254-30.975-40.648-36.429 6.2773 8.6956 10.599 21.791 12.863 36.429zm-77.051-36.429c-18.369 5.4541-33.29 18.961-40.622 36.429h27.785c2.2382-14.638 6.5603-27.733 12.838-36.429zm79.804 44.662h-29.509c0.54026 5.4026 0.84898 10.934 0.84898 16.465 0 5.5312-0.30872 11.062-0.84898 16.465h29.483c1.415-5.274 2.2125-10.754 2.2125-16.465 0-5.7113-0.79753-11.191-2.1868-16.465zm-94.52 16.465c0-5.5312 0.30872-11.062 0.84898-16.465h-29.509c-1.3892 5.274-2.2125 10.754-2.2125 16.465 0 5.7113 0.82325 11.191 2.2125 16.465h29.483c-0.51453-5.4026-0.82325-10.934-0.82325-16.465zm10.162 24.698c3.7304 22.974 12.529 39.105 22.768 39.105 10.239 0 19.038-16.131 22.768-39.105zm40.983 36.429c18.369-5.4541 33.29-18.961 40.648-36.429h-27.785c-2.264 14.638-6.586 27.733-12.863 36.429zm-77.051-36.429c7.3578 17.468 22.254 30.975 40.648 36.429-6.2773-8.6956-10.599-21.791-12.863-36.429z"/>
</svg>
