<svg width="128" height="128" version="1.1" viewBox="0 0 128 128" xmlns="http://www.w3.org/2000/svg">
 <style type="text/css">.bBack{fill:#EEEEEE;}</style>
 <path class="bBack" d="m15.148 0.23438c-0.80927-0.023987-1.6261 0.24272-2.2637 0.80859l-2.0371 1.8086c-0.24656 0.21884-0.43474 0.47174-0.58984 0.73633l-1.3809 1.2266c-1.2751 1.1318-1.3303 3.0135-0.125 4.2188l109.85 109.85c1.2053 1.2053 3.2014 1.2646 4.4766 0.13281l2.0371-1.8066c0.24726-0.21946 0.43651-0.47284 0.5918-0.73828l1.3789-1.2246c1.2751-1.1318 1.3323-3.0134 0.12695-4.2188l-10.641-10.641c2.5118-3.6068 4.6753-7.4743 6.4023-11.574h-17.98l-8.2305-8.2324h28.91c1.415-5.274 2.2109-10.754 2.2109-16.465 0-5.7113-0.79623-11.191-2.1856-16.465h-29.51c0.54026 5.4026 0.84961 10.934 0.84961 16.465 0 5.3529-0.29437 10.703-0.80273 15.939l-7.6719-7.6719c0.14056-2.7022 0.2168-5.4564 0.2168-8.2676 0-5.7113-0.30935-11.191-0.84961-16.465h-24.102l-8.2344-8.2344h31.281c-3.7304-22.974-12.529-39.104-22.768-39.104-8.384 0-15.793 10.83-20.252 27.363l-6.5625-6.5625c2.2525-7.0688 5.1118-13.293 8.6016-18.127h-0.001953c-6.5159 1.9347-12.575 4.9099-18.033 8.6934l-10.502-10.5c-0.60265-0.60264-1.4036-0.91937-2.2129-0.94336l0.001954-0.0019531zm67.152 2.75c6.2773 8.6956 10.595 21.79 12.859 36.428h27.785c-7.3578-17.468-22.252-30.974-40.645-36.428zm-75.012 32.148c-0.72078 1.3984-1.4031 2.82-2.0156 4.2793h6.2949l-4.2793-4.2793zm-4.7695 12.514c-1.3892 5.274-2.2129 10.754-2.2129 16.465 0 5.7113 0.82363 11.191 2.2129 16.465h29.482c-0.51453-5.4026-0.82227-10.934-0.82226-16.465 0-1.6599 0.057365-3.3158 0.11719-4.9707l-11.494-11.494h-17.283zm36.955 19.672c0.091339 4.5567 0.34756 8.986 0.78516 13.258h12.473l-13.258-13.258zm1.8672 21.488v0.001953c3.7304 22.974 12.529 39.105 22.768 39.105 6.7813 0 12.906-7.1343 17.367-18.594l-20.514-20.514h-19.621zm-36.068 0.001953c7.3578 17.468 22.254 30.976 40.648 36.43-6.2773-8.6956-10.599-21.792-12.863-36.43h-27.785zm82.447 26.756c-1.6028 3.6017-3.385 6.8872-5.3965 9.6738 3.7395-1.1103 7.3115-2.5944 10.727-4.3438l-5.3301-5.3301z"/>
</svg>
