<svg version="1.1" viewBox="0 0 128 128" xmlns="http://www.w3.org/2000/svg"><style type="text/css">.BackR{fill:#bb4444;}</style><path class="BackR" d="m19.852 8c-6.6239 0-11.998 5.3741-11.998 11.998v87.988c0 6.6239 5.3741 11.998 11.998 11.998h87.988c6.6239 0 11.998-5.3742 11.998-11.998v-87.988c0-6.6239-5.3742-11.998-11.998-11.998h-87.988zm41.264 16h5.7695c5.6273 0 10.604 3.5638 10.158 7.9434l-3.2773 32.17c-0.44574 4.3758-3.392 7.9434-7.6055 7.9434h-4.3203c-4.2134 0-7.1597-3.5675-7.6055-7.9434l-3.2773-32.17c-0.44612-4.3795 4.531-7.9434 10.158-7.9434zm2.8848 55.986a13.278 12.002 0 0 1 13.277 12.002 13.278 12.002 0 0 1-13.277 12.002 13.278 12.002 0 0 1-13.277-12.002 13.278 12.002 0 0 1 13.277-12.002z"/></svg>
