<svg version="1.1" viewBox="0 0 128 128" xmlns="http://www.w3.org/2000/svg"><style type="text/css">.Back{fill:#555577;}</style><path class="Back" d="m79 49c13 13 13 34 0.079 47-0.024 0.026-0.053 0.055-0.079 0.081l-15 15c-13 13-34 13-47 0-13-13-13-34 0-47l8.1-8.1c2.2-2.2 5.9-0.72 6 2.3 0.14 3.9 0.84 7.8 2.1 12 0.44 1.3 0.12 2.7-0.83 3.6l-2.9 2.9c-6.1 6.1-6.3 16-0.25 22 6.1 6.3 16 6.3 22 0.11l15-15c6.2-6.2 6.2-16 0-22-0.81-0.81-1.6-1.4-2.3-1.9a3.5 3.5 0 0 1-1.5-2.8c-0.087-2.3 0.73-4.7 2.6-6.5l4.6-4.6c1.2-1.2 3.1-1.4 4.5-0.38a33 33 0 0 1 4.5 3.8zm31-31c-13-13-34-13-47 0l-15 15c-0.026 0.026-0.055 0.055-0.079 0.081-13 13-13 34 0.079 47a33 33 0 0 0 4.5 3.8c1.4 0.98 3.3 0.83 4.5-0.38l4.6-4.6c1.8-1.8 2.7-4.2 2.6-6.5a3.5 3.5 0 0 0-1.5-2.8c-0.64-0.44-1.5-1.1-2.3-1.9-6.2-6.2-6.2-16 0-22l15-15c6.2-6.2 16-6.2 22 0.11 6.1 6.2 5.9 16-0.25 22l-2.9 2.9c-0.95 0.95-1.3 2.4-0.83 3.6 1.3 3.8 2 7.7 2.1 12 0.11 3 3.8 4.5 6 2.3l8.1-8.1c13-13 13-34 2.3e-4 -47z"/></svg>
