<svg version="1.1" viewBox="0 0 128 128" xmlns="http://www.w3.org/2000/svg"><style type="text/css">.Back{fill:#000022;fill-opacity:.66667;}</style><path class="Back" d="m79.465 48.536c13.098 13.111 12.918 34.132 0.07892 47.043-0.02411 0.02633-0.0526 0.05481-0.07892 0.08105l-14.732 14.732c-12.993 12.993-34.133 12.992-47.124 0-12.993-12.991-12.993-34.133 0-47.124l8.1345-8.1345c2.1571-2.1571 5.8721-0.72343 5.9835 2.3251 0.14206 3.8851 0.83874 7.7883 2.1243 11.558 0.43538 1.2763 0.1243 2.6881-0.82932 3.6417l-2.869 2.869c-6.1439 6.1439-6.3366 16.148-0.2532 22.352 6.1435 6.2651 16.241 6.3024 22.432 0.11179l14.732-14.73c6.1801-6.1801 6.1542-16.169 0-22.323-0.81134-0.80981-1.6286-1.439-2.267-1.8785a3.5157 3.5157 0 0 1-1.5229-2.7635c-0.08682-2.3165 0.73396-4.7036 2.5645-6.5341l4.6155-4.6157c1.2103-1.2103 3.109-1.359 4.5125-0.37948a33.427 33.427 0 0 1 4.4989 3.77zm30.896-30.898c-12.991-12.992-34.131-12.993-47.124 0l-14.732 14.732c-0.02631 0.02631-0.0548 0.0548-0.07891 0.08111-12.839 12.91-13.019 33.931 0.07891 47.043a33.421 33.421 0 0 0 4.4987 3.7697c1.4035 0.97949 3.3024 0.83063 4.5125-0.37947l4.6155-4.6157c1.8305-1.8305 2.6513-4.2176 2.5645-6.5341a3.5157 3.5157 0 0 0-1.5229-2.7635c-0.63838-0.43954-1.4556-1.0687-2.267-1.8785-6.1542-6.1542-6.1801-16.143 0-22.323l14.732-14.73c6.1906-6.1906 16.288-6.1534 22.432 0.1118 6.0834 6.204 5.8909 16.208-0.2532 22.352l-2.869 2.869c-0.95362 0.95362-1.2647 2.3654-0.82932 3.6417 1.2855 3.7693 1.9822 7.6726 2.1243 11.558 0.11158 3.0485 3.8263 4.4822 5.9835 2.3251l8.1345-8.1345c12.994-12.991 12.994-34.133 2.3e-4 -47.124z"/></svg>
