<svg ersion="1.1" viewBox="0 0 128 128" xmlns="http://www.w3.org/2000/svg"><style type="text/css">.Back{fill:#555577;}</style><path class="Back" d="m95.951-7.6611e-4c-18.635 0.066553-31.805 11.509-31.805 34.053v21.64h-53.498c-5.8789 0-10.649 4.7696-10.649 10.649v51.18c0 5.8789 4.7696 10.649 10.649 10.649h74.871c5.8789 0 10.649-4.7696 10.649-10.649v-51.18c0-5.8789-4.7696-10.649-10.649-10.649h-5.4303v-21.773c0-12.107 7.0324-18.084 15.817-18.172 8.8738-0.08874 16.128 5.9942 16.128 17.973v17.748c0 2.9505 2.3737 5.3243 5.3243 5.3243h5.2944c2.9505 0 5.3242-2.3737 5.3242-5.3243v-17.748c0-21.957-13.392-33.787-32.027-33.72z"/>
</svg>
