<svg version="1.1" viewBox="0 0 128 128" xmlns="http://www.w3.org/2000/svg"><style type="text/css">.Back{fill:#555577;}</style><path class="Back" d="m96 68v-8q0-1.625-1.188-2.812-1.188-1.187-2.812-1.187h-56q-1.625 0-2.812 1.187-1.188 1.188-1.188 2.812v8q0 1.625 1.188 2.812t2.812 1.188h56q1.625 0 2.812-1.188t1.188-2.812zm16-34v60q0 7.438-5.281 12.72t-12.72 5.281h-60q-7.438 0-12.72-5.281t-5.281-12.72v-60q0-7.437 5.281-12.72 5.281-5.281 12.72-5.281h60q7.438 0 12.72 5.281 5.281 5.281 5.281 12.72z"/></svg>
