<svg version="1.1" viewBox="0 0 128 128" xmlns="http://www.w3.org/2000/svg"><style type="text/css">.Back{fill:#555577;}</style><g transform="matrix(.06909 0 0 .06909 -1.793 -8.535)"><path class="Back" d="m1408 1216q0 26-19 45t-45 19h-896q-26 0-45-19t-19-45 19-45l448-448q19-19 45-19t45 19l448 448q19 19 19 45z"/></g><path class="Back" d="m120 99.96v8.043q0 1.634-1.271 2.828-1.271 1.194-3.011 1.194h-111.3q-1.74 0-3.011-1.194-1.271-1.194-1.271-2.828v-8.043q0-1.634 1.271-2.828 1.271-1.194 3.011-1.194h111.3q1.74 0 3.011 1.194 1.271 1.194 1.271 2.828z"/></svg>
