<svg version="1.1" viewBox="0 0 128 128" xmlns="http://www.w3.org/2000/svg"><style type="text/css">.Back{fill:#555577;}</style><g class="Back"><path d="m111 34 2.6 4.5c1.5 2.6 0.76 6.2-2 7.4l-19 8.7c-2.7 1.2-5.6 1.2-6.7-0.71l-1.9-3.3c-1.1-1.9 0.29-4.4 2.7-6.1l17-12c2.4-1.8 5.9-0.62 7.4 2z"/><path d="m14 90 2.6 4.5c1.5 2.6 5 3.7 7.4 2l17-12c2.4-1.8 3.8-4.2 2.7-6.1l-1.9-3.3c-1.1-1.9-3.9-1.9-6.7-0.71l-19 8.7c-2.7 1.2-3.5 4.8-2 7.4z"/><path d="m61 8h5.2c3 0 5.7 2.4 5.4 5.4l-2.2 21c-0.31 3-1.8 5.4-4 5.4h-3.8c-2.2 0-3.6-2.4-4-5.4l-2.2-21c-0.31-3 2.4-5.4 5.4-5.4z"/><path d="m61 120h5.2c3 0 5.7-2.4 5.4-5.4l-2.2-21c-0.31-3-1.8-5.4-4-5.4h-3.8c-2.2 0-3.6 2.4-4 5.4l-2.2 21c-0.31 3 2.4 5.4 5.4 5.4z"/><path d="m111 94 2.6-4.5c1.5-2.6 0.76-6.2-2-7.4l-19-8.7c-2.7-1.2-5.6-1.2-6.7 0.71l-1.9 3.3c-1.1 1.9 0.29 4.4 2.7 6.1l17 12c2.4 1.8 5.9 0.62 7.4-2z"/><path d="m14 38 2.6-4.5c1.5-2.6 5-3.7 7.4-2l17 12c2.4 1.8 3.8 4.2 2.7 6.1l-1.9 3.3c-1.1 1.9-3.9 1.9-6.7 0.71l-19-8.7c-2.7-1.2-3.5-4.8-2-7.4z"/></g></svg>
