<svg version="1.1" viewBox="0 0 128 128" xmlns="http://www.w3.org/2000/svg"><style type="text/css">.Back{fill:#555577;}</style><g class="Back"><path d="m111.21 33.769 2.5763 4.4622c1.5024 2.6022 0.75667 6.1799-1.9852 7.409l-19.403 8.6974c-2.7424 1.2293-5.5786 1.1851-6.6735-0.71144l-1.8776-3.2521c-1.095-1.8965 0.28841-4.3774 2.7206-6.1352l17.234-12.455c2.4353-1.76 5.9066-0.61696 7.409 1.9852z"/><path d="m14.214 89.769 2.5763 4.4622c1.5024 2.6022 4.9736 3.7453 7.409 1.9852l17.234-12.455c2.4358-1.7604 3.8156-4.2387 2.7206-6.1352l-1.8776-3.2521c-1.095-1.8965-3.9351-1.9389-6.6735-0.71144l-19.403 8.6974c-2.7419 1.229-3.4876 4.8068-1.9852 7.409z"/><path d="m61.424 8h5.1525c3.0047 0 5.7303 2.4347 5.4237 5.4237l-2.1695 21.153c-0.30663 2.9896-1.763 5.4237-3.9529 5.4237h-3.7552c-2.1899 0-3.6467-2.4384-3.9529-5.4237l-2.1695-21.153c-0.30657-2.9891 2.419-5.4237 5.4237-5.4237z"/><path d="m61.424 120h5.1525c3.0047 0 5.7303-2.4347 5.4237-5.4237l-2.1695-21.153c-0.30663-2.9896-1.763-5.4237-3.9529-5.4237h-3.7552c-2.1899 0-3.6467 2.4384-3.9529 5.4237l-2.1695 21.153c-0.30657 2.9891 2.419 5.4237 5.4237 5.4237z"/><path d="m111.21 94.231 2.5763-4.4622c1.5024-2.6022 0.75667-6.1799-1.9852-7.409l-19.403-8.6974c-2.7424-1.2293-5.5786-1.1851-6.6735 0.71144l-1.8776 3.2521c-1.095 1.8965 0.28841 4.3774 2.7206 6.1352l17.234 12.455c2.4353 1.76 5.9066 0.61696 7.409-1.9852z"/><path d="m14.214 38.231 2.5763-4.4622c1.5024-2.6022 4.9736-3.7453 7.409-1.9852l17.234 12.455c2.4358 1.7604 3.8156 4.2387 2.7206 6.1352l-1.8776 3.2521c-1.095 1.8965-3.9351 1.9389-6.6735 0.71144l-19.403-8.6974c-2.7419-1.229-3.4876-4.8068-1.9852-7.409z"/></g></svg>
