<svg version="1.1" viewBox="0 0 128 128" xmlns="http://www.w3.org/2000/svg">
 <style type="text/css">.Back{fill:#555577;}</style>
 <path class="Back" d="m43.412 16.135c-0.16696-0.006904-0.33638-0.004802-0.50781 0.007812-1.2468 0.091738-2.6014 0.70517-3.9023 1.9043l-36.525 37.414c-3.2901 3.3702-3.3159 5.5749 0 8.8691l36.525 37.414c4.0769 4.1761 8.8691 2.2271 8.8691-4.0898v-0.072266-17.455h0.021484 32.107 0.021484v17.455 0.072266c0 6.3169 4.7922 8.266 8.8691 4.0898l36.525-37.414c3.3159-3.2942 3.2901-5.4989 0-8.8691l-36.525-37.414c-1.3009-1.1991-2.6555-1.8126-3.9023-1.9043-2.743-0.20182-4.9668 2.1167-4.9668 6.248v17.736h-0.021484-32.107-0.021484v-17.736c2.2e-5 -3.8731-1.9545-6.1523-4.459-6.2559z"/>
</svg>
