<svg version="1.1" viewBox="0 0 128 128" xmlns="http://www.w3.org/2000/svg">
 <style type="text/css">.Back{fill:#555577;}</style>
 <path class="Back" d="m84.988 16.142c-2.743-0.20182-4.9668 2.1167-4.9668 6.248v17.738c-0.0073-1.9e-5 -0.01421-2e-3 -0.02148-2e-3h-56c-4.432 0-8 3.5114-8 7.873v24.254c0 4.3617 3.568 7.873 8 7.873h56c0.0073 0 0.01422-0.0019 0.02148-2e-3v17.53c0 6.3169 4.7922 8.266 8.8691 4.0899l36.525-37.414c3.3159-3.2942 3.2901-5.4989 0-8.8691l-36.525-37.414c-1.3009-1.1991-2.6555-1.8126-3.9023-1.9043z"/>
</svg>
