<svg version="1.1" viewBox="0 0 128 128" xmlns="http://www.w3.org/2000/svg"><style type="text/css">.Back{fill:#555577;}</style><path class="Back" d="m32 50c0-7.7 6.3-14 14-14h42v-18c0-3.3-2.7-6-6-6h-24c-2.8-4.8-8-8-14-8s-11 3.2-14 8h-24c-3.3 0-6 2.7-6 6v80c0 3.3 2.7 6 6 6h26zm12-36c3.3 0 6 2.7 6 6s-2.7 6-6 6-6-2.7-6-6 2.7-6 6-6zm50 62h26v46c0 3.3-2.7 6-6 6h-68c-3.3 0-6-2.7-6-6v-72c0-3.3 2.7-5.8 6-6h42v26c0 3.3 2.7 6.3 6 6zm26-9.5v1.5h-24v-24h1.5c1.6 0.023 3.1 0.67 4.2 1.8l17 17c1.1 1.1 1.3 2.1 1.3 3.7z"/></svg>
