<svg version="1.1" viewBox="0 0 128 128" xmlns="http://www.w3.org/2000/svg"><style type="text/css">.Line{fill:#000000;}</style><path class="Line" d="m40.053 46.076c0-7.7324 6.2908-14.023 14.023-14.023h34.056v-18.03c0-3.3192-2.6907-6.0099-6.0099-6.0099h-20.186c-2.7756-4.7854-7.9513-8.0132-13.87-8.0132s-11.095 3.2278-13.87 8.0132h-20.186c-3.3192 0-6.0099 2.6907-6.0099 6.0099v84.138c0 3.3192 2.6907 6.0099 6.0099 6.0099h26.043zm8.0132-36.059c3.3192 0 6.0099 2.6907 6.0099 6.0099s-2.6907 6.0099-6.0099 6.0099c-3.3192 0-6.0099-2.6907-6.0099-6.0099s2.6907-6.0099 6.0099-6.0099zm46.076 62.102h26.043v50.082c0 3.3192-2.6907 6.0099-6.0099 6.0099h-60.099c-3.3192 0-6.0099-2.6907-6.0099-6.0099v-76.125c0-3.3192 2.6907-6.0099 6.0099-6.0099h34.056v26.043c0 3.3054 2.7044 6.0099 6.0099 6.0099zm26.043-9.5304v1.5172h-24.039v-24.039h1.5172a6.0099 6.0099 0 0 1 4.2495 1.7601l16.512 16.512a6.0104 6.0104 0 0 1 1.7604 4.2497z"/></svg>
