<svg version="1.1" viewBox="0 0 128 128" xmlns="http://www.w3.org/2000/svg"><style type="text/css">.Line{fill:#000000;}</style><path class="Line" d="m124.39 18.528-15.018-15.018c-4.6844-4.6844-12.282-4.6844-16.966 0l-14.128 14.128 31.984 31.984 14.128-14.128c4.6844-4.6844 4.6844-12.279 0-16.966zm-61.659-5.1291c-3.9024-3.9024-10.228-3.9024-14.131 0l-29.675 29.678c-1.5615 1.5615-1.5615 4.0923 0 5.6512l5.6537 5.6537c1.5615 1.5615 4.0923 1.5615 5.6537 0l25.438-25.438 5.6537 5.6512-37.865 37.862a81.705 81.705 0 0 0-23.429 48.738l-0.007495 0.0575c-0.42472 3.8175 2.8006 7.0453 6.6181 6.6231a81.701 81.701 0 0 0 48.803-23.434l49.165-49.165-20.679-20.679z"/></svg>
