<svg width="128" height="128" version="1.1" viewBox="0 0 128 128" xmlns="http://www.w3.org/2000/svg">
 <style type="text/css">.f{fill:#eeeeee;}</style>
 <path class="f" d="m94.669 13.295-22.092 22.092-19.657-5.9362-17.471-5.2786-15.925-4.7987c-1.0131-0.23105-2.0972 0.07109-2.8259 0.79978l-10.273 10.273c-1.4041 1.4041-1.1019 3.7323 0.60428 4.7276l38.869 27.033c-5.6162 5.9717-10.557 11.872-14.592 17.364l-18.875-4.7276c-1.0308-0.24882-2.115 0.05332-2.8614 0.79978l-7.5713 7.5713c-1.3507 1.3507-1.1375 3.5901 0.4621 4.6565l17.666 11.766c-0.99528 3.448-0.83533 6.0606 0.60428 7.5002 1.4396 1.4396 4.0522 1.5996 7.5002 0.60429l11.783 17.649c1.0664 1.5996 3.3058 1.8128 4.6387 0.47987l7.5713-7.5713c0.74646-0.74648 1.0486-1.8306 0.79978-2.8614l-4.7276-18.875c5.4918-4.0345 11.392-8.9753 17.364-14.592l27.033 38.869c0.99529 1.7062 3.3413 1.9906 4.7276 0.60428l10.273-10.273c0.74646-0.74646 1.0308-1.8128 0.79978-2.8259l-4.7987-15.925-5.2786-17.471-5.9362-19.657 22.092-22.092c10.202-10.202 14.023-22.945 8.531-28.437-5.4918-5.4918-18.235-1.6707-28.437 8.531z"/>
</svg>
