<svg version="1.1" viewBox="0 0 128 128" xmlns="http://www.w3.org/2000/svg"><style type="text/css">.BackG{fill:#23aa23;}.Back{fill:#555577;}</style><path class="BackG" d="m14.2 27.6c-5.59-3.3-14.2-0.0944-14.2 7.87v81.8c0 7.32 7.87 11.8 14.2 7.87l69.2-40.9c6.14-3.62 6.14-12.6 0-16.5-23.1-13.4-46.1-26.7-69.2-40.1z"/><g class="Back"><path d="m60 24a4 4 0 1 0 0 8c9.2 0 16 2.69 20.7 7.33s7.33 11.5 7.33 20.7a4 4 0 1 0 8 0c0-10.8-3.31-20-9.67-26.3s-15.5-9.67-26.3-9.67z" /><path d="m60 0a4 4 0 1 0 0 8c30 0 52 22 52 52a4 4 0 1 0 8 0c0-34-26-60-60-60z"/></g></svg>
