<svg version="1.1" viewBox="0 0 128 128" xmlns="http://www.w3.org/2000/svg"><style type="text/css">.BackG{fill:#23aa23;}.Back{fill:#555577;}</style>
 <path class="BackG" d="m20.203 0.25586c-6.0609-0.15-12.191 4.0428-12.191 11.633v104c0 9.3 10 15 18 10l34.318-20.279c-0.33672 0.0187-0.71284 0.08028-0.98047 0.01953-4.9975 0.3457-9.8549-3.3649-10.965-8.2246-1.0391-4.0739 0.67074-8.5946 4.0078-11.105 1.951-1.5651 4.4822-2.1561 6.9434-2.125 0.44238-0.1309 1.396 0.28191 1.4531-0.22656-1.4362-1.4459-2.8143-2.9481-4.2852-4.3594-2.2103-2.0765-3.7609-4.9578-3.7734-8.0371-0.14346-3.6786 1.7742-7.3288 4.877-9.3066 3.6476-2.429 8.8443-2.2383 12.227 0.58008 0.19458-0.69912 0.41259-1.3924 0.67188-2.0703 2.9612-8.1027 11.029-14.083 19.678-14.367 2.0004-0.073806 4.0127 0.10189 5.9629 0.55859 7.7437 1.7414 14.149 8.0408 16.279 15.65 2.0153-1.5049 4.586-2.1739 7.0859-1.9922-0.71712-3.0111-2.5471-5.822-5.5-7.7148-29.312-17.036-58.663-34.006-88-51-1.775-1.05-3.7883-1.5828-5.8086-1.6328z" opacity=".7"/>
 <path class="Back" d="m127.87 95.681c-0.0686 2.4995-2.1822 4.4598-4.6825 4.4598h-7.9352v2.2944c0 3.1354-0.70009 6.1067-1.9503 8.7684l8.6369 8.6369c1.792 1.7921 1.792 4.6976 0 6.4897-1.7922 1.7921-4.6977 1.792-6.4898 0l-7.8493-7.8493c-3.5492 2.8785-8.0714 4.6044-12.997 4.6044v-34.99c0-0.95032-0.7705-1.7208-1.7208-1.7208h-3.4417c-0.95033 0-1.7208 0.77051-1.7208 1.7208v34.99c-4.926 0-9.4482-1.7259-12.997-4.6044l-7.8493 7.8493c-1.7923 1.7921-4.6977 1.792-6.4898 0-1.792-1.7921-1.792-4.6976 0-6.4897l8.6369-8.6369c-1.2502-2.6617-1.9503-5.633-1.9503-8.7684v-2.2944h-7.9351c-2.5004 0-4.614-1.9603-4.6825-4.4598-0.07127-2.5933 2.0098-4.718 4.587-4.718h8.0306v-8.4242l-6.6866-6.6866c-1.792-1.7921-1.792-4.6976 0-6.4897 1.7922-1.7921 4.6976-1.7921 6.4898 0l7.8337 7.8338h32.909l7.8337-7.8337c1.7922-1.7921 4.6976-1.7921 6.4898 0 1.792 1.7921 1.792 4.6976 0 6.4897l-6.6865 6.6864v8.4242h8.0306c2.5772 0 4.6583 2.1247 4.5872 4.718zm-36.566-41.429c-8.8703 0-16.061 7.1908-16.061 16.061h32.122c0-8.8703-7.1908-16.061-16.061-16.061z"/>
</svg>
