<svg version="1.1" viewBox="0 0 128 128" xmlns="http://www.w3.org/2000/svg"><style type="text/css">.Back{fill:#309036;fill-opacity:.66667;}.BackC{fill:#000022;fill-opacity:.66667;}</style><path class="Back" d="m20.211 0.035156c-6.0722-0.13889-12.207 4.1108-12.207 11.918v103.62c0 9.3384 10.135 14.966 18.029 10.285l29.967-17.707v-13.35-3.0176-20.984-3.0176-2.6973c0-5.0539 3.3031-8.3356 6.041-10.184 2.738-1.848 5.7229-2.9929 9.1348-3.9688 6.8238-1.9516 15.371-2.9922 24.824-2.9922 3.0648 0 6.0206 0.11964 8.8672 0.33398l-78.834-46.605c-1.7805-1.0521-3.7982-1.5865-5.8223-1.6328z"/><path class="BackC" d="m128 65.084v5.7149c0 5.0363-14.334 9.1438-32 9.1438-17.666 0-32-4.1076-32-9.1438v-5.7149c0-5.0363 14.334-9.1438 32-9.1438 17.666 0 32 4.1076 32 9.1438zm0 16.859v12.859c0 5.0363-14.334 9.1438-32 9.1438-17.666 0-32-4.1076-32-9.1438v-12.859c6.875 4.1434 19.459 6.0721 32 6.0721 12.542 0 25.125-1.9289 32-6.0721zm0 24.002v12.859c0 5.0363-14.334 9.1438-32 9.1438-17.666 0-32-4.1076-32-9.1438v-12.859c6.875 4.1434 19.459 6.0722 32 6.0722 12.542 0 25.125-1.9289 32-6.0722z"/></svg>
