<svg version="1.1" viewBox="0 0 128 128" xmlns="http://www.w3.org/2000/svg"><style type="text/css">.BackG{fill:#23aa23;}.Back{fill:#555577;}</style><path class="BackG" d="m20 0.035c-6.1-0.14-12 4.1-12 12v104c0 9.3 10 15 18 10l30-18v-43c0-5.1 3.3-8.3 6-10 2.7-1.8 5.7-3 9.1-4 6.8-2 15-3 25-3 3.1 0 6 0.12 8.9 0.33l-79-47c-1.8-1.1-3.8-1.6-5.8-1.6z" opacity="0.7"/><path class="Back" d="m128 65v5.7c0 5-14 9.1-32 9.1s-32-4.1-32-9.1v-5.7c0-5 14-9.1 32-9.1s32 4.1 32 9.1zm0 17v13c0 5-14 9.1-32 9.1s-32-4.1-32-9.1v-13c6.9 4.1 19 6.1 32 6.1 13 0 25-1.9 32-6.1zm0 24v13c0 5-14 9.1-32 9.1s-32-4.1-32-9.1v-13c6.9 4.1 19 6.1 32 6.1 13 0 25-1.9 32-6.1z"/></svg>
