<svg version="1.1" viewBox="0 0 128 128" xmlns="http://www.w3.org/2000/svg"><style type="text/css">.Back{fill:#555577;}</style><path class="Back" d="m96.18 67.99v-7.992q0-1.623-1.186-2.81-1.186-1.186-2.81-1.186h-19.98v-19.98q0-1.623-1.186-2.81-1.186-1.186-2.81-1.186h-7.992q-1.623 0-2.81 1.186-1.186 1.186-1.186 2.81v19.98h-19.98q-1.623 0-2.81 1.186-1.186 1.186-1.186 2.81v7.992q0 1.623 1.186 2.81 1.186 1.186 2.81 1.186h19.98v19.98q0 1.623 1.186 2.81 1.186 1.186 2.81 1.186h7.992q1.623 0 2.81-1.186 1.186-1.186 1.186-2.81v-19.98h19.98q1.623 0 2.81-1.186 1.186-1.186 1.186-2.81zm15.98-33.97v59.94q0 7.43-5.276 12.71-5.276 5.276-12.71 5.276h-59.94q-7.43 0-12.71-5.276-5.276-5.276-5.276-12.71v-59.94q0-7.43 5.276-12.71 5.276-5.276 12.71-5.276h59.94q7.43 0 12.71 5.276 5.276 5.276 5.276 12.71z"/></svg>
