<svg version="1.1" viewBox="0 0 128 128" xmlns="http://www.w3.org/2000/svg"><style type="text/css">.Back{fill:#555577;}</style><path class="Back" d="m106 0h-92c-7.6 0-14 6.1-14 14v100c0 7.6 6.1 14 14 14h92c7.6 0 14-6.1 14-14v-100c0-7.6-6.1-14-14-14zm-46 113c-7.2 0-13-5.9-13-13 0-7.2 5.9-13 13-13s13 5.9 13 13c0 7.2-5.9 13-13 13zm11-37v0.38c0 1.9-1.5 3.4-3.4 3.4h-16c-1.9 0-3.4-1.5-3.4-3.4v-1.1c0-12 8.9-16 16-20 5.8-3.2 9.3-5.4 9.3-9.7 0-5.6-7.2-9.4-13-9.4-7.8 0-11 3.7-16 10-1.2 1.5-3.3 1.7-4.8 0.6l-9.9-7.5c-1.4-1.1-1.8-3.1-0.77-4.6 7.8-12 18-18 33-18 16 0 33 13 33 29 0 22-24 22-24 30z"/></svg>
