<svg version="1.1" viewBox="0 0 128 128" xmlns="http://www.w3.org/2000/svg"><style type="text/css">.Back{fill:#555577;}</style><path class="Back" d="m114.04 0h-100.36c-7.5582 0-13.685 6.127-13.685 13.685v100.36c0 7.5582 6.127 13.685 13.685 13.685h100.36c7.5582 0 13.685-6.127 13.685-13.685v-100.36c0-7.5582-6.127-13.685-13.685-13.685zm-50.179 113.47c-7.2318 0-13.115-5.8835-13.115-13.115 0-7.2318 5.8832-13.115 13.115-13.115 7.2318 0 13.115 5.8832 13.115 13.115 0 7.2315-5.8832 13.115-13.115 13.115zm11.404-37.444v0.38005c0 1.8894-1.5319 3.4213-3.4213 3.4213h-15.966c-1.8894 0-3.4213-1.5319-3.4213-3.4213v-1.1404c0-11.706 8.8749-16.386 15.582-20.146 5.7509-3.2243 9.2757-5.4171 9.2757-9.6869 0-5.648-7.2044-9.3966-13.029-9.3966-7.7521 0-11.244 3.746-16.338 10.206-1.1533 1.4626-3.2673 1.7303-4.7513 0.605l-9.893-7.5012c-1.4449-1.0957-1.7822-3.1282-0.77407-4.6353 7.7818-11.632 17.692-18.178 33.229-18.178 16.07 0 33.224 12.544 33.224 29.081 0 21.959-23.717 22.297-23.717 30.412z"/></svg>
