<svg version="1.1" viewBox="0 0 128 128" xmlns="http://www.w3.org/2000/svg"><style type="text/css">.Back{fill:#555577;}</style><path class="Back" d="m63.967 7.9997c14.928 0.0268 28.481 5.9092 38.488 15.472l8.0452-8.0452c3.4059-3.4057 9.2291-0.99362 9.2291 3.8229v30.198c0 2.9858-2.4204 5.4062-5.4062 5.4062h-30.198c-4.8165 0-7.2286-5.8232-3.8229-9.2291l9.4046-9.4046c-6.9524-6.5098-15.949-10.116-25.506-10.198-20.814-0.17976-38.358 16.664-38.178 38.168 0.17075 20.4 16.709 37.517 37.842 37.517 9.2643 0 18.02-3.3064 24.92-9.3609 1.0684-0.93731 2.6819-0.88031 3.6871 0.12456l8.9342 8.9342c1.0975 1.0975 1.0432 2.8867-0.10858 3.927-9.9058 8.9475-23.033 14.396-37.433 14.396-30.853 0-55.864-25.011-55.864-55.864-2.26e-4 -30.818 25.149-55.92 55.967-55.865z"/></svg>
