<svg version="1.1" viewBox="0 0 96 96" xmlns="http://www.w3.org/2000/svg">
 <style type="text/css">.Back{fill:#555577;}</style>
 <path class="Back" d="m67.768 43.195v0.07422c0 0.32611-0.42636 0.5332-0.71735 0.5332h-34.914v15.453c0 2.5116 2.0216 4.5332 4.5332 4.5332h54.537c2.5116 0 4.5332-2.0216 4.5332-4.5332v-30.92c0-2.5116-2.0216-4.5332-4.5332-4.5332h-23.439v5.3789l9.7305 7.6211 4.8555-4.9004c2.0631-2.0823 5.6056-0.62908 5.6191 2.291l0.08398 18.289c0.0085 1.8289-1.4466 3.2981-3.2754 3.3066l-18.289 0.08398c-2.9262 0.01355-4.407-3.5154-2.3438-5.5977l5.5391-5.5938z"/>
 <path class="Back" d="m4.9434-0.17c-2.5116 0-4.5352 2.0216-4.5352 4.5332v30.92c0 2.5116 2.0236 4.5332 4.5352 4.5332h54.535c1.1648-0.03402 2.0398-0.38143 2.707-0.94141l-21.312-16.5 7.1152-8.6875 16.025 12.553v-21.877c0-2.5116-2.0236-4.5332-4.5352-4.5332z"/>
 <g class="Back" transform="matrix(.042804 0 0 .042804 21.679 28.309)">
  <path class="Back" d="m1408 1088q0 26-19 45l-448 448q-19 19-45 19t-45-19l-448-448q-19-19-19-45t19-45 45-19h896q26 0 45 19t19 45z"/>
 </g>
</svg>
