<svg version="1.1" viewBox="0 0 128 128" xmlns="http://www.w3.org/2000/svg"><style type="text/css">.Back{fill:#555577;}</style><path class="Back" d="m117 28-24-24c-2.6-2.5-6.1-4-9.7-4h-70c-7.6 0-14 6.1-14 14v100c0 7.6 6.1 14 14 14h93c7.6 0 14-6.1 14-14v-77c-0.026-3.6-1.5-7.1-4-9.7zm-57 82c-10 0-18-8.2-18-18s8.2-18 18-18 18 8.2 18 18-8.2 18-18 18zm27-87v29c0 1.9-1.5 3.4-3.4 3.4h-62c-1.9 0-3.4-1.5-3.4-3.4v-30c0-1.9 1.5-3.4 3.4-3.4h61c0.91 0 1.8 0.36 2.4 1l0.99 0.99c0.64 0.64 1 1.5 1 2.4z"/></svg>
