<svg version="1.1" viewBox="0 0 128 128" xmlns="http://www.w3.org/2000/svg"><style type="text/css">.Back{fill:#555577;}</style><path class="Back" d="m123.82 27.946-23.935-23.935a13.696 13.696 0 0 0-9.6846-4.0115h-76.504c-7.5642 0-13.696 6.1319-13.696 13.696v100.44c0 7.5642 6.1319 13.696 13.696 13.696h100.44c7.5642 0 13.696-6.1319 13.696-13.696v-76.504a13.696 13.696 0 0 0-4.0115-9.6846zm-59.904 81.623c-10.085 0-18.261-8.176-18.261-18.261 0-10.085 8.176-18.261 18.261-18.261s18.261 8.176 18.261 18.261c0 10.085-8.176 18.261-18.261 18.261zm27.392-86.89v28.682c0 1.8909-1.5331 3.424-3.424 3.424h-66.198c-1.8909 0-3.424-1.5331-3.424-3.424v-29.675c0-1.8909 1.5331-3.424 3.424-3.424h65.205c0.90822 0 1.7791 0.36066 2.4211 1.003l0.99297 0.99297a3.4229 3.4229 0 0 1 1.003 2.4211z"/></svg>
