<svg version="1.1" viewBox="0 0 128 128" xmlns="http://www.w3.org/2000/svg"><style type="text/css">.Back{fill:#555577;}</style><path class="Back" d="m16 16c-4.4117 0-8 4.0369-8 9v12c0 1.6575 1.1933 3 2.6667 3h13.333v-15c0-4.9631-3.5883-9-8-9zm40 77.357v-13.357h48v-46c0-9.9262-8.0738-18-18-18h-57.077c1.9031 2.5144 3.0769 5.61 3.0769 9v69c0 6.1391 4.5523 10 12.071 10 7.6684-0.15562 11.929-4.5754 11.929-10.643zm8-5.3569v6c0 9.9244-8.0738 18-18 18h61c11.599 0 21-9.4012 21-21 0-1.6575-1.3425-3-3-3z"/></svg>
