<svg version="1.1" viewBox="0 0 128 128" xmlns="http://www.w3.org/2000/svg"><style type="text/css">.Back{fill:#555577;}</style><path class="Back" d="m72 51v2.8c0 1.4-1.2 2.3-2.5 2.5h-14v14c0 1.4-1.1 2.5-2.5 2.5h-2.8c-1.4 0-2.5-1.1-2.5-2.5v-14h-14c-1.4 0-2.5-1.1-2.5-2.5v-2.8c0-1.4 1.1-2.5 2.5-2.5h14v-14c0-1.4 1.1-2.5 2.5-2.5h2.8c1.4 0 2.5 1.1 2.5 2.5v14h14c1.4 0 2.5 1.1 2.5 2.5zm46 62-6 6c-2 2-5.2 2-7.2 0l-25-25c-0.95-0.95-1.5-2.2-1.5-3.6v-3.4c-7.5 5.8-17 9.3-27 9.3-24 0-44-20-44-44 0-24 20-44 44-44 24 0 44 20 44 44 0 10-3.5 20-9.3 27h3.4c1.4 0 2.6 0.53 3.6 1.5l25 25c2 2 2 5.2 0 7.2zm-38-60c0-16-13-29-29-29s-29 13-29 29 13 29 29 29 29-13 29-29z"/></svg>
