<svg version="1.1" viewBox="0 0 128 128" xmlns="http://www.w3.org/2000/svg"><style type="text/css">.Back{fill:#555577;}</style><path class="Back" d="m52 8c-24 2e-7 -44 20-44 44 0 15 7.5 28 19 36l11-11c-8.7-4.9-15-14-15-25 0-16 13-29 29-29 11 0 20 5.9 25 15l11-11c-8-11-21-19-36-19zm43 54-32 32c6.2-1.5 12-4.3 17-8.1v3.4c0 1.4 0.53 2.6 1.5 3.6l25 25c2 2 5.2 2 7.2 0l6-6c2-2 2-5.2 0-7.2l-25-25c-0.95-0.95-2.2-1.5-3.6-1.5h-3.4c3.8-4.9 6.6-11 8.1-17z"/><path class="Back" d="m119 13 4.8 4.8c0.99 0.99 0.99 2.6-1e-5 3.6l-102 102c-0.99 0.99-2.6 0.99-3.6 1e-5l-4.8-4.8c-0.99-0.99-0.99-2.6 0-3.6l102-102c0.99-0.99 2.6-0.99 3.6 0z"/></svg>
