<svg version="1.1" viewBox="0 0 128 128" xmlns="http://www.w3.org/2000/svg"><style type="text/css">.Back{fill:#000022;fill-opacity:.66667;}</style><path class="Back" d="m52.023 8.0352c-24.319 2e-7 -44.023 19.705-44.023 44.023 0 14.943 7.4565 28.121 18.836 36.078l11.018-11.018c-8.7295-4.9391-14.615-14.3-14.615-25.061 0-15.916 12.869-28.785 28.785-28.785 10.761 0 20.121 5.8858 25.061 14.615l11.018-11.018c-7.9568-11.379-21.135-18.836-36.078-18.836zm42.779 54.352-32.451 32.451c6.2002-1.4865 11.895-4.262 16.764-8.0684v3.4492c0 1.3546 0.52805 2.6452 1.4805 3.5977l24.74 24.719c1.9683 1.9895 5.1843 1.9895 7.1738 0l5.9902-5.9902c1.9684-1.9895 1.9684-5.2058 0-7.1953l-24.719-24.719c-0.95242-0.95242-2.2431-1.4805-3.5977-1.4805h-3.4492c3.8063-4.8683 6.5818-10.563 8.0684-16.764z"/><path class="Back" d="m118.53 12.759 4.7891 4.7891c0.98774 0.98775 0.98774 2.6041-1e-5 3.5918l-102.14 102.14c-0.98775 0.98775-2.6041 0.98776-3.5918 1e-5l-4.7891-4.7891c-0.98774-0.98775-0.98775-2.6041 0-3.5918l102.14-102.14c0.98775-0.98775 2.6041-0.98775 3.5918 0z"/></svg>
