<svg width="128" height="128" version="1.1" viewBox="0 0 128 128" xmlns="http://www.w3.org/2000/svg"><style type="text/css">.Line{fill:#000000;}</style><path class="Line" d="m77.149 51.001v2.535c0 1.4586-1.1934 2.6521-2.6521 2.6521h-18.564v18.564c0 1.4586-1.1934 2.6521-2.6521 2.6521h-2.535c-1.4586 0-2.6672-1.1935-2.6521-2.6521v-18.564h-18.564c-1.4586 0-2.6521-1.1934-2.6521-2.6521v-2.535c0-1.4586 1.1934-2.6521 2.6521-2.6521h18.564v-18.564c0-1.4586 1.1934-2.6521 2.6521-2.6521h2.535c1.4586 0 2.6521 1.1934 2.6521 2.6521v18.564h18.564c1.4586 0 2.6521 1.1934 2.6521 2.6521zm47.795 70.817-2.9556 2.9556c-1.2321 1.2321-3.2171 1.2293-4.4464 0l-33.74-33.74c-0.60161-0.60161-0.91543-1.3862-0.91543-2.2231v-2.8232c-8.1551 7.3816-18.962 11.868-30.83 11.868-25.239 0-45.638-20.134-45.969-45.372-0.33151-25.858 20.708-46.897 46.566-46.566 25.239 0.33151 45.372 20.73 45.372 45.969 0 11.868-4.4864 22.675-11.868 30.83h2.8232c0.83697 0 1.6216 0.34002 2.2231 0.91543l33.74 33.74c1.2292 1.2292 1.2293 3.2171 0 4.4464zm-33.991-69.932c0-21.504-17.393-38.897-38.897-38.897s-38.897 17.393-38.897 38.897 17.393 38.897 38.897 38.897 38.897-17.393 38.897-38.897z"/></svg>
