<svg width="128" height="128" version="1.1" viewBox="0 0 128 128" xmlns="http://www.w3.org/2000/svg"><style type="text/css">.Line{fill:#000000;}</style><path class="Line" d="m52.654 5.918c-25.858-0.331-46.898 20.706-46.566 46.564 0.17361 13.238 5.8726 25.066 14.891 33.326l5.0273-5.0273c-7.8894-7.1157-12.848-17.418-12.848-28.895 0-21.504 17.394-38.898 38.898-38.898 11.477 0 21.779 4.9582 28.895 12.848l5.0273-5.0273c-8.2603-9.0175-20.087-14.717-33.324-14.891zm58.504 5.3555c-1.0784 0-2.1581 0.41198-2.9844 1.2383l-95.662 95.662c-1.6526 1.6526-1.6526 4.3142 0 5.9668l1.3477 1.3477c1.6526 1.6526 4.3142 1.6526 5.9668 0l95.662-95.662c1.6526-1.6526 1.6526-4.3142 0-5.9668l-1.3477-1.3477c-0.8263-0.8263-1.904-1.2383-2.9824-1.2383zm-13.15 39.932-7.6953 7.6953c-2.8847 15.87-15.372 28.357-31.242 31.242l-7.6953 7.6953c0.22782 0.0033 0.45301 0.01758 0.68164 0.01758 11.868 0 22.675-4.4875 30.83-11.869v2.8242c0 0.8369 0.3144 1.621 0.91602 2.2227l33.74 33.74c1.2293 1.2293 3.2132 1.2321 4.4453 0l2.9551-2.9551c1.2293-1.2293 1.2292-3.2181 0-4.4473l-33.74-33.74c-0.6015-0.57541-1.3857-0.91406-2.2227-0.91406h-2.8223c7.3816-8.155 11.867-18.962 11.867-30.83 0-0.22863-0.01429-0.45382-0.01758-0.68164z"/></svg>
