<svg version="1.1" viewBox="0 0 128 128" xmlns="http://www.w3.org/2000/svg"><style type="text/css">.Back{fill:#555577;}</style><path class="Back" d="m72.342 50.672v2.7728c0 1.3969-1.1429 2.5398-2.5398 2.5398h-35.557c-1.3969 0-2.5398-1.1429-2.5398-2.5398v-2.7728c0-1.3969 1.1429-2.5398 2.5398-2.5398h35.557c1.3969 0 2.5398 1.1429 2.5398 2.5398zm46.158 61.873-5.9897 5.9897c-1.9895 1.9895-5.2066 1.9895-7.1749 0l-24.739-24.718c-0.95242-0.95242-1.4815-2.2435-1.4815-3.598v-3.4499c-7.4712 5.8415-16.868 9.3126-27.091 9.3126-24.319 0-44.023-19.705-44.023-44.023 0-24.319 19.705-44.023 44.023-44.023 24.319 0 44.023 19.705 44.023 44.023 0 10.223-3.4711 19.62-9.3126 27.091h3.4499c1.3546 0 2.6456 0.52912 3.598 1.4816l24.718 24.718c1.9684 1.9895 1.9684 5.2066 0 7.1961zm-37.692-60.487c0-15.916-12.868-28.784-28.784-28.784-15.916 0-28.784 12.868-28.784 28.784 0 15.916 12.868 28.784 28.784 28.784 15.916 0 28.784-12.868 28.784-28.784z"/></svg>
