<svg version="1.1" viewBox="0 0 128 128" xmlns="http://www.w3.org/2000/svg">
 <style type="text/css">.Back{fill:#555577;}.BackG{fill:#23aa23;}</style>
 <g>
  <path class="Back" d="m29.006 24.043c-4.455-0.01634-9.2438-0.01849-13.004 0.01563v2e-3c-5.7566 0.20673-8.1161 4.2425-8.0957 7.9844 0.02105 3.8713 1.8902 7.9963 8.1465 8.0176 1.188-0.05679 14.766 0.01697 16.133-0.09375l-0.16992 56.178c0.01211 6.4265 3.5566 7.8368 8.0703 7.8887 4.8569 0.0204 7.9337-1.2699 8.0234-7.8887l0.064453-56.147c0.96656 0.10786 14.893 0.08236 15.805 0.02148 6.506 0.172 7.9792-4.2614 8-8.1328 0.02006-3.7422-2.3514-7.5843-8.0234-7.791-8.0731-0.08008-15.876 0.17887-23.947 0.01953-2.426-0.02717-6.547-0.05788-11.002-0.07422z"/>
  <g class="BackG">
   <path d="m104.7 43.767h-16.697l-0.0332-14.765c0.14784-6.2273 7.7004-6.8902 10.041-1.2772z"/>
   <path d="m113.1 63.918h-25.055l-0.03125-13.373h19.508z"/>
   <path d="m121.54 84.161h-33.449l-0.03125-13.555h27.826z"/>
   <path d="m96.104 104.07c-5.5969 0-7.9664-1.7691-7.9766-6.176l-0.01563-6.9515h36.26l1.9863 4.7628c2.2035 5.2023 1.0736 8.3648-5.6426 8.3648h-24.541z"/>
  </g>
 </g>
</svg>
