<svg version="1.1" viewBox="0 0 128 128" xmlns="http://www.w3.org/2000/svg">
 <style type="text/css">.Back{fill:#555577;}.BackG{fill:#23aa23;}</style>
 <g class="Back">
  <path d="m64.086 23.947c-4.5139 0.05209-8.0583 1.4636-8.0703 7.8926l0.15039 42.121c-0.17283 8.6508-4.3227 13.806-14.092 14.023l-3.7344-0.11523c-10.671 0.036769-14.371-5.3908-14.297-13.775l0.01758-42.051c-0.10533-6.8664-3.7414-7.9916-8.0703-7.9883-5.6697 3e-3 -7.9416 2.9763-7.9062 7.9648l-0.17969 40.062c0.22364 22.182 11.029 32.015 32.123 31.936 21.094-0.07956 32.391-10.51 32.16-31.705 0.06924-9.1151-0.0075-13.607-0.07813-40.473-0.08998-6.6215-3.1666-7.913-8.0234-7.8926z"/>
  <g class="BackG">
   <path d="m124.3 31.867h-36.188l0.01563-8.5283c0.01021-5.2739 2.3817-7.3916 7.9785-7.3916h24.609c6.7162-4e-5 7.8461 3.7843 5.6426 10.01z"/>
   <path d="m115.91 55.941h-27.846l0.03125-16.014h33.395z"/>
   <path d="m107.52 80.017h-19.504l0.03125-16.232h25.129z"/>
   <path d="m93.002 111.88c-2.5239 0.17373-4.9501-1.9109-5.0332-6.1028l0.03516-17.92h16.785l-6.7773 19.449c-1.024 2.9388-3.0467 4.4391-5.0098 4.5742z"/>
  </g>
 </g>
</svg>
