<svg version="1.1" viewBox="0 0 128 128" xmlns="http://www.w3.org/2000/svg">
 <style type="text/css">.Back{fill:#555577;}</style>
 <path class="Back" d="m14.277 24.344 2e-3 0.0039c-3.192 0.0286-6.0394 1.559-6.1133 5.2578l0.1582 67.07c0.00986 5.2352 2.3818 7.3359 7.9785 7.3359h0.07031c4.1216 0.0923 7.1793-1.4489 7.5352-7.1504l0.08984-40.797c1.449 1.8648 23.255 41.19 25.648 44.209 2.9127 4.6015 14.149 5.8799 14.297-1.5176l-0.15824-67.07c-0.0099-5.2352-2.3797-7.3359-7.9766-7.3359h-0.07031c-4.1216-0.09233-7.1816 1.4508-7.5371 7.1523l-0.08984 40.791c-1.9528-2.7311-24.395-42.744-25.648-44.207-1.4563-2.3007-4.9936-3.7718-8.1855-3.7422z"/>
</svg>
