<svg version="1.1" viewBox="0 0 128 128" xmlns="http://www.w3.org/2000/svg">
 <style type="text/css">.Back{fill:#555577;}</style>
 <path class="Back" d="m64.086 23.947c-4.5139 0.05209-8.0583 1.4636-8.0703 7.8926l0.15039 42.121c-0.17283 8.6508-4.3227 13.806-14.092 14.023l-3.7344-0.11523c-10.671 0.036769-14.371-5.3908-14.297-13.775l0.01758-42.051c-0.10533-6.8664-3.7414-7.9916-8.0703-7.9883-5.6697 3e-3 -7.9416 2.9763-7.9062 7.9648l-0.17969 40.062c0.22364 22.182 11.029 32.015 32.123 31.936 21.094-0.07956 32.391-10.51 32.16-31.705 0.06924-9.1151-0.0075-13.607-0.07813-40.473-0.08998-6.6215-3.1666-7.913-8.0234-7.8926z"/>
</svg>
