<svg version="1.1" viewBox="0 0 128 128" xmlns="http://www.w3.org/2000/svg">
 <style type="text/css">.Back{fill:#555577;}.BackG{fill:#23aa23;}</style>
 <g>
  <path class="Back" d="m29.006 24.043c-4.455-0.01634-9.2438-0.01849-13.004 0.01563v2e-3c-5.7566 0.20673-8.1161 4.2425-8.0957 7.9844 0.02105 3.8713 1.8902 7.9963 8.1465 8.0176 1.188-0.05679 14.766 0.01697 16.133-0.09375l-0.16992 56.178c0.01211 6.4265 3.5566 7.8368 8.0703 7.8887 4.8569 0.0204 7.9337-1.2699 8.0234-7.8887l0.064453-56.147c0.96656 0.10786 14.893 0.08236 15.805 0.02148 6.506 0.172 7.9792-4.2614 8-8.1328 0.02006-3.7422-2.3514-7.5843-8.0234-7.791-8.0731-0.08008-15.876 0.17887-23.947 0.01953-2.426-0.02717-6.547-0.05788-11.002-0.07422z"/>
  <g class="BackG">
   <path d="m104.7 88.061h-16.697l-0.0332 17.59c0.14784 7.4186 7.7004 8.2082 10.041 1.5215z"/>
   <path d="m113.1 64.055h-25.055l-0.03125 15.932h19.508z"/>
   <path d="m121.54 39.939h-33.449l-0.03125 16.148h27.826z"/>
   <path d="m96.104 16.225c-5.5969 0-7.9664 2.1076-7.9766 7.3574l-0.01563 8.2812h36.26l1.9863-5.6738c2.2035-6.1975 1.0736-9.9649-5.6426-9.9648h-24.541z"/>
  </g>
 </g>
</svg>
