<svg version="1.1" viewBox="0 0 128 128" xmlns="http://www.w3.org/2000/svg">
 <style type="text/css">.Back{fill:#555577;}</style>
 <g transform="matrix(.06909 0 0 -.06909 -1.793 168.7)">
  <path class="Back" d="m1408 1216q0 26-19 45t-45 19h-896q-26 0-45-19t-19-45 19-45l448-448q19-19 45-19t45 19l448 448q19 19 19 45z"/>
 </g>
 <path class="Back" d="m120 60.17v-8.043c0-1.0893-0.42367-2.032-1.271-2.828s-1.851-1.194-3.011-1.194h-111.3c-1.16 0-2.1637 0.398-3.011 1.194-0.84733 0.796-1.271 1.7387-1.271 2.828v8.043c0 1.0893 0.42367 2.032 1.271 2.828 0.84733 0.796 1.851 1.194 3.011 1.194h111.3c1.16 0 2.1637-0.398 3.011-1.194s1.271-1.7387 1.271-2.828z"/>
</svg>
