<svg version="1.1" viewBox="0 0 128 128" xmlns="http://www.w3.org/2000/svg">
 <style type="text/css">.Back{fill:#555577;}</style>
 <g transform="matrix(0 -.06909 -.06909 0 168.69 129.94)">
  <path class="Back" d="m1408 1216q0 26-19 45t-45 19h-896q-26 0-45-19t-19-45 19-45l448-448q19-19 45-19t45 19l448 448q19 19 19 45z"/>
 </g>
 <path class="Back" d="m60.155 8.1508h-8.043c-1.0893 0-2.032 0.42367-2.828 1.271s-1.194 1.851-1.194 3.011v111.3c0 1.16 0.398 2.1637 1.194 3.011s1.7387 1.271 2.828 1.271h8.043c1.0893 0 2.032-0.42367 2.828-1.271s1.194-1.851 1.194-3.011v-111.3c0-1.16-0.398-2.1637-1.194-3.011s-1.7387-1.271-2.828-1.271z"/>
</svg>
