<svg version="1.1" viewBox="0 0 128 128" xmlns="http://www.w3.org/2000/svg">
<style type="text/css">.st0{fill:#ec8c14;}.st1{fill="#555577"}</style>
 <path class="st0" d="m14.094 16.006c-1.7628 0-3.2899 0.64539-4.5781 1.9336s-1.9316 2.8134-1.9316 4.5762v91.123c0 1.7628 0.64344 3.288 1.9316 4.5762s2.8153 1.9316 4.5781 1.9316 3.288-0.64344 4.5762-1.9316l36.27-36.271c-1.1841-1.2495-2.2311-2.6399-2.8926-4.25-2.0739-4.6751-0.80974-10.523 2.9219-13.996 1.7104-1.6762 3.9179-2.7569 6.25-3.209l-42.549-42.549c-1.2882-1.2882-2.8134-1.9336-4.5762-1.9336z"/>
 <path class="st0" d="m84.211 16.127c-1.0893 0-2.0321 0.39684-2.8281 1.1895-0.796 0.79257-1.1934 1.7314-1.1934 2.8164v29.086c3.1155-1.645 6.5747-2.6274 10.111-2.7344 1.3425-0.043408 2.6904 0.004932 4.0234 0.17383 7.301 0.81108 13.945 5.3403 17.697 11.605v-38.131c0-1.085-0.39735-2.0239-1.1934-2.8164-0.796-0.79254-1.7388-1.1895-2.8281-1.1895h-23.789z" />
 <path class="st1" d="m127.88 95.892c-0.0686 2.4995-2.1822 4.4598-4.6825 4.4598h-7.9352v2.2944c0 3.1354-0.70009 6.1067-1.9503 8.7684l8.6369 8.6369c1.792 1.7921 1.792 4.6976 0 6.4897-1.7922 1.7921-4.6977 1.792-6.4898 0l-7.8493-7.8493c-3.5492 2.8785-8.0714 4.6044-12.997 4.6044v-34.99c0-0.95032-0.7705-1.7208-1.7208-1.7208h-3.4417c-0.95033 0-1.7208 0.77051-1.7208 1.7208v34.99c-4.926 0-9.4482-1.7259-12.997-4.6044l-7.8493 7.8493c-1.7923 1.7921-4.6977 1.792-6.4898 0-1.792-1.7921-1.792-4.6976 0-6.4897l8.6369-8.6369c-1.2502-2.6617-1.9503-5.633-1.9503-8.7684v-2.2944h-7.9351c-2.5004 0-4.614-1.9603-4.6825-4.4598-0.07127-2.5933 2.0098-4.718 4.587-4.718h8.0306v-8.4242l-6.6866-6.6866c-1.792-1.7921-1.792-4.6976 0-6.4897 1.7922-1.7921 4.6976-1.7921 6.4898 0l7.8337 7.8338h32.909l7.8337-7.8337c1.7922-1.7921 4.6976-1.7921 6.4898 0 1.792 1.7921 1.792 4.6976 0 6.4897l-6.6865 6.6864v8.4242h8.0306c2.5772 0 4.6583 2.1247 4.5872 4.718zm-36.566-41.429c-8.8703 0-16.061 7.1908-16.061 16.061h32.122c0-8.8703-7.1908-16.061-16.061-16.061z"/>
</svg>
