<svg version="1.1" viewBox="0 0 128 128" xmlns="http://www.w3.org/2000/svg"><style type="text/css">.Back{fill:#000022;fill-opacity:.66667;}</style><path class="Back" d="m52.274 63.408-38.869 38.869c-1.8746 1.8746-4.9138 1.8746-6.7882 0l-4.5336-4.5334c-1.8714-1.8714-1.875-4.9044-8e-3 -6.7802l30.804-30.949-30.804-30.949c-1.867-1.8758-1.8634-4.9088 8e-3 -6.7802l4.5334-4.5334c1.8746-1.8746 4.9138-1.8746 6.7882 0l38.869 38.869c1.8746 1.8744 1.8746 4.9136 0 6.7882zm67.726 35.792v-6.4c0-2.651-2.149-4.8-4.8-4.8h-52.8c-2.651 0-4.8 2.149-4.8 4.8v6.4c0 2.651 2.149 4.8 4.8 4.8h52.8c2.651 0 4.8-2.149 4.8-4.8z"/></svg>
