<svg version="1.1" viewBox="0 0 128 128" xmlns="http://www.w3.org/2000/svg"><style type="text/css">.Back{fill:#555577;}</style><path class="Back" d="m40.34 109.4v-66.5c0-0.7725-0.2483-1.407-0.7449-1.904s-1.131-0.7449-1.904-0.7449h-2.924c-0.7725 0-1.407 0.2483-1.904 0.7449s-0.7449 1.131-0.7449 1.904v66.5c0 0.7725 0.2483 1.407 0.7449 1.904 0.4966 0.4966 1.131 0.7449 1.904 0.7449h2.924c0.7725 0 1.407-0.2483 1.904-0.7449 0.4966-0.4966 0.7449-1.131 0.7449-1.904zm23.9 0v-66.5c0-0.7725-0.2483-1.407-0.7449-1.904-0.4966-0.4966-1.131-0.7449-1.904-0.7449h-3.06c-0.7725 0-1.407 0.2483-1.904 0.7449s-0.7449 1.131-0.7449 1.904v66.5c0 0.7725 0.2483 1.407 0.7449 1.904 0.4966 0.4966 1.131 0.7449 1.904 0.7449h3.06c0.7725 0 1.407-0.2483 1.904-0.7449 0.4966-0.4966 0.7449-1.131 0.7449-1.904zm24 0v-66.5c0-0.7725-0.2483-1.407-0.7449-1.904-0.4966-0.4966-1.131-0.7449-1.904-0.7449h-3.06c-0.7725 0-1.407 0.2483-1.904 0.7449s-0.7449 1.131-0.7449 1.904v66.5c0 0.7725 0.2483 1.407 0.7449 1.904 0.4966 0.4966 1.131 0.7449 1.904 0.7449h3.06c0.7725 0 1.407-0.2483 1.904-0.7449 0.4966-0.4966 0.7449-1.131 0.7449-1.904zm-52.07-85.39h48l-3.973-7.243c-0.3862-0.4966-0.8552-0.8-1.407-0.9104h-37.16c-0.5518 0.1104-1.021 0.4138-1.407 0.9104zm75.86 2.648v3.297c0 0.7725-0.2483 1.407-0.7449 1.904-0.4966 0.4966-1.131 0.7449-1.904 0.7449h-4.996v78.46c0 4.58-1.297 8.538-3.89 11.88-2.593 3.338-5.711 5.007-9.352 5.007h-62.86c-3.642 0-6.759-1.614-9.352-4.842s-3.774-7.133-3.89-11.71v-78.79h-4.42c-0.7725 0-1.407-0.2483-1.904-0.7449-0.4966-0.4966-0.7449-1.131-0.7449-1.904v-3.297c0-0.7725 0.2483-1.407 0.7449-1.904 0.4966-0.4966 1.131-0.7449 1.904-0.7449h14.05l9.793-17.11c0.8276-2.042 2.317-3.542 4.469-4.977s4.331-2.152 6.538-2.152h29.4c2.207 0 4.386 0.7173 6.538 2.152 2.152 1.435 3.642 2.935 4.469 4.977l9.793 17.11h13.7c0.7725 0 1.407 0.2483 1.904 0.7449 0.4966 0.4966 0.7449 1.131 0.7449 1.904z"/></svg>
