<svg version="1.1" viewBox="0 0 128 128" xmlns="http://www.w3.org/2000/svg"><style type="text/css">.Back{fill:#000022;fill-opacity:.66667;}</style><path class="Back" transform="translate(0 4e-6)" d="m124.8 96h-3.2v-26.387c0-2.54-1.02-4.98-2.82-6.78l-19.98-19.98c-1.8-1.8-4.2406-2.8752-6.78-2.82h-8.82v-6.4495c0-5.3-4.3-9.6-9.6-9.6h-64c-5.3 0-9.6 4.3-9.6 9.6v65.616c0 5.3 4.3 9.6 9.6 9.6h3.2c0 10.6 8.6 19.2 19.2 19.2 10.6 0 19.2-8.6 19.2-19.2h25.6c0 10.6 8.6 19.2 19.2 19.2 10.6 0 19.2-8.6 19.2-19.2h9.6c1.76 0 3.2-1.44 3.2-3.2v-6.4c0-1.76-1.44-3.2-3.2-3.2zm-92.8 22.4c-5.3 0-9.6-4.3-9.6-9.6s4.3-9.6 9.6-9.6c5.3 0 9.6 4.3 9.6 9.6s-4.3 9.6-9.6 9.6zm64 0c-5.3 0-9.6-4.3-9.6-9.6s4.3-9.6 9.6-9.6c5.3 0 9.6 4.3 9.6 9.6s-4.3 9.6-9.6 9.6zm16.082-46.175h-28.882v-24.016h7.7519l21.131 21.131z"/></svg>
