<svg version="1.1" viewBox="0 0 128 128" xmlns="http://www.w3.org/2000/svg"><style type="text/css">.Back{fill:#555577;}</style><path class="Back" transform="translate(0 4e-6)" d="m125 96h-3.2v-26c0-2.5-1-5-2.8-6.8l-20-20c-1.8-1.8-4.2-2.9-6.8-2.8h-8.8v-6.4c0-5.3-4.3-9.6-9.6-9.6h-64c-5.3 0-9.6 4.3-9.6 9.6v66c0 5.3 4.3 9.6 9.6 9.6h3.2c0 11 8.6 19 19 19s19-8.6 19-19h26c0 11 8.6 19 19 19s19-8.6 19-19h9.6c1.8 0 3.2-1.4 3.2-3.2v-6.4c0-1.8-1.4-3.2-3.2-3.2zm-93 22c-5.3 0-9.6-4.3-9.6-9.6s4.3-9.6 9.6-9.6 9.6 4.3 9.6 9.6-4.3 9.6-9.6 9.6zm64 0c-5.3 0-9.6-4.3-9.6-9.6s4.3-9.6 9.6-9.6 9.6 4.3 9.6 9.6-4.3 9.6-9.6 9.6zm16-46h-29v-24h7.8l21 21z"/></svg>
