<svg version="1.1" viewBox="0 0 128 128" xmlns="http://www.w3.org/2000/svg"><style type="text/css">.Back{fill:#000022;fill-opacity:.66667;}</style><path class="Back" d="m63.892 7.9997c-14.962 0.026868-28.548 5.923-38.577 15.508l-8.0636-8.0636c-3.4138-3.4138-9.2506-0.99616-9.2506 3.8315v30.268c0 2.9928 2.426 5.4188 5.4188 5.4188h30.268c4.8277 0 7.2454-5.8367 3.8318-9.2506l-9.4265-9.4265c6.9686-6.5249 15.986-10.139 25.565-10.222 20.862-0.18018 38.447 16.703 38.267 38.257-0.17115 20.447-16.748 37.605-37.93 37.605-9.2858 0-18.062-3.314-24.978-9.3827-1.0709-0.93949-2.6882-0.88236-3.6956 0.12486l-8.955 8.955c-1.1 1.1-1.0456 2.8934 0.10883 3.9361 9.9291 8.9684 23.087 14.429 37.52 14.429 30.925 0 55.994-25.069 55.994-55.994 2.3e-4 -30.889-25.208-56.05-56.097-55.995z"/></svg>
