<svg version="1.1" viewBox="0 0 128 128" xmlns="http://www.w3.org/2000/svg"><style type="text/css">.Back{fill:#555577;}</style><path class="Back" d="m64 9.7c-9.7 0-19 2.4-27 6.5-0.0065 0.0038-0.013 0.0079-0.02 0.012-5.1 3-9.6 6.4-13 10-2.1 2.1-3.9 4.2-5.6 6.5-3.8 5.1-6.6 11-8.4 17-0.67 3-1.7 6.5 1.3 6.5l12 0.0039c3.1-0.0048 3.1-1.2 4.1-3.5 5.2-15 19-25 36-25 10 0 19 3.5 26 10l-9.4 9.4c-3.4 3.4-1 9.2 3.8 9.2h30c3 0 5.4-2.4 5.4-5.4v-30c0-4.8-5.8-7.2-9.2-3.8l-8 8c-10-9.1-23-15-38-15zm39 62c-3.1 0.0048-3.1 1.2-4.1 3.5-5.2 15-19 25-36 25-10 0-19-3.5-26-10l9.4-9.4c3.4-3.4 1-9.2-3.8-9.2h-30c-3 0-5.4 2.4-5.4 5.4v30c0 4.8 5.8 7.2 9.2 3.8l8-8c10 9.1 23 15 38 15 9.7 0 19-2.4 27-6.5 0.0065-4e-3 0.013-8e-3 0.02-0.012 5.1-3 9.6-6.4 13-10 2.1-2.1 3.9-4.2 5.6-6.5 3.8-5.1 6.6-11 8.4-17 0.67-3 1.7-6.5-1.3-6.5l-12-0.0039z"/></svg>
