<svg width="128" height="128" version="1.1" viewBox="0 0 128 128" xmlns="http://www.w3.org/2000/svg"><style type="text/css">.Line{fill:#000000;}</style><path class="Line" d="m89.755 57.242c3.367-5.0842 5.2584-11.148 5.2584-17.541 0-17.385-13.889-31.472-31.014-31.472-17.132 0-31.014 14.094-31.014 31.472 0 6.3722 1.8815 12.441 5.2584 17.541-12.522 0.84428-22.49 11.407-22.49 24.421v22.73c0 8.6769 6.9565 15.736 15.507 15.736h65.475c8.5507 0 15.507-7.0591 15.507-15.736v-22.73c0-13.009-9.9614-23.578-22.49-24.421zm-25.755-39.913c12.176 0 22.048 10.017 22.048 22.373 0 12.356-9.8709 22.373-22.048 22.373s-22.048-10.017-22.048-22.373c0-12.356 9.871-22.373 22.048-22.373zm39.929 87.066c0 2.8969-4.3364 7.2516-7.1912 7.2516h-65.475c-2.8548 0-7.1912-4.3547-7.1912-7.2516v-22.73c0-7.725 8.3474-17.505 15.806-15.994l9.9045 2.0064c8.9207 4.6662 19.514 4.6662 28.434 0l9.9048-2.0064c7.4589-1.5109 15.806 8.2688 15.806 15.994z"/></svg>
