<svg width="128" height="128" version="1.1" viewBox="0 0 128 128" xmlns="http://www.w3.org/2000/svg"><path d="m106.28 62.862c0-0.80332-0.30896-1.514-0.9269-2.1319l-43.194-43.194c-0.61794-0.61794-1.3286-0.92691-2.1319-0.92691-0.80332 0-1.514 0.30897-2.1319 0.92691l-43.194 43.194c-0.61794 0.61794-0.92691 1.3286-0.92691 2.1319s0.30897 1.514 0.92691 2.1319l3.041 3.041c0.61794 0.61794 1.3286 0.92692 2.1319 0.92692 0.80332 0 1.5139-0.30897 2.1319-0.92692l38.021-38.021 38.021 38.021c0.61795 0.61794 1.3286 0.92692 2.1319 0.92692 0.80332 0 1.514-0.30897 2.1319-0.92692l3.041-3.041c0.61794-0.61794 0.9269-1.3286 0.9269-2.1319zm0 39.593c0-0.80333-0.30896-1.514-0.9269-2.1319l-43.194-43.194c-0.61794-0.61794-1.3286-0.92692-2.1319-0.92692-0.80332 0-1.514 0.30897-2.1319 0.92692l-43.194 43.194c-0.61794 0.61795-0.92691 1.3286-0.92691 2.1319 0 0.80332 0.30896 1.514 0.92691 2.1319l3.041 3.041c0.61794 0.61794 1.3286 0.92691 2.1319 0.92691 0.80332 0 1.5139-0.30897 2.1319-0.92691l38.021-38.021 38.021 38.021c0.61794 0.61794 1.3286 0.92691 2.1319 0.92691 0.80332 0 1.514-0.30897 2.1319-0.92691l3.041-3.041c0.61794-0.61794 0.9269-1.3286 0.9269-2.1319z" style="stroke-width:.092691"/></svg>
