<svg width="128" height="128" version="1.1" viewBox="0 0 128 128" xmlns="http://www.w3.org/2000/svg"><style type="text/css">.Invers{fill:#000000;}</style><path class="Invers" d="m85.856 47.887h-27.912c-1.0966 0-1.9937 0.89718-1.9937 1.9937v3.9874c0 1.0965 0.89717 1.9937 1.9937 1.9937h27.912c1.0965 0 1.9937-0.89718 1.9937-1.9937v-3.9874c0-1.0965-0.89718-1.9937-1.9937-1.9937zm0 23.925h-27.912c-1.0966 0-1.9937 0.89718-1.9937 1.9937v3.9874c0 1.0965 0.89717 1.9937 1.9937 1.9937h27.912c1.0965 0 1.9937-0.89717 1.9937-1.9937v-3.9874c0-1.0965-0.89718-1.9937-1.9937-1.9937zm-41.868-25.918c-3.3146 0-5.9812 2.6666-5.9812 5.9812s2.6666 5.9812 5.9812 5.9812 5.9812-2.6666 5.9812-5.9812-2.6666-5.9812-5.9812-5.9812zm0 23.925c-3.3146 0-5.9812 2.6666-5.9812 5.9812s2.6666 5.9812 5.9812 5.9812 5.9812-2.6666 5.9812-5.9812-2.6666-5.9812-5.9812-5.9812zm47.824-53.793h-18.08c0.09969-0.64796 0.14953-1.3208 0.14953-1.9937 0-7.7008-6.2553-5.7104-13.956-5.7104-7.7008 0-13.956-1.9903-13.956 5.7104 0 0.67288 0.04984 1.3458 0.14953 1.9937h-18.08c-6.6042 0-11.962 5.3581-11.962 11.962v71.724c0 6.6042 5.3581 11.962 11.962 11.962h63.774c6.6042 0 11.962-5.3581 11.962-11.962v-71.724c0-6.6042-5.3581-11.962-11.962-11.962zm-31.887-0.53466c3.3146 0 5.9812 1.8967 5.9812 4.2543 0 2.3576-2.6666 4.2543-5.9812 4.2543s-5.9812-1.8967-5.9812-4.2543c0-2.3576 2.6666-4.2543 5.9812-4.2543zm35.874 84.22c0 2.1931-1.7944 3.9874-3.9874 3.9874h-63.774c-2.1931 0-3.9874-1.7944-3.9874-3.9874v-71.724c0-2.1931 1.7944-3.9874 3.9874-3.9874h11.962v4.9843c0 1.6448 1.3458 2.9906 2.9906 2.9906h33.868c1.6448 0 2.9906-1.3458 2.9906-2.9906v-4.9843h11.962c2.1931 0 3.9874 1.7944 3.9874 3.9874z" style="stroke-width:.24922"/></svg>
