<svg width="128" height="128" version="1.1" viewBox="0 0 128 128" xmlns="http://www.w3.org/2000/svg"><path d="m71.732 7.4609c-0.47876 0.057064-0.89588 0.38956-1.0352 0.88477l-15.715 55.053c2.9827-2.0457 6.1374-3.3631 9.3906-4.373l13.855-48.533c0.1857-0.66027-0.18543-1.3416-0.8457-1.5273l-5.1582-1.4648c-0.16507-0.046425-0.3326-0.058084-0.49219-0.039062zm-40.371 25.521c-0.26566-0.015475-0.53921 0.071559-0.75586 0.26758l-29.732 26.246c-0.47457 0.41267-0.47457 1.1342 0 1.5469l29.732 26.246c0.4333 0.3714 1.0934 0.32973 1.4648-0.10352l3.8184-4.3105c0.39204-0.4333 0.32978-1.0954-0.10352-1.4668l-24.967-21.148 24.967-21.148c0.4333-0.3714 0.49556-1.0315 0.10352-1.4648l-3.8184-4.3125c-0.1857-0.21665-0.44333-0.33609-0.70898-0.35156zm57.178 0.015625c-0.26308 0.01548-0.52078 0.1296-0.7168 0.33594l-3.8164 4.3125c-0.39204 0.4333-0.32979 1.0934 0.10352 1.4648l19.914 16.869c4.5614 0.45516 9.277 1.2215 13.783 2.4648 0.02165 0.005974 0.04281 0.01354 0.06445 0.019532l-28.584-25.215c-0.21665-0.1857-0.48497-0.26743-0.74805-0.25195zm-42.197 60.67-4.6758 16.381c-0.1857 0.66027 0.18543 1.3397 0.8457 1.5254l3.8301 1.0898v-18.996z" style="stroke-width:.20633"/><path d="m92.078 65.675c-13.871 0-35.736 2.7805-35.736 13.113v34.966c0 10.335 21.862 13.113 35.736 13.113 13.871 0 35.734-2.7805 35.734-13.113v-34.966c0-10.335-21.86-13.113-35.734-13.113zm0 5.7359c15.501 0 28.076 4.2736 28.076 8.3362v0.54603c0 4.0626-12.575 8.3345-28.076 8.3345-15.501 0-28.078-4.272-28.078-8.3345v-0.54603c0-4.0626 12.577-8.3362 28.078-8.3362zm-28.078 18.247c6.0323 3.3422 17.074 5.4725 28.078 5.4725 11.004 0 22.044-2.1304 28.076-5.4725v1.0461c0 0.12926-0.0139 0.25677-0.0391 0.38443l0.11719-0.0119v21.21l-0.0781 0.0188v1.4493c0 4.0625-12.575 7.3757-28.076 7.3757-15.501-1e-4 -28.078-3.3132-28.078-7.3758v-22.678l0.03711 3e-3c-0.02405-0.12486-0.03711-0.24954-0.03711-0.37593z" style="stroke-width:.13808"/></svg>
