<svg width="128" height="128" version="1.1" viewBox="0 0 128 128" xmlns="http://www.w3.org/2000/svg"><path d="m47.67 113.04-5.1584-1.465c-0.66027-0.1857-1.0317-0.8666-0.84597-1.5269l29.031-101.7c0.1857-0.66027 0.8666-1.0317 1.5269-0.84597l5.1584 1.465c0.66027 0.1857 1.0317 0.86661 0.84597 1.5269l-29.031 101.68c-0.1857 0.66028-0.88724 1.0523-1.5269 0.86661zm-15.599-25.854 3.8172-4.3124c0.39204-0.4333 0.33014-1.0936-0.10316-1.465l-24.966-21.149 24.966-21.149c0.4333-0.3714 0.4952-1.0317 0.10316-1.465l-3.8172-4.3124c-0.3714-0.4333-1.0317-0.47457-1.465-0.08253l-29.733 26.246c-0.47457 0.41267-0.47457 1.1348 0 1.5475l29.733 26.246c0.4333 0.3714 1.0936 0.33014 1.465-0.10311zm57.217 0.08253 29.733-26.246c0.47456-0.41267 0.47456-1.1348 0-1.5475l-29.733-26.225c-0.4333-0.3714-1.0729-0.33014-1.465 0.08253l-3.8172 4.3124c-0.39204 0.4333-0.33014 1.0936 0.10317 1.465l24.966 21.149-24.966 21.149c-0.4333 0.3714-0.4952 1.0317-0.10317 1.465l3.8172 4.3124c0.3714 0.4333 1.0317 0.47456 1.465 0.08253z" style="stroke-width:.20633"/></svg>
