<svg width="128" height="128" version="1.1" viewBox="0 0 33.867 33.867" xmlns="http://www.w3.org/2000/svg"><style type="text/css">.Line{fill:#000000;}</style><path d="m15.825 0.084523c-1.3794-1.1865e-4 -2.7589 0.17769-4.098 0.53382-0.67376 0.17921-1.1431 0.78902-1.1431 1.4862v2.3544c-0.74016 0.33697-1.446 0.74481-2.1074 1.218l-2.0361-1.1762c-0.60273-0.34812-1.3643-0.24801-1.8562 0.24443-1.9354 1.9375-3.3726 4.3725-4.1031 7.0968-0.18056 0.67332 0.11198 1.3841 0.71573 1.7327l2.0397 1.1777c-0.078144 0.80943-0.078144 1.624 0 2.4335l-2.0397 1.1777c-0.60376 0.34851-0.8963 1.0594-0.71573 1.7327 0.73045 2.7242 2.1677 5.1592 4.1031 7.0968 0.49193 0.49243 1.2534 0.59255 1.8562 0.24443l2.0361-1.1762c0.66135 0.47329 1.3671 0.8811 2.1074 1.218v2.3544c8.6e-5 0.69719 0.46884 1.307 1.1426 1.4862 2.6749 0.71143 5.5162 0.71232 8.1944 0 0.67376-0.17922 1.1431-0.78902 1.1431-1.4862v-2.3539c0.74015-0.33698 1.4455-0.7453 2.1069-1.2185l2.0361 1.1762c0.60273 0.34812 1.3649 0.24801 1.8568-0.24443 1.9354-1.9375 3.3726-4.3725 4.1031-7.0968 0.18056-0.67332-0.11249-1.3841-0.71624-1.7327l-2.0397-1.1777c0.07812-0.81009 0.07809-1.6234 0-2.4335l2.0397-1.1777c0.60376-0.34851 0.89681-1.0594 0.71624-1.7327-0.73045-2.7242-2.1678-5.1592-4.1031-7.0968-0.49192-0.49243-1.254-0.59255-1.8568-0.24443l-2.0361 1.1762c-0.66136-0.47329-1.3667-0.88113-2.1069-1.218v-2.3544c-8.1e-5 -0.6972-0.46935-1.307-1.1431-1.4862-1.3374-0.35572-2.7165-0.5337-4.0959-0.53382zm-1e-3 1.6118c0.80689 0 1.614 0.067841 2.4123 0.20412a0.4206 0.4206 0 0 1 0.34934 0.41445v3.2246c2.2862 0.81789 3.0277 1.2453 4.8866 2.8241l2.7931-1.6113a0.4206 0.4206 0 0 1 0.5333 0.093535c1.0362 1.2452 1.8534 2.6584 2.4159 4.1776a0.4206 0.4206 0 0 1-0.18345 0.51005l-2.7931 1.6134c0.43219 2.3941 0.43262 3.2499 0 5.6462l2.7931 1.6113a0.4206 0.4206 0 0 1 0.18345 0.5116c-0.56246 1.5191-1.3798 2.931-2.4159 4.176a0.4206 0.4206 0 0 1-0.5333 0.0956l-2.7931-1.6134c-1.8596 1.5795-2.6004 2.0063-4.8866 2.8241v3.2246a0.4206 0.4206 0 0 1-0.34934 0.41445c-1.5966 0.27257-3.2279 0.27257-4.8246 0a0.4206 0.4206 0 0 1-0.34934-0.41445v-3.2246c-2.2862-0.81789-3.0282-1.2452-4.8871-2.8241l-2.7926 1.6134a0.4206 0.4206 0 0 1-0.53331-0.0956c-1.0362-1.2452-1.8535-2.6569-2.4159-4.176a0.4206 0.4206 0 0 1 0.18345-0.5116l2.7931-1.6113c-0.43243-2.3952-0.43233-3.2511 0-5.6462l-2.7931-1.6134a0.4206 0.4206 0 0 1-0.18345-0.51005c0.56032-1.5153 1.3765-2.9303 2.4138-4.1776a0.4206 0.4206 0 0 1 0.53537-0.093535l2.7926 1.6113c1.8595-1.5795 2.6009-2.0064 4.8871-2.8241v-3.2246a0.4206 0.4206 0 0 1 0.34934-0.41445c0.79832-0.13628 1.6054-0.20412 2.4123-0.20412zm0 8.5443c-3.1625 0-5.7284 2.5659-5.7284 5.7284 0 3.1625 2.566 5.7284 5.7284 5.7284s5.7284-2.5659 5.7284-5.7284-2.566-5.7284-5.7284-5.7284zm0 1.9074c2.1069 0 3.821 1.7142 3.821 3.821 0 2.1069-1.7141 3.821-3.821 3.821s-3.821-1.7141-3.821-3.821 1.7141-3.821 3.821-3.821z"/></svg>
