<svg width="128" height="128" version="1.1" viewBox="0 0 33.867 33.867" xmlns="http://www.w3.org/2000/svg"><style type="text/css">.Line{fill:#000000;}</style><path class="Line" d="m28.513 14.629 2.0396-1.1774c0.60376-0.34851 0.89648-1.0596 0.71591-1.7329-0.73045-2.7242-2.1677-5.1592-4.1031-7.0968-0.49192-0.49243-1.2538-0.59222-1.8566-0.2441l-2.0359 1.1759c-0.66136-0.47329-1.3671-0.8813-2.1073-1.2182v-2.3541c-8.1e-5 -0.6972-0.46906-1.3072-1.1428-1.4864-2.6749-0.71143-5.516-0.71232-8.1942-5.924e-5 -0.67376 0.17921-1.143 0.78919-1.143 1.4864v2.3541c-0.74016 0.33697-1.4459 0.74498-2.1073 1.2182l-2.0359-1.1759c-0.60273-0.34812-1.3647-0.24834-1.8566 0.2441-1.9354 1.9375-3.3726 4.3725-4.1031 7.0968-0.18056 0.67332 0.11216 1.3843 0.71591 1.7329l2.0396 1.1775c-0.078144 0.80943-0.078144 1.6244 0 2.4339l-2.0396 1.1774c-0.60376 0.34851-0.89648 1.0596-0.71591 1.7329 0.73045 2.7242 2.1677 5.1592 4.1031 7.0968 0.49193 0.49243 1.2538 0.59222 1.8566 0.2441l2.0359-1.1759c0.66135 0.47329 1.367 0.88128 2.1073 1.2182v2.3541c8.6e-5 0.69719 0.46906 1.3072 1.1428 1.4864 2.6749 0.71143 5.516 0.71239 8.1942 6.9e-5 0.67376-0.17922 1.143-0.78919 1.143-1.4864v-2.3541c0.74015-0.33698 1.4459-0.74496 2.1073-1.2182l2.0359 1.1759c0.60273 0.34812 1.3647 0.24834 1.8566-0.2441 1.9354-1.9375 3.3726-4.3725 4.1031-7.0968 0.18056-0.67332-0.11216-1.3843-0.71591-1.7329l-2.0396-1.1775c0.07814-0.81026 0.07814-1.6238 0-2.434zm-2.6255 4.2657 3.0348 1.7514c-0.5459 1.4744-1.3387 2.8451-2.3443 4.0535l-3.0355-1.7528c-2.2151 1.8975-2.539 2.0831-5.2752 3.0493v3.5043c-1.5498 0.26457-3.1333 0.26457-4.6831 0v-3.5043c-2.7359-0.96616-3.0609-1.1526-5.2752-3.0493l-3.0355 1.7528c-1.0057-1.2085-1.7984-2.5791-2.3443-4.0535l3.0348-1.7514c-0.52844-2.8603-0.52872-3.2357 0-6.0973l-3.0348-1.7514c0.54367-1.4703 1.3374-2.843 2.3443-4.0536l3.0355 1.7528c2.2151-1.8975 2.539-2.0832 5.2752-3.0493v-3.5043c1.5498-0.26457 3.1333-0.26457 4.6831 0v3.5044c2.7359 0.96615 3.0609 1.1526 5.2752 3.0493l3.0355-1.7528c1.0057 1.2085 1.7984 2.5792 2.3443 4.0536l-3.0348 1.7514c0.52851 2.8604 0.52872 3.2356 0 6.0973zm-9.9617-9.1977c-3.3906 0-6.149 2.7584-6.149 6.149 0 3.3906 2.7585 6.149 6.149 6.149s6.149-2.7584 6.149-6.149c0-3.3906-2.7585-6.149-6.149-6.149zm0 9.9696c-2.1069 0-3.8209-1.714-3.8209-3.8209 0-2.1069 1.714-3.8209 3.8209-3.8209 2.1069 0 3.8209 1.7141 3.8209 3.8209 0 2.1069-1.714 3.8209-3.8209 3.8209z"/></svg>
