<svg width="128" height="128" version="1.1" viewBox="0 0 33.867 33.867" xmlns="http://www.w3.org/2000/svg"><style type="text/css">.Invers{fill:#000000;}</style><g class="Invers" transform="matrix(.94424 0 0 .94424 .873 -247.46)"><path d="m29.757 278.77 2.0657-1.1924c0.61147-0.35296 0.90793-1.0731 0.72506-1.755-0.73978-2.759-2.1954-5.2251-4.1555-7.1875-0.49821-0.49872-1.2698-0.59979-1.8803-0.24722l-2.0619 1.1909c-0.66981-0.47934-1.3846-0.89256-2.1342-1.2338v-2.3842c-8.2e-5 -0.70611-0.47505-1.3239-1.1574-1.5054-2.7091-0.72052-5.5865-0.72142-8.2989-6e-5 -0.68237 0.1815-1.1576 0.79927-1.1576 1.5054v2.3842c-0.74962 0.34128-1.4644 0.7545-2.1342 1.2338l-2.0619-1.1909c-0.61043-0.35257-1.3821-0.25151-1.8803 0.24722-1.9601 1.9623-3.4157 4.4284-4.1555 7.1875-0.18287 0.68192 0.11359 1.402 0.72506 1.755l2.0657 1.1925c-0.079142 0.81977-0.079142 1.6452 0 2.465l-2.0657 1.1924c-0.61147 0.35296-0.90793 1.0731-0.72506 1.755 0.73978 2.759 2.1954 5.2251 4.1555 7.1875 0.49821 0.49872 1.2698 0.59979 1.8803 0.24722l2.0619-1.1909c0.6698 0.47934 1.3845 0.89254 2.1342 1.2338v2.3842c8.7e-5 0.7061 0.47505 1.3239 1.1574 1.5054 2.7091 0.72052 5.5865 0.72149 8.2989 7e-5 0.68237-0.18151 1.1576-0.79927 1.1576-1.5054v-2.3842c0.74961-0.34128 1.4644-0.75448 2.1342-1.2338l2.0619 1.1909c0.61043 0.35257 1.3821 0.25151 1.8803-0.24722 1.9601-1.9623 3.4157-4.4284 4.1555-7.1875 0.18287-0.68192-0.11359-1.402-0.72506-1.755l-2.0657-1.1925c0.07914-0.82061 0.07914-1.6445 0-2.4651zm-2.659 4.3202 3.0736 1.7738c-0.55288 1.4932-1.3558 2.8814-2.3743 4.1053l-3.0743-1.7752c-2.2434 1.9217-2.5714 2.1097-5.3426 3.0883v3.5491c-1.5696 0.26795-3.1733 0.26795-4.7429 0v-3.5491c-2.7709-0.9785-3.1-1.1673-5.3426-3.0883l-3.0743 1.7752c-1.0185-1.2239-1.8214-2.6121-2.3743-4.1053l3.0736-1.7738c-0.53519-2.8968-0.53547-3.277 0-6.1752l-3.0736-1.7738c0.55062-1.4891 1.3545-2.8793 2.3743-4.1054l3.0743 1.7752c2.2434-1.9217 2.5714-2.1098 5.3426-3.0883v-3.5491c1.5696-0.26795 3.1733-0.26795 4.7429 0v3.5492c2.7709 0.97849 3.1 1.1673 5.3426 3.0883l3.0743-1.7752c1.0185 1.2239 1.8214 2.6122 2.3743 4.1054l-3.0736 1.7738c0.53526 2.8969 0.53547 3.2769 0 6.1752zm-10.089-9.3152c-3.4339 0-6.2276 2.7936-6.2276 6.2276 0 3.4339 2.7937 6.2276 6.2276 6.2276s6.2276-2.7936 6.2276-6.2276c0-3.4339-2.7937-6.2276-6.2276-6.2276zm0 10.097c-2.1338 0-3.8697-1.7359-3.8697-3.8697s1.7359-3.8697 3.8697-3.8697 3.8697 1.736 3.8697 3.8697c0 2.1338-1.7359 3.8697-3.8697 3.8697z" style="stroke-width:.064871"/></g></svg>
