<svg width="128" height="128" version="1.1" viewBox="0 0 128 128" xmlns="http://www.w3.org/2000/svg"><style type="text/css">.Line{fill:#000000;}
   .BackB{fill:#4499ee;}</style><rect class="BackB" x="3.7966" y="6.7797" width="113.08" height="111.73" ry="22.78"/><path class="Line" d="m59.932 8.2034c28.671 0 51.932 6.9308 51.932 15.429v1.1428c0 8.7214-23.261 15.429-51.932 15.429-28.671 0-51.932-6.9307-51.932-15.428v-1.1428c0-8.7214 23.261-15.429 51.932-15.429m51.932 34.839v5.7862c0 8.5146-23.261 15.428-51.932 15.428-28.671 0-51.932-6.9259-51.932-15.428v-10.939c11.157 6.991 31.579 10.245 51.932 10.245 20.354 0 40.775-3.2545 51.932-10.245m0 31.864v3.1831c0 8.5485-23.261 15.428-51.932 15.428-28.671 0-51.932-6.931-51.932-15.429v-10.776c11.157 6.9912 31.579 10.246 51.932 10.246 20.354 0 40.775-3.2545 51.932-10.246m0 31.593v3.0204c0 8.4978-23.261 15.429-51.932 15.429-28.671 0-51.932-6.9256-51.932-15.429v-10.614c11.157 6.991 31.579 10.246 51.932 10.246 20.354 0 40.775-3.2545 51.932-10.246m-51.932-86.161c-25.656 0-59.932 5.815-59.932 27.429v73.143c0 21.618 34.27 27.429 59.932 27.429 25.656 0 59.932-5.815 59.932-27.429v-73.143c0-21.618-34.27-27.429-59.932-27.429z"/></svg>
