<svg version="1.1" viewBox="0 0 128 128" xmlns="http://www.w3.org/2000/svg">
 <style type="text/css">.BackB{fill:#4499ee;fill-opacity:1.0;}.st0{fill:#ffffff;fill-opacity:1.0;}</style>
 <path class="BackB" d="m59.93 8.203v0.001953c-28.67 0-51.93 6.706-51.93 15.43v1.143c0 8.497 23.26 15.43 51.93 15.43s51.93-6.708 51.93-15.43v-1.143c0-8.498-23.26-15.43-51.93-15.43zm-51.93 29.69v10.94c0 8.502 23.26 15.43 51.93 15.43s51.93-6.913 51.93-15.43v-5.787-5.152c-11.16 6.99-31.58 10.24-51.93 10.24-20.35 0-40.77-3.253-51.93-10.24zm0 24.27v10.78c0 8.498 23.26 15.43 51.93 15.43s51.93-6.879 51.93-15.43v-3.184-7.594c-11.16 6.992-31.58 10.25-51.93 10.25-20.35 0-40.77-3.255-51.93-10.25zm0 24v10.61c0 8.503 23.26 15.43 51.93 15.43s51.93-6.932 51.93-15.43v-3.02-7.594c-11.16 6.992-31.58 10.25-51.93 10.25-20.35 0-40.77-3.255-51.93-10.25z"/>
 <path class="st0" d="m59.93 8.203c28.67 0 51.93 6.931 51.93 15.43v1.143c0 8.721-23.26 15.43-51.93 15.43s-51.93-6.931-51.93-15.43v-1.143c0-8.721 23.26-15.43 51.93-15.43m51.93 34.84v5.786c0 8.515-23.26 15.43-51.93 15.43s-51.93-6.926-51.93-15.43v-10.94c11.16 6.991 31.58 10.24 51.93 10.24 20.35 0 40.78-3.254 51.93-10.24m0 31.86v3.183c0 8.548-23.26 15.43-51.93 15.43s-51.93-6.931-51.93-15.43v-10.78c11.16 6.991 31.58 10.25 51.93 10.25 20.35 0 40.78-3.254 51.93-10.25m0 31.59v3.02c0 8.498-23.26 15.43-51.93 15.43s-51.93-6.926-51.93-15.43v-10.61c11.16 6.991 31.58 10.25 51.93 10.25 20.35 0 40.78-3.254 51.93-10.25m-51.93-86.16c-25.66 0-59.93 5.815-59.93 27.43v73.14c0 21.62 34.27 27.43 59.93 27.43 25.66 0 59.93-5.815 59.93-27.43v-73.14c0-21.62-34.27-27.43-59.93-27.43z"/>
</svg>
