<svg enable-background="new 0 0 170 60" version="1.1" viewBox="0 0 170 60" xmlns="http://www.w3.org/2000/svg"><g transform="matrix(.369 0 0 .369 -6.84 -2.07)"><polygon points="124 87.3 77.1 156 30.2 87.3 77.1 17.1" fill="#fff" stroke="#fff" stroke-miterlimit="10" stroke-width="10"/><g stroke="#fff" stroke-miterlimit="10" stroke-width="2"><polygon points="124 86.5 77.1 16.3 30.2 86.5 49.2 115 77.1 73.1 105 115" fill="#ff8510"/><polygon points="52 119 77.1 157 102 119 77.1 81.5"/></g><path d="m237 148v1.47h-11.4v-16.1h11v1.47h-9.34v5.73h8.33v1.45h-8.33v5.98z"/><path d="m273 134v16.1h-1.4l-10.3-13.1v13.1h-1.7v-16.1h1.4l10.4 13.1v-13.1z"/><path d="m308 142h1.63v6.14c-0.752 0.66-1.64 1.17-2.67 1.52-1.03 0.354-2.11 0.529-3.24 0.529-1.61 0-3.06-0.352-4.35-1.06-1.29-0.705-2.3-1.68-3.04-2.93-0.736-1.25-1.1-2.65-1.1-4.2s0.367-2.95 1.1-4.2c0.736-1.25 1.75-2.23 3.04-2.93 1.29-0.705 2.74-1.06 4.37-1.06 1.23 0 2.35 0.195 3.38 0.586s1.9 0.97 2.6 1.74l-1.06 1.08c-1.27-1.26-2.89-1.89-4.85-1.89-1.3 0-2.48 0.288-3.53 0.862-1.05 0.575-1.88 1.37-2.47 2.39s-0.896 2.16-0.896 3.42 0.299 2.39 0.896 3.4 1.42 1.81 2.46 2.39c1.04 0.583 2.22 0.874 3.52 0.874 1.66 0 3.06-0.414 4.21-1.24z"/><path d="m333 134h1.7v16.1h-1.7z"/><path d="m372 134v16.1h-1.4l-10.3-13.1v13.1h-1.7v-16.1h1.4l10.4 13.1v-13.1z"/><path d="m407 148v1.47h-11.4v-16.1h11v1.47h-9.34v5.73h8.32v1.45h-8.32v5.98z"/><path d="m190 54.4c14.8 0 22.4 7.39 22.4 7.39l-4.38 6.46s-6.92-6-17.3-6c-14.5 0-23.3 10.6-23.3 23.8 0 14.3 9.69 24.2 22.9 24.2 10.6 0 17.5-7.62 17.5-7.62v-9h-10.2v-7.62h18v31.2h-7.62v-3.92-2.54h-0.231s-6.69 7.62-18.9 7.62c-16.6 0-30.5-13.2-30.5-32.1 0.23-17.8 13.6-31.9 31.6-31.9z"/><path d="m287 99.5h-23.3l-6.23 17.8h-9l22.2-61.9h9l22.2 61.9h-9zm-11.8-35.5s-1.38 5.54-2.54 8.77l-6.92 19.6h18.7l-6.92-19.6c-0.692-3-2.08-8.77-2.31-8.77z"/><path d="m340 55.4h9l14.1 33.5c1.38 3.46 3 8.31 3 8.31h0.231s1.62-4.85 3-8.31l14.1-33.5h9l5.08 61.9h-8.54l-3-39c-0.23-3.69 0-9 0-9h-0.23s-1.85 5.77-3.23 9l-12.2 27.9h-7.62l-12.2-27.9c-1.38-3.23-3.23-9.23-3.23-9.23h-0.23s0 5.54-0.231 9.23l-3 39h-8.77z"/><path d="m438 104s6.46 6.69 15.7 6.69c5.77 0 10.6-3.23 10.6-9 0-13.4-30-10.4-30-29.5 0-9.7 8.31-17.3 19.9-17.3s17.5 6.23 17.5 6.23l-3.92 7.16s-5.77-5.31-13.6-5.31c-6.46 0-11.3 4.16-11.3 9 0 12.7 30 9.46 30 29.3 0 9.46-7.39 17.3-19.6 17.3-13.2 0-20.5-8.08-20.5-8.08z"/></g></svg>
