<svg xmlns="http://www.w3.org/2000/svg" viewBox="0 0 576 576">
<style type="text/css">
   .st0{fill:#BBBBBB;}
   .st1{fill:#FFFFFF;}
   .st2{fill:#002288;}
   .st3{fill:#BB2200;}
</style>
<g transform="translate(95 80) scale(.95)">
<path class="st0" d="M256 8C119.043 8 8 119.083 8 256c0 136.997 111.043 248 248 248s248-111.003 248-248C504 119.083 392.957 8 256 8z"/>
<path class="st1" transform="scale(1.3)" d="M240 295c0 23.159-18.841 42-42 42s-42-18.841-42-42 18.841-42 42-42 42 18.841 42 42zm-81.37-211.401l6.8 136c.319 6.387 5.591 11.401 11.985 11.401h41.17c6.394 0 11.666-5.014 11.985-11.401l6.8-136c.343-6.854-5.122-12.599-11.985-12.599h-54.77c-6.863 0-12.328 5.745-11.985 12.599z"/>
</g>
<g transform="translate(-120 -180) scale(1.5)">
<path class="st2" d="M352 236v40c0 6.6-5.4 12-12 12H224v67c0 10.7-12.9 16-20.5 8.5l-99-99c-4.7-4.7-4.7-12.3 0-17l99-99c7.6-7.6 20.5-2.2 20.5 8.5v67h116c6.6 0 12 5.4 12 12z"/>
</g>
<path class="st3" transform="translate(60 40) rotate(45)" d="M0-35H676V60H0z"/>
</svg>