<svg version="1.1" viewBox="0 0 128 128" xmlns="http://www.w3.org/2000/svg"><style type="text/css">.Gray{fill:#999999;}.sf1{fill:#FFFFFF;}.BackB{fill:#002288;}</style><g transform="matrix(.20978 0 0 .20978 22.319 14.322)"><path class="Gray" d="m256 8c-136.96 0-248 111.08-248 248 0 137 111.04 248 248 248s248-111 248-248c0-136.92-111.04-248-248-248z"/><path class="sf1" transform="scale(1.3)" d="m240 295c0 23.159-18.841 42-42 42s-42-18.841-42-42 18.841-42 42-42 42 18.841 42 42zm-81.37-211.4 6.8 136c0.319 6.387 5.591 11.401 11.985 11.401h41.17c6.394 0 11.666-5.014 11.985-11.401l6.8-136c0.343-6.854-5.122-12.599-11.985-12.599h-54.77c-6.863 0-12.328 5.745-11.985 12.599z"/></g><g transform="matrix(.33124 0 0 .33124 -33.463 -40.313)"><path class="BackB" d="m366.38 229.96v49.313c0 6.6-5.4 12-12 12h-131.76v63.725c0 10.7-12.9 14.618-20.5 7.1184l-97.618-97.618c-4.7-4.7-4.7-12.3 0-17l97.618-97.618c7.6-7.6 20.419-3.5813 20.5 7.1184v60.962h131.76c6.6 0 12 5.4 12 12z"/></g></svg>
