<svg width="128" height="128" version="1.1" viewBox="0 0 128 128" xmlns="http://www.w3.org/2000/svg"><style type="text/css">.BackR{fill:#bb0000;}
   .st0{fill:#FFFFFF;}</style><path class="BackR" d="m64 0.35355c-35.221 0-63.778 28.567-63.778 63.778 0 35.232 28.557 63.778 63.778 63.778 35.221 0 63.778-28.547 63.778-63.778 0-35.211-28.557-63.778-63.778-63.778z"/><path class="st0" d="m78.402 96.921c0 7.7425-6.2989 14.041-14.041 14.041-7.7425 0-14.041-6.2989-14.041-14.041 0-7.7425 6.2989-14.041 14.041-14.041 7.7425 0 14.041 6.2989 14.041 14.041zm-27.204-70.676 2.2734 45.468c0.10665 2.1353 1.8692 3.8116 4.0068 3.8116h13.764c2.1376 0 3.9002-1.6763 4.0068-3.8116l2.2734-45.468c0.11467-2.2914-1.7124-4.2121-4.0068-4.2121h-18.311c-2.2944 0-4.1215 1.9207-4.0068 4.2121z"/></svg>
