<svg version="1.1" viewBox="0 0 128 128" xmlns="http://www.w3.org/2000/svg">
<style type="text/css">.st1{fill:#334455;fill-opacity:1.0;}.st2{fill:#D3D3D3;fill-opacity:1.0;}.GOrange{fill:#ff8510; fill-opacity:1.0;}.Paper{fill:#FFFFFF;fill-opacity:1.0;}</style>
<rect class="st0"     x="2" y="75" width="102" height="45" ry="20.78"/>
<rect class="GOrange" x="2" y="40" width="102" height="42" ry="20.78"/>
<path class="Paper" transform="translate(2 35) scale(.85 .72)" d="m59.932 8.2034c28.671 0 51.932 6.9308 51.932 15.429v1.1428c0 8.7214-23.261 15.429-51.932 15.429-28.671 0-51.932-6.9307-51.932-15.428v-1.1428c0-8.7214 23.261-15.429 51.932-15.429m51.932 34.839v5.7862c0 8.5146-23.261 15.428-51.932 15.428-28.671 0-51.932-6.9259-51.932-15.428v-10.939c11.157 6.991 31.579 10.245 51.932 10.245 20.354 0 40.775-3.2545 51.932-10.245m0 31.864v3.1831c0 8.5485-23.261 15.428-51.932 15.428-28.671 0-51.932-6.931-51.932-15.429v-10.776c11.157 6.9912 31.579 10.246 51.932 10.246 20.354 0 40.775-3.2545 51.932-10.246m0 31.593v3.0204c0 8.4978-23.261 15.429-51.932 15.429-28.671 0-51.932-6.9256-51.932-15.429v-10.614c11.157 6.991 31.579 10.246 51.932 10.246 20.354 0 40.775-3.2545 51.932-10.246m-51.932-86.161c-25.656 0-59.932 5.815-59.932 27.429v73.143c0 21.618 34.27 27.429 59.932 27.429 25.656 0 59.932-5.815 59.932-27.429v-73.143c0-21.618-34.27-27.429-59.932-27.429z"/>
<circle class="Paper"  cx="90.25" cy="40.08" r="31.25"/>
<path class="st1" transform="translate(50 0) scale(.155 .155) rotate(0 256 256)" d="M452.515 237l31.843-18.382c9.426-5.441 13.996-16.542 11.177-27.054-11.404-42.531-33.842-80.547-64.058-110.797-7.68-7.688-19.575-9.246-28.985-3.811l-31.785 18.358a196.276 196.276 0 0 0-32.899-19.02V39.541a24.016 24.016 0 0 0-17.842-23.206c-41.761-11.107-86.117-11.121-127.93-.001-10.519 2.798-17.844 12.321-17.844 23.206v36.753a196.276 196.276 0 0 0-32.899 19.02l-31.785-18.358c-9.41-5.435-21.305-3.877-28.985 3.811-30.216 30.25-52.654 68.265-64.058 110.797-2.819 10.512 1.751 21.613 11.177 27.054L59.485 237a197.715 197.715 0 0 0 0 37.999l-31.843 18.382c-9.426 5.441-13.996 16.542-11.177 27.054 11.404 42.531 33.842 80.547 64.058 110.797 7.68 7.688 19.575 9.246 28.985 3.811l31.785-18.358a196.202 196.202 0 0 0 32.899 19.019v36.753a24.016 24.016 0 0 0 17.842 23.206c41.761 11.107 86.117 11.122 127.93.001 10.519-2.798 17.844-12.321 17.844-23.206v-36.753a196.34 196.34 0 0 0 32.899-19.019l31.785 18.358c9.41 5.435 21.305 3.877 28.985-3.811 30.216-30.25 52.654-68.266 64.058-110.797 2.819-10.512-1.751-21.613-11.177-27.054L452.515 275c1.22-12.65 1.22-25.35 0-38zm-52.679 63.019l43.819 25.289a200.138 200.138 0 0 1-33.849 58.528l-43.829-25.309c-31.984 27.397-36.659 30.077-76.168 44.029v50.599a200.917 200.917 0 0 1-67.618 0v-50.599c-39.504-13.95-44.196-16.642-76.168-44.029l-43.829 25.309a200.15 200.15 0 0 1-33.849-58.528l43.819-25.289c-7.63-41.299-7.634-46.719 0-88.038l-43.819-25.289c7.85-21.229 19.31-41.049 33.849-58.529l43.829 25.309c31.984-27.397 36.66-30.078 76.168-44.029V58.845a200.917 200.917 0 0 1 67.618 0v50.599c39.504 13.95 44.196 16.642 76.168 44.029l43.829-25.309a200.143 200.143 0 0 1 33.849 58.529l-43.819 25.289c7.631 41.3 7.634 46.718 0 88.037zM256 160c-52.935 0-96 43.065-96 96s43.065 96 96 96 96-43.065 96-96-43.065-96-96-96zm0 144c-26.468 0-48-21.532-48-48 0-26.467 21.532-48 48-48s48 21.533 48 48c0 26.468-21.532 48-48 48z" fill-opacity="1.0"/>

</svg>
