<svg version="1.1" viewBox="0 0 128 128" xmlns="http://www.w3.org/2000/svg">
 <style type="text/css">.st1{fill:#334455;fill-opacity:1.0;}.st2{fill:#348619;fill-opacity:1.0;}.st3{fill:#FFF;}.BackG{fill:#115aff;fill-opacity:1.0;}.Paper{fill:#FFFFFF;fill-opacity:1.0;}</style>
 <path class="Paper" d="m108.55 24.546-21-21c-2.2-2.2-5.3-3.5-8.5-3.5h-51c-6.6 0.025-12 5.4-12 12v104c0 6.6 5.4 12 12 12h72c6.6 0 12-5.4 12-12v-83c0-3.2-1.3-6.2-3.5-8.5z"/>
 <path class="st1" d="m108.55 24.546-21-21c-2.2-2.2-5.3-3.5-8.5-3.5h-51c-6.6 0.025-12 5.4-12 12v104c0 6.6 5.4 12 12 12h72c6.6 0 12-5.4 12-12v-83c0-3.2-1.3-6.2-3.5-8.5zm-5.6 5.7c0.52 0.52 0.88 1.2 1 1.8h-24v-24c0.7 0.18 1.3 0.52 1.8 1zm-2.8 90h-72c-2.2 0-4-1.8-4-4v-104c0-2.2 1.8-4 4-4h44v26c0 3.3 2.7 6 6 6h26v76c0 2.2-1.8 4-4 4z"/>
 <g class="BackG" stroke-width="1.5011">
  <rect x="32.011" y="24.013" width="23.988" height="24.007" ry="4.0828"/>
  <rect x="32.011" y="56.013" width="23.988" height="24.007" ry="4.0828"/>
  <rect x="32.011" y="88.013" width="23.988" height="24.007" ry="4.0828"/>
 </g>
 <g class="st2" transform="matrix(.90903 0 0 .90903 39.876 33.956)">
  <path class="st3" d="m39.428 21.003c-1.7377-0.04454-3.4742 0.36432-5.0254 1.1914-3.1023 1.6542-5.4023 5.1936-5.4023 9.4824v63.82c0 3.9978 2.0773 7.4337 5.0742 9.252 2.9951 1.8171 7.0634 2.004 10.381-0.10547l0.0059-4e-3 50.268-31.896 4e-3 -0.0039c6.5639-4.1577 6.5798-14.132 0-18.291l-8e-3 -0.0059-0.21289-0.13281-50.057-31.779c-1.5517-0.9846-3.2897-1.4828-5.0273-1.5273zm-0.19141 6.668c0.58424 0.0125 1.1596 0.17098 1.6504 0.48242l50.283 31.922 4e-3 0.0039c2.4034 1.5214 2.3888 5.5189-8e-3 7.0352h-2e-3l-50.279 31.906-2e-3 2e-3c-1.2094 0.77023-2.3118 0.66325-3.3535 0.0312-1.0417-0.63201-1.8691-1.8028-1.8691-3.5566v-63.82c0-2.1224 0.82796-3.0472 1.875-3.6055 0.52352-0.27915 1.1169-0.41289 1.7012-0.40039z"/>
  <path class="st2" d="m39.231 27.673c-0.58424-0.0125-1.1777 0.12124-1.7012 0.40039-1.047 0.55829-1.875 1.4831-1.875 3.6055v63.82c0 1.7539 0.82745 2.9246 1.8691 3.5566 1.0417 0.63205 2.1442 0.73898 3.3535-0.0312l2e-3 -2e-3 50.279-31.906h2e-3c2.3968-1.5163 2.4113-5.5137 8e-3 -7.0352l-4e-3 -0.0039-50.283-31.922c-0.49081-0.31144-1.0661-0.46992-1.6504-0.48242z"/>
 </g>
</svg>
