<svg version="1.1" viewBox="0 0 128 128" xmlns="http://www.w3.org/2000/svg"><style type="text/css">.Line{fill:#000000;}.BackG{fill:#138e09;}.Paper{fill:#FFFFFF;}</style><path class="Paper" d="m108 24-21-21c-2.2-2.2-5.3-3.5-8.5-3.5h-51c-6.6 0.025-12 5.4-12 12v104c0 6.6 5.4 12 12 12h72c6.6 0 12-5.4 12-12v-83c0-3.2-1.3-6.2-3.5-8.5z"/><path class="Line" d="m108 24-21-21c-2.2-2.2-5.3-3.5-8.5-3.5h-51c-6.6 0.025-12 5.4-12 12v104c0 6.6 5.4 12 12 12h72c6.6 0 12-5.4 12-12v-83c0-3.2-1.3-6.2-3.5-8.5zm-5.6 5.7c0.52 0.52 0.88 1.2 1 1.8h-24v-24c0.7 0.18 1.3 0.52 1.8 1zm-2.8 90h-72c-2.2 0-4-1.8-4-4v-104c0-2.2 1.8-4 4-4h44v26c0 3.3 2.7 6 6 6h26v76c0 2.2-1.8 4-4 4zm-29-58 7.4 7.4c0.45 0.45 0.45 1.2 0 1.6l-28 28-7.5 1.1c-1.5 0.2-2.8-1-2.6-2.6l1.1-7.5 28-28c0.45-0.45 1.2-0.45 1.6 0zm16 0.3-4.1 4.1c-0.45 0.45-1.2 0.45-1.6 0l-7.4-7.4c-0.45-0.45-0.45-1.2 0-1.6l4.1-4.1c1.5-1.5 3.8-1.5 5.3 0l3.7 3.7c1.5 1.4 1.5 3.8 0 5.3z"/><path class="BackG" d="m71 62 7.4 7.4c0.45 0.45 0.45 1.2 0 1.6l-28 28-7.5 1.1c-1.5 0.2-2.8-1-2.6-2.6l1.1-7.5 28-28c0.45-0.45 1.2-0.45 1.6 0zm16 0.3-4.1 4.1c-0.45 0.45-1.2 0.45-1.6 0l-7.4-7.4c-0.45-0.45-0.45-1.2 0-1.6l4.1-4.1c1.5-1.5 3.8-1.5 5.3 0l3.7 3.7c1.5 1.4 1.5 3.8 0 5.3z"/></svg>
