<svg width="128" height="128" version="1.1" viewBox="0 0 128 128" xmlns="http://www.w3.org/2000/svg"><style type="text/css">.Invers{fill:#000000;}</style><path class="Invers" d="m108.42 29.534-19.051-18.297c-2.0436-1.9627-4.8137-3.0749-7.6975-3.0749h-46.344c-6.0172 0.021808-10.899 4.7105-10.899 10.489v90.721c0 5.7791 4.8819 10.468 10.899 10.468h65.395c6.0172 0 10.898-4.6887 10.898-10.468v-72.423c0-2.7696-1.158-5.452-3.2016-7.4146zm-5.1317 4.9503c0.47685 0.45796 0.79475 1.0032 0.95369 1.6138h-21.684v-20.826c0.63578 0.15265 1.2035 0.45795 1.6803 0.91593zm-2.5658 78.377h-65.395c-1.9983 0-3.633-1.5702-3.633-3.4892v-90.721c0-1.9191 1.6349-3.4892 3.633-3.4892h39.963v22.679c0 2.9004 2.4296 5.2338 5.4495 5.2338h23.614v66.295c0 1.9192-1.6349 3.4892-3.633 3.4892z" style="stroke-width:.22253"/></svg>
