<svg version="1.1" viewBox="0 0 128 128" xmlns="http://www.w3.org/2000/svg">
 <style type="text/css">.st1{fill:#334455;fill-opacity:1.0;}.st2{fill:#138e09;fill-opacity:1.0;}.BackG{fill:#115aff;fill-opacity:1.0;}.Paper{fill:#FFFFFF;fill-opacity:1.0;}</style>
 <path class="Paper" d="m108.55 24.546-21-21c-2.2-2.2-5.3-3.5-8.5-3.5h-51c-6.6 0.025-12 5.4-12 12v104c0 6.6 5.4 12 12 12h72c6.6 0 12-5.4 12-12v-83c0-3.2-1.3-6.2-3.5-8.5z"/>
 <path class="st1" d="m108.55 24.546-21-21c-2.2-2.2-5.3-3.5-8.5-3.5h-51c-6.6 0.025-12 5.4-12 12v104c0 6.6 5.4 12 12 12h72c6.6 0 12-5.4 12-12v-83c0-3.2-1.3-6.2-3.5-8.5zm-5.6 5.7c0.52 0.52 0.88 1.2 1 1.8h-24v-24c0.7 0.18 1.3 0.52 1.8 1zm-2.8 90h-72c-2.2 0-4-1.8-4-4v-104c0-2.2 1.8-4 4-4h44v26c0 3.3 2.7 6 6 6h26v76c0 2.2-1.8 4-4 4z"/>
 <g class="BackG" stroke-width="1.5011">
  <rect x="32.011" y="24.013" width="23.988" height="24.007" ry="4.0828"/>
  <rect x="32.011" y="56.013" width="23.988" height="24.007" ry="4.0828"/>
  <rect x="32.011" y="88.013" width="23.988" height="24.007" ry="4.0828"/>
 </g>
</svg>
