<?xml version="1.0" encoding="UTF-8"?><svg version="1.1" viewBox="0 0 128 128" xmlns="http://www.w3.org/2000/svg">
 <style type="text/css">.GOrange{fill:#F39619; fill-opacity:1.0;}.st1{fill:#000;fill-opacity:1.0;}
 </style>
 <path class="st1" d="m127.49 52.285c-0.95382 1.517-2.9453 2.9564-6.0274 4.3145-4.4633 1.9667-10.529 3.5258-18.199 4.6758-0.75274 0.11286-1.5175 0.21658-2.2832 0.31836l5.0137 2.8926c1.0378 0.59907 1.81 1.5066 2.2578 2.5508 8.3195-1.4236 14.953-3.4583 19.865-6.1172 0.0246-0.16203 0.041-0.32449 0.041-0.48828v-6.1445c0-0.68362-0.24013-1.349-0.66797-2.002zm0.66797 18.418c-0.10029 0.05227-0.21275 0.10056-0.31446 0.15234-0.75169 1.7508-2.8743 3.4002-6.3809 4.9453-4.131 1.8203-9.6533 3.2838-16.531 4.4043-1.1883 2.4739-2.5499 4.8484-4.0762 7.1035 2.0923-0.25127 4.1544-0.5345 6.1777-0.85938 8.7544-1.4057 15.684-3.4733 20.812-6.1934 0.20338-0.45675 0.3125-0.92125 0.3125-1.3926zm0 18.434c-0.0161 0.0084-0.0347 0.01508-0.0508 0.02344-0.33498 2.087-2.546 4.0339-6.6445 5.8398-4.4633 1.9667-10.529 3.5258-18.199 4.6758-7.67 1.15-16.012 1.7246-25.025 1.7246-1.7673 0-3.5011-0.0281-5.2168-0.0723v3.4512c0 1.0707-0.33046 2.073-0.88281 2.9258 2.0086 0.0579 4.0368 0.0957 6.0996 0.0957 10.27 0 19.868-0.71706 28.795-2.1504 8.3457-1.34 15.022-3.2857 20.072-5.8203 0.69267-0.82016 1.0527-1.6634 1.0527-2.5332zm-99.354 3.0938-0.48633 0.28125v4.7852c0 0.86983 0.36007 1.713 1.0527 2.5332 2.0151 1.0113 4.3005 1.9234 6.8359 2.7461v-6.0664c-2.6001-1.1836-5.0792-2.6167-7.4023-4.2793zm-0.48633 15.57v7.9277c0 2.208 2.232 4.2546 6.6953 6.1426s10.529 3.3843 18.199 4.4883c7.67 1.104 16.012 1.6562 25.025 1.6562 9.0133 0 17.355-0.55225 25.025-1.6562 7.67-1.104 13.736-2.6003 18.199-4.4883 4.4633-1.888 6.6953-3.9346 6.6953-6.1426v-7.9277c0 2.3-2.232 4.4318-6.6953 6.3984-4.4633 1.9667-10.529 3.5258-18.199 4.6758-7.67 1.15-16.012 1.7246-25.025 1.7246-9.0133 0-17.355-0.57461-25.025-1.7246s-13.736-2.7091-18.199-4.6758-6.6953-4.0984-6.6953-6.3984z"/>
 <path class="GOrange" d="m105.47 33.08c1.2332 2.7233 2.2578 5.5625 3.0449 8.498 0.63427 2.3652-0.39478 4.8637-2.5156 6.0879l-7.1641 4.1348c0.2745 2.8462 0.2745 5.7045 0 8.5508l2.1504 1.2422c0.76569-0.10179 1.5305-0.2055 2.2832-0.31836 7.67-1.15 13.736-2.7091 18.199-4.6758 4.4633-1.9667 6.6953-4.1004 6.6953-6.4004v-6.3984c0-2.3-2.232-4.4337-6.6953-6.4004-4.0248-1.7735-9.3657-3.2109-15.998-4.3203zm22.693 27.82c-4.9157 2.6691-11.565 4.7095-19.906 6.1367 0.46728 1.0897 0.5817 2.3293 0.25781 3.5371-0.89731 3.3465-2.1049 6.5661-3.5781 9.6328 6.8781-1.1207 12.4-2.586 16.531-4.4062 4.4633-1.9667 6.6953-4.1004 6.6953-6.4004zm0 19.199c-5.1567 2.8-12.198 4.9163-21.125 6.3496-2.0233 0.32488-4.0854 0.60813-6.1777 0.85938-1.9924 2.9438-4.2561 5.6889-6.7598 8.1953-1.728 1.7298-4.4042 2.0803-6.5215 0.85742l-7.1504-4.1309c-2.3233 1.6624-4.8023 3.0956-7.4023 4.2793v4.8184c1.7154 0.0442 3.4498 0.0723 5.2168 0.0723 9.0133 0 17.355-0.57461 25.025-1.7246 7.67-1.15 13.736-2.7091 18.199-4.6758 4.4633-1.9667 6.6953-4.1004 6.6953-6.4004zm-99.84 19.201v8.5c0 2.3 2.232 4.4318 6.6953 6.3984s10.529 3.5258 18.199 4.6758 16.012 1.7246 25.025 1.7246c9.0133 0 17.355-0.57461 25.025-1.7246 7.67-1.15 13.736-2.7091 18.199-4.6758 4.4633-1.9667 6.6953-4.0984 6.6953-6.3984v-8.5c-5.1567 2.8-12.198 4.9163-21.125 6.3496-8.9267 1.4333-18.525 2.1504-28.795 2.1504-2.0628 0-4.091-0.0379-6.0996-0.0957-0.71107 1.0978-1.8008 1.9406-3.1328 2.2949-9.4079 2.5022-19.389 2.4991-28.785 0-2.3662-0.62984-4.0132-2.7721-4.0137-5.2207v-2.1992c-2.9845-0.96471-5.6285-2.052-7.8887-3.2793z"/>
 <path class="st1" d="m98.832 51.801 7.1647-4.136c2.1208-1.2242 3.1491-3.722 2.5148-6.0872-2.5659-9.5695-7.6144-18.123-14.413-24.929-1.728-1.7298-4.4044-2.0804-6.5216-0.85748l-7.1516 4.1306a44.162 44.162 0 0 0-7.4023-4.2795v-8.2694a5.4036 5.4036 0 0 0-4.0144-5.2214c-9.3962-2.4991-19.376-2.5022-28.784-2.25e-4 -2.3668 0.62955-4.0149 2.7722-4.0149 5.2214v8.2694a44.162 44.162 0 0 0-7.4023 4.2795l-7.1516-4.1306c-2.1172-1.2229-4.7936-0.87232-6.5216 0.85748-6.7986 6.8062-11.847 15.36-14.413 24.929-0.63428 2.3652 0.39398 4.8629 2.5148 6.0872l7.1647 4.1362a44.486 44.486 0 0 0 0 8.5498l-7.1647 4.136c-2.1209 1.2242-3.1491 3.722-2.5148 6.0872 2.5659 9.5695 7.6145 18.123 14.413 24.929 1.728 1.7298 4.4044 2.0804 6.5216 0.85748l7.1516-4.1306a44.145 44.145 0 0 0 7.4023 4.2793v8.2694a5.4036 5.4036 0 0 0 4.0144 5.2214c9.3962 2.4991 19.376 2.5024 28.784 2.3e-4 2.3668-0.62955 4.0149-2.7722 4.0149-5.2214v-8.2694a44.176 44.176 0 0 0 7.4023-4.2793l7.1516 4.1306c2.1172 1.2229 4.7936 0.87232 6.5216-0.85748 6.7986-6.8062 11.847-15.36 14.413-24.929 0.63427-2.3652-0.39398-4.8629-2.5148-6.0872l-7.1647-4.136c0.2745-2.8462 0.2745-5.7038 0-8.55zm-11.853 14.179 9.8593 5.69a45.031 45.031 0 0 1-7.616 13.169l-9.8615-5.6945c-7.1964 6.1643-8.2483 6.7673-17.138 9.9065v11.385a45.206 45.206 0 0 1-15.214 0v-11.385c-8.8884-3.1388-9.9441-3.7444-17.138-9.9065l-9.8615 5.6945a45.034 45.034 0 0 1-7.616-13.169l9.8593-5.69c-1.7168-9.2923-1.7176-10.512 0-19.809l-9.8593-5.69c1.7662-4.7765 4.3448-9.236 7.616-13.169l9.8615 5.6945c7.1964-6.1643 8.2485-6.7676 17.138-9.9065v-11.385a45.206 45.206 0 0 1 15.214 0v11.385c8.8884 3.1388 9.9441 3.7444 17.138 9.9065l9.8615-5.6945a45.032 45.032 0 0 1 7.616 13.169l-9.8593 5.69c1.717 9.2925 1.7176 10.512 0 19.808zm-32.363-31.504c-11.91 0-21.6 9.6896-21.6 21.6s9.6896 21.6 21.6 21.6 21.6-9.6896 21.6-21.6-9.6896-21.6-21.6-21.6zm0 32.4c-5.9553 0-10.8-4.8447-10.8-10.8 0-5.9551 4.8447-10.8 10.8-10.8s10.8 4.8449 10.8 10.8c0 5.9553-4.8447 10.8-10.8 10.8z"/>
</svg>
