<svg width="128" height="128" version="1.1" viewBox="0 0 128 128" xmlns="http://www.w3.org/2000/svg">
<style type="text/css">.Line{fill:#000000;}</style>
<path class="Line" d="m109.72 24.489-22.305-20.967c-2.3927-2.2491-5.6361-3.5236-9.0124-3.5236h-54.26c-7.0451 0.02499-12.761 5.3979-12.761 12.02v103.96c0 6.6224 5.7158 11.995 12.761 11.995h76.565c7.0451 0 12.761-5.3729 12.761-11.995v-82.992c0-3.1737-1.3558-6.2475-3.7485-8.4966zm-6.0083 5.6728c0.5583 0.52479 0.93049 1.1495 1.1166 1.8493h-25.389v-23.866c0.74439 0.17493 1.409 0.52479 1.9673 1.0496zm-3.0041 89.814h-76.565c-2.3395 0-4.2536-1.7993-4.2536-3.9984v-103.96c0-2.1991 1.9141-3.9984 4.2536-3.9984h46.79v25.99c0 3.3237 2.8446 5.9976 6.3805 5.9976h27.649v75.97c0 2.1991-1.9141 3.9984-4.2536 3.9984zm-12.761-62.475v-1.9992c0 1.6493-1.4356 2.9988-3.1902 2.9988h-44.663c-1.7546 0-3.1902-1.3495-3.1902-2.9988v-1.9992c0-1.6493 1.4356-2.9988 3.1902-2.9988h44.663c1.7546 0 3.1902 1.3495 3.1902 2.9988zm0 16.993v-1.9992c0 1.6493-1.4356 2.9988-3.1902 2.9988h-44.663c-1.7546 0-3.1902-1.3495-3.1902-2.9988v-1.9992c0-1.6493 1.4356-2.9988 3.1902-2.9988h44.663c1.7546 0 3.1902 1.3495 3.1902 2.9988zm0 16.993v-1.9992c0 1.6493-1.4356 2.9988-3.1902 2.9988h-44.663c-1.7546 0-3.1902-1.3495-3.1902-2.9988v-1.9992c0-1.6493 1.4356-2.9988 3.1902-2.9988h44.663c1.7546 0 3.1902 1.3495 3.1902 2.9988z"/></svg>
