<svg version="1.1" viewBox="0 0 128 128" xmlns="http://www.w3.org/2000/svg"><style type="text/css">.st1{fill:#334455;fill-opacity:1.0;}.Paper{fill:#FFFFFF;fill-opacity:1.0;}</style><path class="Paper" d="m112 25-23-21c-2.4-2.2-5.6-3.5-9-3.5h-54c-7 0.025-13 5.4-13 12v104c0 6.6 5.7 12 13 12h77c7 0 13-5.4 13-12v-83c0-3.2-1.4-6.2-3.7-8.5z"/><path class="st1" d="m112 25-23-21c-2.4-2.2-5.6-3.5-9-3.5h-54c-7 0.025-13 5.4-13 12v104c0 6.6 5.7 12 13 12h77c7 0 13-5.4 13-12v-83c0-3.2-1.4-6.2-3.7-8.5zm-7.3 5.7c0.56 0.52 0.93 1.1 1.1 1.8h-25v-24c0.74 0.17 1.4 0.52 2 1zm-3 90h-77c-2.3 0-4.3-1.8-4.3-4v-104c0-2.2 1.9-4 4.3-4h47v26c0 3.3 2.8 6 6.4 6h28v76c0 2.2-1.9 4-4.3 4zm-13-62v-2c0 1.6-1.4 3-3.2 3h-45c-1.8 0-3.2-1.3-3.2-3v-2c0-1.6 1.4-3 3.2-3h45c1.8 0 3.3 1.3 3.2 3zm0 17v-2c0 1.6-1.4 3-3.2 3h-45c-1.8 0-3.2-1.3-3.2-3v-2c0-1.6 1.4-3 3.2-3h45c1.8 0 3.2 1.3 3.2 3zm0 17v-2c0 1.6-1.4 3-3.2 3h-45c-1.8 0-3.2-1.3-3.2-3v-2c0-1.6 1.4-3 3.2-3h45c1.8 0 3.2 1.3 3.2 3z"/></svg>
