<svg width="128" height="128" version="1.1" viewBox="0 0 128 128" xmlns="http://www.w3.org/2000/svg"><style type="text/css">.Line{fill:#000000;}</style><path class="Line" d="m108.48 24.475-20.975-20.975c-2.25-2.25-5.3-3.525-8.475-3.525h-51.025c-6.625 0.025-12 5.4-12 12.025v104c0 6.625 5.375 12 12 12h72c6.625 0 12-5.375 12-12v-83.025c0-3.175-1.275-6.25-3.525-8.5zm-5.65 5.675c0.525 0.525 0.875 1.15 1.05 1.85h-23.875v-23.875c0.7 0.175 1.325 0.525 1.85 1.05zm-2.825 89.85h-72c-2.2 0-4-1.8-4-4v-104c0-2.2 1.8-4 4-4h44v26c0 3.325 2.675 6 6 6h26v76c0 2.2-1.8 4-4 4zm-29.2-58.2 7.4 7.4c0.45 0.45 0.45 1.15 0 1.6l-28.1 28.1-7.525 1.075c-1.475 0.2-2.75-1.05-2.55-2.55l1.075-7.525 28.1-28.1c0.45-0.45 1.15-0.45 1.6 0zm16.1 0.3-4.1 4.1c-0.45 0.45-1.15 0.45-1.6 0l-7.4-7.4c-0.45-0.45-0.45-1.15 0-1.6l4.1-4.1c1.475-1.475 3.85-1.475 5.3 0l3.7 3.7c1.475 1.45 1.475 3.825 0 5.3z"/><path class="Line" d="m70.8 61.8 7.4 7.4c0.45 0.45 0.45 1.15 0 1.6l-28.1 28.1-7.525 1.075c-1.475 0.2-2.75-1.05-2.55-2.55l1.075-7.525 28.1-28.1c0.45-0.45 1.15-0.45 1.6 0zm16.1 0.3-4.1 4.1c-0.45 0.45-1.15 0.45-1.6 0l-7.4-7.4c-0.45-0.45-0.45-1.15 0-1.6l4.1-4.1c1.475-1.475 3.85-1.475 5.3 0l3.7 3.7c1.475 1.45 1.475 3.825 0 5.3z" style="fill:#013cae"/></svg>
