<?xml version="1.0" encoding="UTF-8"?><svg version="1.1" viewBox="0 0 128 128" xmlns="http://www.w3.org/2000/svg">
 <style type="text/css">.GOrange{fill:#F39619; fill-opacity:1.0;}.st1{fill:#000;fill-opacity:1.0;}
 </style>
   <path class="st1" d="m112-0.049181-28.408 28.049 28.408 28.229-14-0.22877-24-24c-2.6552-2.8584-2.5412-5.4588 0.0171-8.0171l23.983-23.983z"/>
  <path class="GOrange" d="m112-0.049181-28.408 28.049 28.408 28.229z"/>
  <path class="st1" d="m27.959 40a19.959 20.049 0 0 0-19.959 20.049 19.959 20.049 0 0 0 19.959 20.049 19.959 20.049 0 0 0 19.959-20.049 19.959 20.049 0 0 0-19.959-20.049zm0.08984 8a12.049 11.959 0 0 1 12.049 11.959 12.049 11.959 0 0 1-12.049 11.959 12.049 11.959 0 0 1-12.049-11.959 12.049 11.959 0 0 1 12.049-11.959z"/>
  <ellipse class="GOrange" cx="28.049" cy="59.959" rx="12.049" ry="11.959"/>
  <path class="st1" d="m80 64 28.408 28.049-28.408 28.229 14-0.22877 24-24c2.6552-2.8584 2.5412-5.4588-0.0171-8.0171l-23.983-23.983z"/>
  <path class="GOrange" d="m80 64 28.408 28.049-28.408 28.229z"/>
  <path class="st1" d="m24 40c2.8175 4.3665 5.5119 4.3858 8 0v-8h43.902c4.6082-2.1816 4.4904-4.8607 0-8h-51.902v16"/>
  <path class="st1" d="m24 80c2.8175-4.3665 5.5119-4.3858 8 0v8.5642l76.586-0.56422c4.6082 2.1816 4.4904 4.8607 0 8l-84.586 0.56422v-16.564"/>
</svg>
