<svg xmlns="http://www.w3.org/2000/svg" viewBox="0 0 512 512">
<style type="text/css">
   .st0{fill:#999999;}
   .st1{fill:#D8D8D8;}
   .st2{fill:#333333;}
</style>
<g transform="scale(.82) translate(56 78)" >
<path class="st0" d="M463.952 0H48.057C5.419 0-16.094 51.731 14.116 81.941L176 243.882V416c0 15.108 7.113 29.335 19.2 40l64 47.066c31.273 21.855 76.8 1.538 76.8-38.4V243.882L497.893 81.941C528.042 51.792 506.675 0 463.952 0zM288 224v240l-64-48V224L48 48h416L288 224z"/>
<path class="st1" d="M288 224v240l-64-48V224L48 48h416L288 224z"/>
<path class="st2" transform="translate(68 -40) rotate(45)" d="M0-60h620v80H0z"/>
</g>
</svg>