<svg version="1.1" viewBox="0 0 128 128" xmlns="http://www.w3.org/2000/svg"><style type="text/css">.Back{fill:#555577;}</style><path class="Back" d="m107.28 15.557h-84.871c-8.7011 0-13.091 10.557-6.9263 16.722l33.036 33.047v35.124c0 3.0831 1.4515 5.9864 3.9181 8.1628l13.06 9.6047c6.3818 4.4599 15.672 0.31385 15.672-7.8362v-45.055l33.037-33.047c6.1525-6.1525 1.7921-16.722-6.9263-16.722zm-35.906 45.711v48.977l-13.06-9.7953v-39.181l-35.916-35.916h84.893z" opacity="0.6"/><path class="Back" d="m71.376 61.268v48.977l-13.06-9.7953v-39.181l-35.916-35.916h84.893z" opacity="0.2"/><path class="Back" d="m35.139-1.2638 89.465 89.465-11.544 11.544-89.465-89.465z"/></svg>
