<svg width="128" height="128" version="1.1" viewBox="0 0 128 128" xmlns="http://www.w3.org/2000/svg">
 <style type="text/css">
   .st0{fill:#F39619;}
   .st1{fill:#F9C619;}
   .st2{fill:#348619;}
   .st{fill-opacity:1.0;}
   </style>
 <g class="st"><path class="st0" d="m11.199 16.002c-6.1857 0-11.199 4.9082-11.199 10.965v65.826l14.898-29.055c3.9986-6.7115 11.412-10.881 19.348-10.881h27.137v-0.73047c0-6.4112 6.2568-8.9261 10.342-6.334l11.127 7.0645h29.148v-10.049c0-6.0563-5.0136-10.967-11.199-10.967h-36.418l-16.154-15.84h-37.029z"/>
 <path class="st1" d="m33.676 63.896a14.199 16.045 0 0 0-12.184 7.9609l-16.068 31.125c-2.0706 4.0111 0.49021 9.0469 4.5996 9.0469h51.359v-48.133h-27.625a14.199 16.045 0 0 0-0.082031 0zm66.564 0 21.76 13.814v-0.001954c0.71238 0.44934 1.2989 1.012 1.7852 1.6367l3.3047-6.4004c2.0708-4.0112-0.48815-9.0488-4.5976-9.0488h-22.252zm15.945 30.172-28.305 17.961h10.877a14.198 16.044 0 0 0 12.264-7.959l5.1641-10.002z"/>
 <path class="st2" d="m122 77.71-50.276-31.918c-4.085-2.5921-10.341-0.076705-10.341 6.3345v63.82c0 5.7516 5.8132 9.2182 10.341 6.3344l50.276-31.903c4.4849-2.8375 4.4992-9.8311 0-12.669z"/></g>
</svg>
