<svg width="128" height="128" version="1.1" viewBox="0 0 128 128" xmlns="http://www.w3.org/2000/svg"><style type="text/css">.st0{fill:#F39619;}
   .st1{fill:#F9C619;}</style><path class="st0" d="m34.246 52.858h77.754v-10.05c0-6.0563-5.0144-10.966-11.2-10.966h-36.418l-16.154-15.841h-37.028c-6.1857 0-11.2 4.9094-11.2 10.966v65.825l14.898-29.053c3.9986-6.7115 11.413-10.881 19.349-10.881z"/><path class="st1" d="m127.09 72.945-16.068 31.125a14.198 16.044 0 0 1-12.264 7.9602h-88.734c-4.1094 0-6.6699-5.0373-4.5993-9.0484l16.068-31.125a14.199 16.045 0 0 1 12.265-7.9602h88.734c4.1095 0 6.6699 5.0373 4.5991 9.0485z"/></svg>
