<svg width="128" height="128" version="1.1" viewBox="0 0 128 128" xmlns="http://www.w3.org/2000/svg"><style type="text/css">.Invers{fill:#000000;}</style><path class="Invers" d="m113.96 55.857h-9.6321v-11.957c0-6.6038-4.3168-11.957-9.642-11.957h-32.14l-12.856-15.942h-32.14c-5.3252 0-9.642 5.3533-9.642 11.957v71.742c0 6.6038 4.3168 11.957 9.642 11.957h77.348c5.6381 0 10.874-3.67 13.78-9.6753l13.55-28.015c3.8429-7.9425-0.76815-18.109-8.2678-18.109zm-96.411-31.886h29.477l12.856 15.942h34.802c1.7752 0 3.214 1.7843 3.214 3.9857v11.957h-55.607c-5.6381 0-10.874 3.67-13.78 9.6753l-14.178 29.302v-66.877c0-2.2014 1.4388-3.9857 3.214-3.9857zm99.17 45.893-13.554 28.015a9.6411 11.956 0 0 1-8.2678 5.8051h-77.987l16.475-34.052a9.642 11.957 0 0 1 8.268-5.8051h72.309c2.4983 0 4.0414 3.3799 2.756 6.0363z" style="stroke-width:.22369"/></svg>
