<svg width="128" height="128" version="1.1" viewBox="0 0 128 128" xmlns="http://www.w3.org/2000/svg">
 <style type="text/css">.st0{fill:#F39619;}.st1{fill:#F9C619;}.st2{fill:#348619;}.st3{fill:#FFF;}.st{fill-opacity:1.0;}</style><g class="st">
 <path class="st0" d="m11.199 16.002c-6.1857 0-11.199 4.9082-11.199 10.965v65.826l14.898-29.055c3.9986-6.7115 11.412-10.881 19.348-10.881h23.807v-0.73047c0-4.2888 2.3-7.8282 5.4023-9.4824 1.5511-0.82709 3.2877-1.2359 5.0254-1.1914 1.7377 0.044537 3.4757 0.54274 5.0273 1.5273l15.557 9.877h22.936v-10.049c0-6.0563-5.0136-10.967-11.199-10.967h-36.418l-16.154-15.84h-37.029z" style="fill:#f39619"/>
 <path class="st1" d="m33.676 63.896a14.199 16.045 0 0 0-12.184 7.9609l-16.068 31.125c-2.0706 4.0111 0.49021 9.0469 4.5996 9.0469h48.029v-48.133h-24.295a14.199 16.045 0 0 0-0.082031 0zm72.777 0 17.111 10.863 0.21289 0.13281 0.00782 0.00586c0.60419 0.38189 1.134 0.82592 1.627 1.2969l1.6777-3.25c2.0708-4.0112-0.48815-9.0488-4.5976-9.0488h-16.039zm6.7031 36.039-19.061 12.094h4.6621a14.198 16.044 0 0 0 12.264-7.959l2.1348-4.1348z"/>
 <path class="st2" d="m68.289 48.121c-0.58424-0.012503-1.1777 0.12124-1.7012 0.40039-1.047 0.55829-1.875 1.4831-1.875 3.6055v63.82c0 1.7539 0.82745 2.9246 1.8691 3.5566 1.0417 0.63205 2.1442 0.73898 3.3535-0.03125l0.001953-0.00196 50.279-31.906h0.00195c2.3968-1.5163 2.4113-5.5137 0.00781-7.0352l-0.0039-0.003906-50.283-31.922c-0.49081-0.31144-1.0661-0.46992-1.6504-0.48242z"/>
 <path class="st3" d="m68.48 41.453c-1.7377-0.04454-3.4742 0.36432-5.0254 1.1914-3.1023 1.6542-5.4023 5.1936-5.4023 9.4824v63.82c0 3.9978 2.0773 7.4337 5.0742 9.252 2.9951 1.8171 7.0634 2.004 10.381-0.10547l0.0059-4e-3 50.268-31.896 4e-3 -0.0039c6.5639-4.1577 6.5798-14.132 0-18.291l-8e-3 -0.0059-0.21289-0.13281-50.057-31.779c-1.5517-0.9846-3.2897-1.4828-5.0273-1.5273zm-0.19141 6.668c0.58424 0.0125 1.1596 0.17098 1.6504 0.48242l50.283 31.922 4e-3 0.0039c2.4034 1.5214 2.3888 5.5189-8e-3 7.0352h-2e-3l-50.279 31.906-2e-3 2e-3c-1.2094 0.77023-2.3118 0.66325-3.3535 0.0312-1.0417-0.63201-1.8691-1.8028-1.8691-3.5566v-63.82c0-2.1224 0.82796-3.0472 1.875-3.6055 0.52352-0.27915 1.1169-0.41289 1.7012-0.40039z"/></g>
</svg>
