<svg width="128" height="128" version="1.0" viewBox="0 0 128 128" xmlns="http://www.w3.org/2000/svg"><style type="text/css">.st0{fill:#FFFFFF;}.st1{fill:#F39619;}.st2{fill:#348619;stroke-width:8.0526;stroke:#fff;}</style><rect class="st0" x=".27119" width="128" height="128"/><path d="m32.895 60.119c-12.197 0.15968-21.642 5.7339-24.895 7.8574v52.023h50.576v-51.361c-9.0838-6.5338-17.937-8.6209-25.682-8.5195z"/><path d="m120 56.307c-2.7762 2.9513-25.505 22.874-51.119 16.943v46.75h51.119v-63.693z"/><path class="st1" d="m64.283 59.2c26.82 9.9765 55.717-23.718 55.717-23.718v-27.482h-112v52.706c20.02-12.612 30.03-11.294 56.283-1.5059z"/><path class="st2" d="m127.94 76.771-62.989-37.239c-5.1179-3.0242-12.956-0.08949-12.956 7.3905v74.459c0 6.7105 7.2831 10.755 12.956 7.3904l62.989-37.221c5.6189-3.3105 5.6368-11.47 0-14.781z"/></svg>
