<?xml version="1.0" encoding="UTF-8" standalone="no"?>
<svg
   xmlns:dc="http://purl.org/dc/elements/1.1/"
   xmlns:cc="http://creativecommons.org/ns#"
   xmlns:rdf="http://www.w3.org/1999/02/22-rdf-syntax-ns#"
   xmlns:svg="http://www.w3.org/2000/svg"
   xmlns="http://www.w3.org/2000/svg"
   viewBox="0 0 448 512"
   version="1.1"
   id="svg3740">
  <metadata
     id="metadata3746">
    <rdf:RDF>
      <cc:Work
         rdf:about="">
        <dc:format>image/svg+xml</dc:format>
        <dc:type
           rdf:resource="http://purl.org/dc/dcmitype/StillImage" />
        <dc:title></dc:title>
        <cc:license
           rdf:resource="" />
      </cc:Work>
    </rdf:RDF>
  </metadata>
  <defs
     id="defs3744" />
  <g
     id="g3881">
    <path
       id="path3738"
       d="M 166.54688,0 C 108.44706,0 0,13.978264 0,71.376953 V 309.30273 c 0,42.56246 59.507654,61.20803 113.92188,68.03125 V 353.52344 C 61.146014,346.52114 23.792969,329.32957 23.792969,309.30273 v -31.59961 c 20.912937,14.70243 53.668199,24.04265 90.128911,28.5 V 282.14648 C 61.145941,275.1442 23.792969,257.95264 23.792969,237.92578 v -31.59961 c 20.912937,14.70243 53.668199,24.04265 90.128911,28.5 V 210.76758 C 61.146014,203.76529 23.792969,186.57372 23.792969,166.54688 v -31.59961 c 24.495757,17.22125 65.238615,27.08347 109.154301,30.35937 12.42213,-10.08252 29.86233,-17.4991 49.10351,-22.83789 -5.0944,0.18414 -10.26359,0.28711 -15.5039,0.28711 -78.812692,0 -142.753911,-21.377 -142.753911,-47.585938 V 71.376953 c 0,-26.208938 63.941219,-47.583984 142.753911,-47.583984 78.8127,0 142.75585,21.375046 142.75585,47.583984 v 23.792969 c 0,14.121448 -18.58298,26.832808 -48.0332,35.560548 6.80482,-0.32207 13.27342,-0.47656 19.19922,-0.47656 15.04942,0 33.52669,0.95055 52.62695,3.3457 V 71.376953 C 333.0957,13.874916 224.46975,0 166.54688,0 Z"
       style="stroke-width:0.74351597" />
  </g>
  <path
     d="m 279.65644,154.21316 c 78.8127,0 142.75507,21.37608 142.75507,47.58502 v 23.79251 c 0,26.20894 -63.94237,47.58502 -142.75507,47.58502 -78.81269,0 -142.75506,-21.37608 -142.75506,-47.58502 v -23.79251 c 0,-26.20894 63.94237,-47.58502 142.75506,-47.58502 M 422.41151,265.3688 v 31.59942 c 0,26.20894 -63.94237,47.58502 -142.75507,47.58502 -78.81269,0 -142.75506,-21.37608 -142.75506,-47.58502 V 265.3688 c 30.67003,21.56196 86.80549,31.59942 142.75506,31.59942 55.94958,0 112.08429,-10.03746 142.75507,-31.59942 m 0,71.37753 v 31.59943 c 0,26.20893 -63.94237,47.58502 -142.75507,47.58502 -78.81269,0 -142.75506,-21.37609 -142.75506,-47.58502 v -31.59943 c 30.67003,21.56196 86.80549,31.59943 142.75506,31.59943 55.94958,0 112.08429,-10.03747 142.75507,-31.59943 m 0,71.37753 v 31.59943 c 0,26.20893 -63.94237,47.58502 -142.75507,47.58502 -78.81269,0 -142.75506,-21.37609 -142.75506,-47.58502 v -31.59943 c 30.67003,21.56196 86.80549,31.59943 142.75506,31.59943 55.94958,0 112.08429,-10.03747 142.75507,-31.59943 M 279.65644,130.42065 c -58.09982,0 -166.54757,13.97884 -166.54757,71.37753 v 237.92511 c 0,57.50203 108.62471,71.37753 166.54757,71.37753 58.09983,0 166.54758,-13.97884 166.54758,-71.37753 V 201.79818 c 0,-57.50204 -108.62471,-71.37753 -166.54758,-71.37753 z"
     id="path3738-4-1"
     style="stroke-width:0.74351597" />
</svg>
