<svg width="128" height="128" version="1.1" viewBox="0 0 128 128" xmlns="http://www.w3.org/2000/svg"><style type="text/css">.Line{fill:#000000;}</style><path class="Line" d="m127.43 68.864-10.095-41.72c-1.1939-4.7822-4.354-8.8877-8.6746-11.258-4.3206-2.3656-9.4668-2.8405-14.16-1.2804l-5.0707 1.691c-0.92982 0.31068-1.4336 1.316-1.1229 2.2458l1.1229 3.3687c0.31068 0.92982 1.316 1.4336 2.2458 1.1229l4.8355-1.6133c2.2413-0.74785 4.6957-0.87656 6.9304-0.10652 3.5839 1.2338 6.1182 4.0211 6.9925 7.5096l9.0119 38.045c-4.9598-1.6932-11.815-3.342-19.877-3.342-8.2863 0-17.811 1.7753-27.739 6.9859h-15.825c-9.9284-5.2105-19.453-6.9881-27.739-6.9859-8.0621 0-14.917 1.651-19.879 3.3442l9.0031-38.001c0.74563-2.9825 2.6607-5.4236 5.3903-6.8571 2.7162-1.4269 5.965-1.4447 8.8743-0.4749l4.5004 1.5024c0.92982 0.31068 1.9351-0.19306 2.2458-1.1229l1.1229-3.3687c0.31068-0.92982-0.19307-1.9351-1.1229-2.2458l-5.0707-1.6888c-4.6802-1.5667-9.833-1.0985-14.16 1.276-4.3162 2.37-7.4785 6.4755-8.6791 11.298l-10.086 41.675c-0.2663 1.094-0.39945 2.2147-0.39945 3.342v16.342c0 13.57 11.127 24.57 24.854 24.57h8.0067c13.006 0 23.811-9.9129 24.786-22.733l0.96976-12.773h10.59l0.96976 12.773c0.97198 12.822 11.779 22.733 24.786 22.733h8.0067c13.728 0 24.854-11 24.854-24.57v-16.344c0-1.1251-0.13315-2.2458-0.39722-3.3398zm-76.86 20.984c-0.68793 9.0674-8.4638 16.169-17.704 16.169h-8.0067c-9.7886 0-17.753-7.8358-17.753-17.469v-13.603c4.1698-1.7687 11.808-4.3184 21.164-4.3184 8.0666 0 15.898 1.873 23.336 5.5767zm70.156-1.3004c0 9.6333-7.9645 17.469-17.753 17.469h-8.0067c-9.2383 0-17.016-7.1012-17.704-16.169l-1.0363-13.645c7.4408-3.7015 15.274-5.5767 23.343-5.5767 9.3559 0 16.99 2.5498 21.157 4.3184z"/></svg>
