<svg width="128" height="128" version="1.1" viewBox="0 0 128 128" xmlns="http://www.w3.org/2000/svg"><path d="m90.363 3.8111c-2.2445-2.2445-5.2871-3.5164-8.4544-3.5164h-35.688c-3.1673 0-6.2098 1.2719-8.4544 3.5164l-34.042 34.017c-2.2445 2.2445-3.5164 5.2871-3.5164 8.4544v35.688c0 3.1673 1.2719 6.2098 3.5164 8.4544l34.042 34.042c2.2445 2.2445 5.2871 3.5164 8.4544 3.5164h35.688c3.1673 0 6.2098-1.2719 8.4544-3.5164l34.042-34.042c2.2445-2.2445 3.5164-5.2871 3.5164-8.4544v-35.663c0-3.1673-1.2719-6.2098-3.5164-8.4544zm29.553 78.159c0 1.0724-0.42395 2.0699-1.1721 2.8181l-34.017 34.042c-0.74817 0.74818-1.7457 1.1721-2.8181 1.1721h-35.688c-1.0724 0-2.0699-0.42396-2.8181-1.1721l-34.042-34.017c-0.74817-0.74817-1.1721-1.7457-1.1721-2.8181v-35.688c0-1.0724 0.42396-2.0699 1.1721-2.8181l34.017-34.042c0.74817-0.74817 1.7457-1.1721 2.8181-1.1721h35.688c1.0724 0 2.0699 0.42396 2.8181 1.1721l34.042 34.042c0.74818 0.74817 1.1721 1.7457 1.1721 2.8181z" style="stroke-width:.24939"/><text x="14.573591" y="86.196808" style="fill:#000000;font-family:Arial;font-size:40px;letter-spacing:0px;line-height:1.25;word-spacing:0px" xml:space="preserve"><tspan x="14.573591" y="122.69002"/></text><g transform="matrix(.82153 0 0 1.235 -.21639 0)" aria-label="STOP"><path d="m45.149 60.05q0 2.0326-0.95791 4.0186-0.93455 1.9859-2.6401 3.3644-1.8691 1.4953-4.369 2.3364-2.4766 0.84109-5.9811 0.84109-3.7616 0-6.7755-0.70091-2.9906-0.70091-6.0979-2.0794v-5.7942h0.32709q2.6401 2.1962 6.0979 3.3877 3.4578 1.1915 6.4951 1.1915 4.2989 0 6.682-1.6121 2.4065-1.6121 2.4065-4.2989 0-2.313-1.1448-3.4111-1.1215-1.0981-3.4345-1.7056-1.7523-0.46727-3.8083-0.771-2.0326-0.30373-4.3223-0.771-4.626-0.98128-6.8689-3.341-2.2196-2.3831-2.2196-6.1914 0-4.369 3.6915-7.1493 3.6915-2.8036 9.3689-2.8036 3.6681 0 6.7288 0.70091 3.0606 0.70091 5.4204 1.7289v5.4671h-0.32709q-1.9859-1.6822-5.2335-2.7803-3.2242-1.1215-6.6119-1.1215-3.7148 0-5.9811 1.542-2.2429 1.542-2.2429 3.9718 0 2.1728 1.1215 3.4111 1.1215 1.2383 3.9485 1.8925 1.4953 0.32709 4.2522 0.79437 2.7569 0.46728 4.6727 0.95791 3.8784 1.028 5.8409 3.1074 1.9626 2.0794 1.9626 5.8176z" style="stroke-width:1.3291"/><path d="m77.391 39.303h-12.429v30.677h-4.626v-30.677h-12.429v-4.112h29.485z" style="stroke-width:1.3291"/><path d="m106.22 39.186c1.4174 1.5576 2.4999 3.4656 3.2476 5.7241 0.76322 2.2585 1.1448 4.8207 1.1448 7.6867s-0.3894 5.436-1.1682 7.71c-0.76321 2.2585-1.8379 4.1432-3.2242 5.654-1.433 1.5732-3.1307 2.7569-5.0933 3.5513-1.947 0.79437-4.1743 1.1916-6.682 1.1916-2.4454 0-4.6727-0.40497-6.682-1.2149-1.9937-0.80994-3.6915-1.9859-5.0933-3.5279s-2.4843-3.4345-3.2476-5.6774c-0.74764-2.2429-1.1215-4.8051-1.1215-7.6867 0-2.8348 0.37382-5.3737 1.1215-7.6166 0.74764-2.2585 1.8379-4.1899 3.2709-5.7942 1.3707-1.5264 3.0684-2.6946 5.0933-3.5046 2.0404-0.80994 4.26-1.2149 6.6587-1.2149 2.4921 0 4.7273 0.41276 6.7054 1.2383 1.9937 0.80994 3.6837 1.9703 5.0699 3.4812zm-0.42055 13.411c0-4.517-1.0124-7.9982-3.0373-10.444-2.0249-2.461-4.7896-3.6915-8.2941-3.6915-3.5357 0-6.316 1.2305-8.3408 3.6915-2.0093 2.4454-3.0139 5.9266-3.0139 10.444 0 4.5637 1.028 8.0605 3.084 10.49 2.056 2.4143 4.8129 3.6214 8.2708 3.6214 3.4578 0 6.207-1.2071 8.2474-3.6214 2.056-2.4298 3.084-5.9266 3.084-10.49z" style="stroke-width:1.3291"/><path d="m141.31 45.704c0 1.542-0.31729 2.975-0.95188 4.2989-0.61644 1.3084-1.4867 2.4454-2.6108 3.4111-1.3961 1.1993-3.046 2.1027-4.9498 2.7102-1.9038 0.59188-4.3061 0.88782-7.2071 0.88782h-4.7448v12.967h-4.626v-34.789h9.5884c2.4296 0 4.4874 0.17912 6.1736 0.53737 1.6862 0.34267 3.182 0.88782 4.4874 1.6355 1.5411 0.88782 2.7287 1.9937 3.5627 3.3176 0.85216 1.3239 1.2782 2.9983 1.2782 5.0232zm-5.6025 0.11682c0-1.1993-0.24477-2.2429-0.73431-3.1307-0.48953-0.88782-1.2329-1.6121-2.2301-2.1728-0.87029-0.48285-1.8675-0.82552-2.9916-1.028-1.106-0.21806-2.5111-0.32709-4.2154-0.32709h-4.6904v13.901h3.9017c2.1757 0 3.9435-0.16355 5.3033-0.49064 1.3598-0.34267 2.4658-0.88003 3.318-1.6121 0.85215-0.74764 1.4505-1.5342 1.795-2.3597 0.36263-0.82552 0.54394-1.7523 0.54394-2.7803z" style="stroke-width:1.3291"/></g></svg>
