<svg width="128" height="128" version="1.1" viewBox="0 0 128 128" xmlns="http://www.w3.org/2000/svg"><style type="text/css">.Line{fill:#000000;}</style><path class="Line" d="m74.08 94.697-17.566 17.564c-11.262 11.267-29.507 11.273-40.775 0-11.267-11.262-11.273-29.507 0-40.775l17.564-17.566a29.462 29.462 0 0 1 0.78338-0.75477c1.6746-1.5537 4.3905-0.44448 4.4821 1.8378 0.04281 1.0662 0.13264 2.1308 0.2697 3.1903 0.10668 0.82442-0.16546 1.6517-0.75344 2.2393-3.6552 3.6528-16.666 16.663-16.701 16.698-8.1484 8.153-8.1468 21.334 0 29.486 8.153 8.1484 21.334 8.1468 29.486 0l17.646-17.646c8.0514-8.1337 8.0157-21.308-0.08206-29.406-1.8218-1.8218-3.8985-3.2338-6.1183-4.2383-1.0127-0.45823-1.6471-1.4787-1.5823-2.5884a13.795 13.795 0 0 1 0.6268-3.3844c0.46644-1.4641 2.1139-2.2093 3.5308-1.6147 3.3431 1.4026 6.4736 3.4645 9.1901 6.181 11.242 11.243 11.24 29.537 0 40.777zm-20.027-20.75c2.7166 2.7166 5.847 4.7784 9.1901 6.181 1.4168 0.59441 3.0643-0.15082 3.5308-1.6147a13.795 13.795 0 0 0 0.6268-3.3844c0.06477-1.1096-0.5698-2.1301-1.5823-2.5884-2.2197-1.0043-4.2964-2.4162-6.1183-4.2383-8.0978-8.0978-8.1335-21.272-0.08207-29.406l17.646-17.646c8.1515-8.1468 21.333-8.1484 29.486 0 8.1468 8.1515 8.1484 21.333 0 29.486-0.0348 0.03482-13.046 13.045-16.701 16.698-0.58798 0.58776-0.86013 1.4148-0.75344 2.2393a36.187 36.187 0 0 1 0.2697 3.1903c0.0916 2.2825 2.8077 3.3915 4.4821 1.8378a29.127 29.127 0 0 0 0.78338-0.75477l17.564-17.566c11.273-11.268 11.267-29.513 0-40.775-11.268-11.273-29.513-11.267-40.775 0l-17.566 17.564c-11.24 11.241-11.242 29.535 0 40.777z"/></svg>
