<svg xmlns="http://www.w3.org/2000/svg" viewBox="0 0 512 512">
<style type="text/css">
   .Invers{fill:#999999;}
</style>
<path class="Invers" d="M32 160h450c6.627 0 12-5.373 12-12v-40c0-6.627-5.373-12-12-12h-450c-6.627 0-12 5.373-12 12v40c0 6.627 5.373 12 12 12zM32 288h450c6.627 0 12-5.373 12-12v-40c0-6.627-5.373-12-12-12h-450c-6.627 0-12 5.373-12 12v40c0 6.627 5.373 12 12 12zM32 416h450c6.627 0 12-5.373 12-12v-40c0-6.627-5.373-12-12-12h-450c-6.627 0-12 5.373-12 12v40c0 6.627 5.373 12 12 12z"/></svg>