<svg width="128" height="128" version="1.1" viewBox="0 0 128 128" xmlns="http://www.w3.org/2000/svg"><style type="text/css">.Invers{fill:#000000;}</style><path class="Invers" d="m10.942 39.222h106.15c1.5632 0 2.8307-1.2674 2.8307-2.8307v-9.4357c0-1.5633-1.2674-2.8307-2.8307-2.8307h-106.15c-1.5633 0-2.8307 1.2674-2.8307 2.8307v9.4357c0 1.5633 1.2674 2.8307 2.8307 2.8307zm0 32.194h106.15c1.5632 0 2.8307-1.2674 2.8307-2.8307v-9.4357c0-1.5633-1.2674-2.8307-2.8307-2.8307h-106.15c-1.5633 0-2.8307 1.2674-2.8307 2.8307v9.4357c0 1.5633 1.2674 2.8307 2.8307 2.8307zm0 31.811h106.15c1.5632 0 2.8307-1.2674 2.8307-2.8307v-9.4357c0-1.5633-1.2674-2.8307-2.8307-2.8307h-106.15c-1.5633 0-2.8307 1.2674-2.8307 2.8307v9.4357c0 1.5633 1.2674 2.8307 2.8307 2.8307z" style="stroke-width:.23589"/></svg>
