<svg width="128" height="128" version="1.1" viewBox="0 0 128 128" xmlns="http://www.w3.org/2000/svg"><style type="text/css">.Line{fill:#000000;}</style><path class="Line" d="m10.942 32.205h106.15c1.5632 0 2.8307-1.2674 2.8307-2.8307v-2.4188c0-1.5633-1.2674-2.8307-2.8307-2.8307h-106.15c-1.5633 0-2.8307 1.2674-2.8307 2.8307v2.4188c0 1.5633 1.2674 2.8307 2.8307 2.8307zm0 32.025h106.15c1.5632 0 2.8307-1.2674 2.8307-2.8307v-2.2493c0-1.5633-1.2674-2.8307-2.8307-2.8307h-106.15c-1.5633 0-2.8307 1.2674-2.8307 2.8307v2.2493c0 1.5633 1.2674 2.8307 2.8307 2.8307zm0 32.082h106.15c1.5632 0 2.8307-1.2674 2.8307-2.8307v-2.5204c0-1.5633-1.2674-2.8307-2.8307-2.8307h-106.15c-1.5633 0-2.8307 1.2674-2.8307 2.8307v2.5204c0 1.5633 1.2674 2.8307 2.8307 2.8307z"/></svg>
