<svg version="1.1" viewBox="0 0 128 128" xmlns="http://www.w3.org/2000/svg"><rect transform="matrix(.86 .51 -.86 .51 0 0)" x="78" y="8.8" width="79" height="78" fill="#fff" stroke-width="1.1"/><rect transform="matrix(.87 .5 -.87 .5 0 0)" x="87" y="18" width="64" height="64"/><rect transform="matrix(.86 .51 -.86 .51 0 0)" x="38" y="-31" width="79" height="78" fill="#fff" stroke-width="1.1"/><rect transform="matrix(.87 .5 -.87 .5 0 0)" x="47" y="-22" width="64" height="64" fill="#f39619" stroke-width="1.1"/><path d="m80 64v64l24 2e-5v-16h8v16h16v-64l-16 0.0085v8l-8-0.012v-8z" fill="#fff"/><path d="m88 72v56l8 2e-5v-24h24v24h8v-56h-8v24h-24v-24z"/></svg>
