<svg version="1.1" viewBox="0 0 128 128" xmlns="http://www.w3.org/2000/svg"><rect transform="matrix(.86 .51 -.86 .51 0 0)" x="75" y="4.5" width="70" height="69" fill="#fff"/><rect transform="matrix(.86 .51 -.86 .51 0 0)" x="80" y="10" width="58" height="58"/><rect transform="matrix(.86 .51 -.86 .51 0 0)" x="43" y="-27" width="70" height="69" fill="#fff"/><rect transform="matrix(.86 .51 -.86 .51 0 0)" x="49" y="-21" width="58" height="58" fill="#F39619"/><g transform="translate(0,32)"><path d="m90 18c-2.4-0.056-5.1 0.71-6.7 2.1-4.2 3.6-3.4 6.7-3.4 6.7l-0.035 0.37v12h-3.9c-6.7 0-12 6.1-12 12v16c0 3.8 1.8 6.7 3.9 8.6 2.1 1.9 4.7 3.3 8.2 3.3h3.9v13l0.22 0.92s0.11 3.3 4.2 6c2 1.3 5.4 1.9 7.8 1.2s4-1.9 5.4-3.3c3-2.9 20-20 28-28l-0.16 0.16c3-2.8 5-7.3 4.5-11-0.47-4-2.6-6.6-4.2-8.3l-0.035-0.037-0.037-0.037c-8-8-25-25-28-28-1.4-1.5-2.9-2.8-5.4-3.6-0.64-0.21-1.4-0.32-2.2-0.34zm5.9 11c0.074 0.14 0.16 0.31 0 0.85z" color="#000000" color-rendering="auto" dominant-baseline="auto" fill="#fff" image-rendering="auto" shape-rendering="auto" solid-color="#000000" style="font-feature-settings:normal;font-variant-alternates:normal;font-variant-caps:normal;font-variant-ligatures:normal;font-variant-numeric:normal;font-variant-position:normal;isolation:auto;mix-blend-mode:normal;shape-padding:0;text-decoration-color:#000000;text-decoration-line:none;text-decoration-style:solid;text-indent:0;text-orientation:mixed;text-transform:none;white-space:normal"/><path d="m120 56c-8-8-25-25-28-28-3.7-3.8-4 0-4 0v20h-12c-2.4 0-4.1 1.9-4.1 4.2v16c0 2.1 2.2 3.9 4.1 3.9h12v20s0.75 3.1 4 0c2.5-2.4 20-20 28-28 3.4-3.3 2.1-6.1 0.055-8.2z" fill="#010101"/></g></svg>
