<svg version="1.1" viewBox="0 0 128 128" xmlns="http://www.w3.org/2000/svg"><rect transform="matrix(.86 .51 -.86 .51 0 0)" x="78" y="8.8" width="79" height="78" fill="#fff" stroke-width="1.1"/><rect transform="matrix(.87 .5 -.87 .5 0 0)" x="87" y="18" width="64" height="64"/><rect transform="matrix(.86 .51 -.86 .51 0 0)" x="38" y="-31" width="79" height="78" fill="#fff" stroke-width="1.1"/><rect transform="matrix(.87 .5 -.87 .5 0 0)" x="47" y="-22" width="64" height="64" fill="#f39619" stroke-width="1.1"/><g transform="translate(.24 .087)" aria-label="C"><path d="m112 62c-4.7 0-9.3 0.84-14 2.6l-0.012 0.0059-0.012 0.0039c-4.2 1.8-8 4.5-11 8-3.1 3.6-5.4 7.8-6.8 12-1.5 4.7-2.2 9.7-2.2 15 0 5.5 0.67 11 2.2 15l2e-3 0.01 0.0039 0.01c1.5 4.6 3.8 8.8 6.9 12 3.1 3.4 6.9 6.1 11 7.8l0.094 0.035c4.1 1.6 8.6 2.3 13 2.3 2.4 0 4.8-0.22 7.2-0.74 1.9-0.39 3.7-0.87 5.5-1.5l0.037-0.014 0.039-0.012c1.9-0.66 3.5-1.3 5.1-2.2l-0.082 0.043c0.87-0.46 1.9-0.96 3-1.5l5.6-2.7v-26h-14l-2.9 2.8c-1.5 1.4-2.8 2.2-4.2 2.8-1.3 0.55-2.7 0.84-4.4 0.84-0.92 0-1.6-0.15-2.4-0.43-0.48-0.2-0.83-0.42-1.3-0.96-0.33-0.37-0.88-1.2-1.4-2.7-0.38-1.1-0.72-2.9-0.72-5.5 0-2.5 0.3-4.3 0.71-5.6 0.47-1.4 0.97-2.2 1.3-2.7 0.59-0.67 0.96-0.89 1.3-1l0.055-0.023c0.49-0.21 1.2-0.39 2.3-0.39 1.6 0 2.9 0.27 4.2 0.79 1.2 0.5 2.8 1.5 4.7 3.1l2.8 2.5h14v-26l-5.1-2.9c-3.7-2.1-7.2-3.1-11-4.1l-8e-3 0.094c-3.4-0.92-6.4-0.74-9.5-0.74z" color="#000000" color-rendering="auto" dominant-baseline="auto" fill="#fafafa" image-rendering="auto" shape-rendering="auto" solid-color="#000000" style="font-feature-settings:normal;font-variant-alternates:normal;font-variant-caps:normal;font-variant-ligatures:normal;font-variant-numeric:normal;font-variant-position:normal;isolation:auto;mix-blend-mode:normal;shape-padding:0;text-decoration-color:#000000;text-decoration-line:none;text-decoration-style:solid;text-indent:0;text-orientation:mixed;text-transform:none;white-space:normal"/><path d="m128 123c-1.2 0.58-2.3 1.1-3.2 1.6-0.95 0.51-2.2 1-3.8 1.6-1.3 0.46-2.7 0.85-4.3 1.2-1.5 0.34-3.2 0.51-5.1 0.51-3.5 0-6.7-0.54-9.5-1.6-2.8-1.1-5.3-2.8-7.4-5.2-2.1-2.3-3.7-5.2-4.8-8.7-1.2-3.6-1.7-7.7-1.7-12 0-4.4 0.56-8.4 1.7-12 1.1-3.5 2.7-6.5 4.8-8.9 2-2.3 4.5-4.1 7.4-5.4 2.9-1.2 6.1-1.8 9.7-1.8 2.6 0 5.2 0.35 7.7 1.1 2.6 0.7 5.5 1.9 8.6 3.7v10h-0.46c-2.5-2.2-5-3.9-7.5-4.9s-5.2-1.5-8-1.5c-2.3 0-4.4 0.4-6.3 1.2-1.9 0.78-3.5 2-5 3.7-1.4 1.6-2.5 3.7-3.3 6.2-0.78 2.5-1.2 5.3-1.2 8.6 0 3.4 0.43 6.4 1.3 8.8 0.88 2.5 2 4.5 3.4 6 1.4 1.6 3.1 2.8 5 3.6 1.9 0.76 4 1.1 6.1 1.1 2.9 0 5.7-0.53 8.3-1.6 2.6-1.1 5-2.7 7.2-4.8h0.43z" stroke-width="1.9"/></g></svg>
