<svg version="1.1" viewBox="0 0 128 128" xmlns="http://www.w3.org/2000/svg"><rect transform="matrix(.86 .51 -.86 .51 0 0)" x="78" y="8.8" width="79" height="78" fill="#fff" stroke-width="1.1"/><rect transform="matrix(.87 .5 -.87 .5 0 0)" x="87" y="18" width="64" height="64"/><rect transform="matrix(.86 .51 -.86 .51 0 0)" x="38" y="-31" width="79" height="78" fill="#fff" stroke-width="1.1"/><rect transform="matrix(.87 .5 -.87 .5 0 0)" x="47" y="-22" width="64" height="64" fill="#f39619" stroke-width="1.1"/><g aria-label="B"><path d="m80 64v72h31c6.5-0.012 13-2.1 17-6.4 4.6-4.2 7.4-11 7.4-17 0-5.5-1.7-11-4.9-15-1.1-1.5-2.5-2.9-4-4.1 0.44-1.5 0.75-3.1 0.8-4.9 0.36-12-9.5-24-23-24z" color="#000000" color-rendering="auto" dominant-baseline="auto" fill="#fff" image-rendering="auto" shape-rendering="auto" solid-color="#000000" style="font-feature-settings:normal;font-variant-alternates:normal;font-variant-caps:normal;font-variant-ligatures:normal;font-variant-numeric:normal;font-variant-position:normal;isolation:auto;mix-blend-mode:normal;shape-padding:0;text-decoration-color:#000000;text-decoration-line:none;text-decoration-style:solid;text-indent:0;text-orientation:mixed;text-transform:none;white-space:normal"/><path d="m127 113c0 9.7-6.5 15-16 15h-23v-56h16c9.8 0 16 7.7 15 16-0.12 5.3-2.3 7.4-3.7 8.6 6.8 0.75 12 8.2 12 16zm-15-25c-0.028-4.5-2.9-8.2-7.5-8.2h-8.7v16h9c4.6-0.38 7.1-4.3 7.2-7.8zm8.1 24c-0.23-4.9-3.9-7.9-9.4-7.8h-15v16h15c5.3-0.055 9.6-2.3 9.4-8.2z" stroke-width="1.9"/></g></svg>
