<svg version="1.1" viewBox="0 0 128 128" xmlns="http://www.w3.org/2000/svg"><rect transform="matrix(.86 .51 -.86 .51 0 0)" x="78" y="8.8" width="79" height="78" fill="#fff" stroke-width="1.1"/><rect transform="matrix(.87 .5 -.87 .5 0 0)" x="87" y="18" width="64" height="64"/><rect transform="matrix(.86 .51 -.86 .51 0 0)" x="38" y="-31" width="79" height="78" fill="#fff" stroke-width="1.1"/><rect transform="matrix(.87 .5 -.87 .5 0 0)" x="47" y="-22" width="64" height="64" fill="#f39619" stroke-width="1.1"/><g transform="matrix(.87 0 0 .89 20 38)"><path d="m90 20c-2.4-0.056-5.1 0.71-6.7 2.1-4.2 3.6-3.4 6.7-3.4 6.7l-0.035 0.37v3h-7.5c-6.7 0-12 13-12 19v16c0 3.8 1.8 13 3.9 15s4.9 4.3 8.2 3.3h7.5v6.3l0.22 0.92s0.11 3.3 4.2 6c2 1.3 5.4 1.9 7.8 1.2s4-1.9 5.4-3.3c3-2.9 20-20 28-28l-0.16 0.16c3-2.8 5-7.3 4.5-11-0.47-4-2.6-6.6-4.2-8.3l-0.035-0.037-0.037-0.037-28-26c-1.4-1.5-2.9-2.8-5.4-3.6-0.64-0.21-1.4-0.32-2.2-0.34zm5.9 8.8c0.074 0.14 0.16 0.31 0 0.85z" color="#000000" color-rendering="auto" dominant-baseline="auto" fill="#fff" image-rendering="auto" shape-rendering="auto" solid-color="#000000" style="font-feature-settings:normal;font-variant-alternates:normal;font-variant-caps:normal;font-variant-ligatures:normal;font-variant-numeric:normal;font-variant-position:normal;isolation:auto;mix-blend-mode:normal;shape-padding:0;text-decoration-color:#000000;text-decoration-line:none;text-decoration-style:solid;text-indent:0;text-orientation:mixed;text-transform:none;white-space:normal"/><path d="m120 56-28-28c-3.7-3.8-4 0-4 0v19h-14c-2.4 0-4.1 1.9-4.1 4.2v19c0 2.1 2.2 3.9 4.1 3.9h14v18s0.75 3.1 4 0c2.5-2.4 20-20 28-28 3.4-3.3 2.1-6.1 0.055-8.2z" fill="#010101"/></g></svg>
