<svg version="1.1" viewBox="0 0 128 128" xmlns="http://www.w3.org/2000/svg"><path d="m61 41-59 35 60 36 43-25v-20l-43-26zm51 30v10l8.8-5.2-8.8-5.2z" fill="#fff" stroke-width=".94"/><path d="m60 46-50 30 50 30 44-26v-7.2l-44-26z" stroke-width=".94"/><rect transform="matrix(.86 .51 -.86 .51 0 0)" x="43" y="-27" width="70" height="69" fill="#fff"/><rect transform="matrix(.86 .51 -.86 .51 0 0)" x="49" y="-21" width="58" height="58" fill="#F39619"/><path d="m80 64v64h24v-16h8v16h16v-64h-16v24h-8v-24h-24z" fill="#fff"/><path d="m88 72v56h8.1v-24h24v24h8v-56h-8v24h-24v-24z"/></svg>
