<?xml version="1.0" encoding="utf-8"?>
<svg width="1792" height="1792" viewBox="0 0 1792 1792" xmlns="http://www.w3.org/2000/svg">
<style type="text/css">
   .grey{fill:#696969;}
   .darkgrey{fill:#555577}
</style>
<g transform="translate(0 -250)">
<path class="darkgrey" d="M1408 1216q0 26-19 45t-45 19h-896q-26 0-45-19t-19-45 19-45l448-448q19-19 45-19t45 19l448 448q19 19 19 45z"/>
</g>
<path class="darkgrey"  stroke="black" stroke-width="10" d="M1792 1344v128q0 26-19 45t-45 19h-1664q-26 0-45-19t-19-45v-128q0-26 19-45t45-19h1664q26 0 45 19t19 45z"/>
</svg>
