<?xml version="1.0" encoding="utf-8"?>
<svg width="1792" height="1792" viewBox="0 0 1792 1792" xmlns="http://www.w3.org/2000/svg">
<style type="text/css">
   .grey{fill:#696969;}
   .darkgrey{fill:#555577}
</style>
<g transform="translate(0 -1000)">
<path class="darkgrey"  stroke="black" stroke-width="10" d="M1792 1344v128q0 26-19 45t-45 19h-1664q-26 0-45-19t-19-45v-128q0-26 19-45t45-19h1664q26 0 45 19t19 45z"/>
</g>
<g transform="translate(0 200)">
<path class="darkgrey" d="M1408 704q0 26-19 45l-448 448q-19 19-45 19t-45-19l-448-448q-19-19-19-45t19-45 45-19h896q26 0 45 19t19 45z"/>
</g>
</svg>
