<svg xmlns="http://www.w3.org/2000/svg" viewBox="0 0 43.5 46.5"><defs><style>.cls-1{fill:url(#l-g);}.cls-2{fill:#fff;}</style><linearGradient id="l-g" x1="22.73" y1="46.3" x2="22.73" y2="13.05" gradientUnits="userSpaceOnUse"><stop offset="0" stop-color="#0cf"/><stop offset="0.2" stop-color="#0af"/><stop offset="0.7" stop-color="#08f"/><stop offset="1" stop-color="#08f"/></linearGradient></defs><path class="cls-1" d="M33.36,46.3a.29.29,0,0,1-.3-.3V26.6a12.6,12.6,0,0,0-1.27-5.67A8.12,8.12,0,0,0,25,16.5a13.34,13.34,0,0,0-1.53-.09,11.9,11.9,0,0,0-8.14,3.11,9.79,9.79,0,0,0-3.2,7.28c0,6,0,12.2.1,18.29V46a.3.3,0,0,1-.3.3H8.46a.29.29,0,0,1-.3-.3V14.2a.29.29,0,0,1,.3-.3h2.9a.31.31,0,0,1,.3.29L11.82,19A15,15,0,0,1,20.9,13.4a17.45,17.45,0,0,1,3.4-.35A13.67,13.67,0,0,1,31,14.74a13.13,13.13,0,0,1,3.8,3.38A12.9,12.9,0,0,1,37.26,26c.06,4.33,0,8.75,0,13,0,2.19,0,4.38,0,6.59V46a.3.3,0,0,1-.3.3Z"/><path class="cls-2" d="M42.58,15.08a.34.34,0,0,1-.21-.14,24,24,0,0,0-41.28,0,.34.34,0,0,1-.21.14H.83A.33.33,0,0,1,.64,15l-.28-.23a.3.3,0,0,1-.08-.36C4.31,5.68,12.53.25,21.73.25S39.15,5.68,43.18,14.43a.28.28,0,0,1-.08.35l-.28.23a.28.28,0,0,1-.19.07Z"/></svg>