<svg version="1.1" viewBox="0 0 128 128" xmlns="http://www.w3.org/2000/svg"><style type="text/css">.Back{fill:#555577;}</style><path class="Back" d="m61.1 0a64.5 64.7 0 0 0-61 61.7l0.0195 7.58a64.5 64.7 0 0 0 58.6 59.9l10.8 0.0605a64.5 64.7 0 0 0 59.4-64.5 64.5 64.7 0 0 0-61.8-64.6l-6.02-0.139zm2.99 15.2c17.9 0 33.9 10.6 41.8 27.6a0.545 0.545 0 0 1-0.156 0.682l-0.545 0.447a0.545 0.545 0 0 1-0.369 0.137l-0.279-0.041a0.661 0.661 0 0 1-0.408-0.273 46.7 46.7 0 0 0-80.2 0 0.661 0.661 0 0 1-0.408 0.273h-0.0977a0.642 0.642 0 0 1-0.369-0.156l-0.545-0.447a0.584 0.584 0 0 1-0.156-0.701c7.84-17 23.8-27.6 41.8-27.6zm3.04 25.1a26.6 26.6 0 0 1 13 3.29 25.6 25.6 0 0 1 7.39 6.57 25.1 25.1 0 0 1 4.79 15.3c0.117 8.42 0 17 0 25.3v12.9 0.795a0.584 0.584 0 0 1-0.584 0.584l-7.02-0.0547a0.565 0.565 0 0 1-0.584-0.582v-37.7a24.5 24.5 0 0 0-2.47-11 15.8 15.8 0 0 0-13.2-8.65 26 26 0 0 0-2.98-0.176 23.2 23.2 0 0 0-15.9 6.05 19.1 19.1 0 0 0-6.22 14.1c0 11.7-0.00117 23.7 0.193 35.6v1.77a0.584 0.584 0 0 1-0.582 0.584h-6.76a0.565 0.565 0 0 1-0.584-0.584v-61.9a0.565 0.565 0 0 1 0.584-0.584h5.65a0.603 0.603 0 0 1 0.582 0.564l0.312 9.37a29.2 29.2 0 0 1 17.7-10.9 34 34 0 0 1 6.62-0.682z"/></svg>
