<svg width="180" height="90" version="1.1" viewBox="0 0 43.9 22.6" xmlns="http://www.w3.org/2000/svg">
 <defs>
  <linearGradient id="l-g-1" x1="0" y1="32" x2="0" y2="10" gradientUnits="userSpaceOnUse">
   <stop stop-color="#00d0f0" offset="0"/>
   <stop stop-color="#00a0f0" offset="0.2"/>
   <stop stop-color="#0080f0" offset="0.7"/>
   <stop stop-color="#0080f0" offset="1"/>
  </linearGradient>
  <linearGradient id="gBack" x1="102" x2="59.8" y1="26.6" y2="41.2" gradientTransform="translate(-58.2 -19.6)" gradientUnits="userSpaceOnUse">
   <stop stop-color="#3b5b67" offset="0"/>
   <stop stop-color="#202022" offset="1"/>
  </linearGradient>
  <linearGradient id="gNeon" x1="66.9" x2="66.9" y1="34.1" y2="-.138" gradientTransform="translate(-41.9,7.99)" gradientUnits="userSpaceOnUse">
   <stop stop-color="#00d0f0" offset="0"/>
   <stop stop-color="#0080f0" offset="1"/>
  </linearGradient>
  <style>.c-1{stroke:#000;stroke-width:0.2px;}</style>
  <style>.cls-1{fill:#fff;}</style>
 </defs>
 <path d="m-0.00377 0 0.0811 17.5c0 3.37 1.73 5.08 5.04 5.08l34.1 0.0945c2.99 0.0089 4.67-1.82 4.67-5.13l0.0147-17.5z" fill="url(#gBack)" fill-rule="evenodd"/>
 <g transform="matrix(.265 0 0 .265 17.8 5.4)" stroke="#000" stroke-width=".2px">
  <path class="c-1" d="m14.5 22.2v2.4h-23.2a24.5 24.5 0 0 0 0.2 2.7 12.6 12.6 0 0 0 1.65 5.4 12.2 12.2 0 0 0 8.9 6 24.2 24.2 0 0 0 13.3-1.6l0.9 2.5a18.6 18.6 0 0 1-5.7 1.6c-3.6 0.5-7.2 0.8-10.8-0.2-6.1-1.6-10.1-5.4-11.2-11.6-1-5.5-0.2-10.8 3.3-15.4a14.8 14.8 0 0 1 9.85-5.5 17.3 17.3 0 0 1 7.5 0.5c4.6 1.4 7.3 4.7 8.5 9.2a22.1 22.1 0 0 1 0.7 4h-3.9c0-1-0.1-2.1-0.2-3.1a9.28 9.28 0 0 0-2.3-4.9 11.4 11.4 0 0 0-7-3.4 12 12 0 0 0-11.8 6 13.8 13.8 0 0 0-1.7 5.3h1.3z" fill="url(#l-g-1)"/>
  <path class="c-1" d="m18.7 24.9h3.5a23.2 23.2 0 0 0 0.5 3.8 12.6 12.6 0 0 0 5.9 8.6 13.4 13.4 0 0 0 9.6 1.6 12.3 12.3 0 0 0 9.1-6.8 14.4 14.4 0 0 0 0.75-12.8c-1.6-4.1-4.5-7.1-9-8-4.2-0.9-8.3-0.4-11.8 2.3a13 13 0 0 0-4.5 7.9c0 0.2-0.1 0.4-0.1 0.6h-3.6a13.3 13.3 0 0 1 1.8-5.4c0.4-0.5 0.6-1.1 1-1.6a15.8 15.8 0 0 1 10.2-6.4c4.4-0.8 8.7-0.5 12.6 1.8a14.9 14.9 0 0 1 7.6 11 20.4 20.4 0 0 1-0.1 7.8 14.4 14.4 0 0 1-4.2 7.6 17.6 17.6 0 0 1-9.6 4.6c-4.8 0.7-9.2 0-13.2-2.9a16.3 16.3 0 0 1-3.6-3.8c-2.25-2.9-2.85-6.3-2.85-9.9z" fill="url(#l-g-1)"/>
  <path class="c-1" d="m-41.6 9.09h2.9l0.2 5.8a2.18 2.18 0 0 0 0.5-0.8 14.6 14.6 0 0 1 8.9-5.5 14.2 14.2 0 0 1 9.9 1.3 12.9 12.9 0 0 1 3.7 3.3 12.6 12.6 0 0 1 2.4 7.7c0.1 6.5 0 13 0 19.6v0.4h-3.6v-19.4a13 13 0 0 0-1.3-5.8 8.44 8.44 0 0 0-7-4.6 12.4 12.4 0 0 0-9.85 3.1 10.1 10.1 0 0 0-3.3 7.5c0 6.1 0 12.2 0.1 18.3v0.9h-3.55z" fill="url(#l-g-1)"/>
  <path class="c-1" d="m70.1 12.8a13 13 0 0 0-6.7-1.9 8 8 0 0 0-5 1.2c-2.3 1.6-3.3 3.6-2.4 6.1a4.53 4.53 0 0 0 2.3 2.6 60.3 60.3 0 0 0 5.8 2.6 23.4 23.4 0 0 1 5 2.5 8.27 8.27 0 0 1-1 14.1 14.7 14.7 0 0 1-5.3 1.6 18.2 18.2 0 0 1-10.8-1.8c-0.2-0.1-0.5-0.3-0.5-0.3l-0.2-0.1 1.3-2.6a17.2 17.2 0 0 0 5.9 2c2.9 0.4 5.7 0.3 8.2-1.4a5.61 5.61 0 0 0 0.6-8.8 14.8 14.8 0 0 0-5.3-2.7 25.5 25.5 0 0 1-6.8-3.4c-4.5-3.6-3.3-9.5 0.8-12.2a14.1 14.1 0 0 1 9-1.9 13.4 13.4 0 0 1 5.8 1.7c0.2 0.1 0.3 0.2 0.5 0.3z" fill="url(#l-g-1)"/>
 </g>
 <path class="cls-1" d="m32.4 7c-2.17-2.57-5.85-4.1-9.84-4.1-4 0-7.69 1.53-9.84 4.1l-0.132-0.0794c1.88-2.99 5.73-4.84 9.97-4.84 4.25 0 8.1 1.85 9.97 4.84z"/>
 <g transform="matrix(.265 0 0 .265 27.5 17.6)" fill="#fff">
  <path class="cls-1" d="m0.1 7a3.83 3.83 0 0 0 1.9 0.5c1.1 0 1.7-0.6 1.7-1.4s-0.4-1.2-1.5-1.6c-1.3-0.5-2.1-1.2-2.1-2.3 0-1.3 1-2.2 2.6-2.2a4 4 0 0 1 1.8 0.4l-0.3 0.9a3.94 3.94 0 0 0-1.5-0.4c-1.1 0-1.5 0.7-1.5 1.2 0 0.8 0.5 1.1 1.6 1.6 1.4 0.5 2.1 1.2 2.1 2.4s-0.9 2.3-2.8 2.3a4.34 4.34 0 0 1-2.1-0.5z"/>
  <path class="cls-1" d="m10.3 4.5h-3.1v2.9h3.5v0.9h-4.5v-8.1h4.4v0.9h-3.3v2.6h3.1v0.8z"/>
  <path class="cls-1" d="m12.1 0.3a11.2 11.2 0 0 1 2-0.2 3 3 0 0 1 2.3 0.7 2 2 0 0 1 0.6 1.5 2.19 2.19 0 0 1-1.5 2.1 2.07 2.07 0 0 1 1.2 1.6c0.3 1.1 0.5 1.9 0.6 2.2h-1.1a10.9 10.9 0 0 1-0.5-1.9c-0.2-1.1-0.7-1.5-1.6-1.6h-1v3.5h-1zm1 3.7h1.1c1.1 0 1.8-0.6 1.8-1.5s-0.8-1.5-1.9-1.5a2.24 2.24 0 0 0-1 0.1z"/>
  <path class="cls-1" d="m20.5 8.3-2.6-8.1h1.1l1.3 4q0.45 1.65 0.9 3c0.2-0.9 0.6-2 0.9-3l1.4-4h1.1l-2.9 8.1z"/>
  <path class="cls-1" d="m29.6 4.5h-3.1v2.9h3.5v0.9h-4.5v-8.1h4.4v0.9h-3.3v2.6h3.1v0.8z"/>
  <path class="cls-1" d="m31.3 0.3a11.2 11.2 0 0 1 2-0.2 3 3 0 0 1 2.3 0.7 2 2 0 0 1 0.6 1.5 2.19 2.19 0 0 1-1.5 2.1 2.07 2.07 0 0 1 1.2 1.6c0.3 1.1 0.5 1.9 0.6 2.2h-1a10.9 10.9 0 0 1-0.5-1.9c-0.2-1.1-0.7-1.5-1.6-1.6h-1v3.5h-1v-7.9zm1 3.7h1.1c1.1 0 1.8-0.6 1.8-1.5s-0.8-1.5-1.9-1.5a2.24 2.24 0 0 0-1 0.1z"/>
 </g>
</svg>
