<svg width="128" height="128" version="1.1" viewBox="0 0 128 128" xmlns="http://www.w3.org/2000/svg"><style type="text/css">.Line{fill:#000000;}</style><path class="Line" d="m35.328 8.1621c-6.0172 0.021808-10.9 4.7098-10.9 10.488v90.723c0 5.7791 4.8833 10.467 10.9 10.467h65.395c6.0172 0 10.898-4.6875 10.898-10.467v-70.424c0-2.7696-1.1595-5.4515-3.2031-7.4141l0.00195-0.001953-21.051-20.297c-2.0436-1.9627-4.8135-3.0742-7.6973-3.0742h-44.344zm0 7h37.182v26.994c0 2.9004 2.4313 5.2344 5.4512 5.2344h26.393v61.979c0 1.9192-1.6347 3.4902-3.6328 3.4902l0.00196 0.00195h-65.395c-1.9983 0-3.6328-1.5693-3.6328-3.4883v-90.723c0-1.9191 1.6347-3.4883 3.6328-3.4883zm44.449 0.10938c2.074-0.03911 1.9841 0.45804 2.4609 0.91602l21.051 20.297c0.47685 0.45796 1.0818 0.24896 0.95313 3.9277h-24.465v-25.141zm-36.93 40.848a2.8654 2.8654 0 0 0-2.8652 2.8652v2.168a2.8654 2.8654 0 0 0 2.8652 2.8652h10.305a2.8654 2.8654 0 0 0 2.8652-2.8652v-2.168a2.8654 2.8654 0 0 0-2.8652-2.8652h-10.305zm23.992 0a2.856 2.856 0 0 0-2.8574 2.8555v2.1855a2.856 2.856 0 0 0 2.8574 2.8574h25.779a2.856 2.856 0 0 0 2.8555-2.8574v-2.1855a2.856 2.856 0 0 0-2.8555-2.8555h-25.779zm-23.992 16.678a2.8654 2.8654 0 0 0-2.8652 2.8652v2.168a2.8654 2.8654 0 0 0 2.8652 2.8652h10.305a2.8654 2.8654 0 0 0 2.8652-2.8652v-2.168a2.8654 2.8654 0 0 0-2.8652-2.8652h-10.305zm23.992 0a2.856 2.856 0 0 0-2.8574 2.8555v2.1875a2.856 2.856 0 0 0 2.8574 2.8555h25.779a2.856 2.856 0 0 0 2.8555-2.8555v-2.1875a2.856 2.856 0 0 0-2.8555-2.8555h-25.779zm-23.992 16a2.8654 2.8654 0 0 0-2.8652 2.8652v2.168a2.8654 2.8654 0 0 0 2.8652 2.8652h10.305a2.8654 2.8654 0 0 0 2.8652-2.8652v-2.168a2.8654 2.8654 0 0 0-2.8652-2.8652h-10.305zm23.992 0a2.856 2.856 0 0 0-2.8574 2.8555v2.1875a2.856 2.856 0 0 0 2.8574 2.8555h25.779a2.856 2.856 0 0 0 2.8555-2.8555v-2.1875a2.856 2.856 0 0 0-2.8555-2.8555h-25.779z"/><path class="Line" d="m42.847 56.119c-1.5824 1.1e-4 -2.8651 1.2828-2.8652 2.8652v2.168c1.1e-4 1.5824 1.2828 2.8651 2.8652 2.8652h10.305c1.5824-1.1e-4 2.8651-1.2828 2.8652-2.8652v-2.168c-1.1e-4 -1.5824-1.2828-2.8651-2.8652-2.8652zm23.992 0c-1.5777-7.73e-4 -2.8571 1.2778-2.8574 2.8555v2.1855c-7.74e-4 1.5784 1.279 2.8582 2.8574 2.8574h25.779c1.5777-2.76e-4 2.8563-1.2797 2.8555-2.8574v-2.1855c-2.76e-4 -1.5769-1.2786-2.8552-2.8555-2.8555zm-23.992 16.678c-1.5824 1.1e-4 -2.8651 1.2828-2.8652 2.8652v2.168c1.1e-4 1.5824 1.2828 2.8651 2.8652 2.8652h10.305c1.5824-1.1e-4 2.8651-1.2828 2.8652-2.8652v-2.168c-1.1e-4 -1.5824-1.2828-2.8651-2.8652-2.8652zm23.992 0c-1.5777-7.73e-4 -2.8571 1.2778-2.8574 2.8555v2.1875c2.76e-4 1.5777 1.2797 2.8563 2.8574 2.8555h25.779c1.5769-2.76e-4 2.8552-1.2786 2.8555-2.8555v-2.1875c-2.76e-4 -1.5769-1.2786-2.8552-2.8555-2.8555zm-23.992 16c-1.5824 1.1e-4 -2.8651 1.2828-2.8652 2.8652v2.168c1.1e-4 1.5824 1.2828 2.8651 2.8652 2.8652h10.305c1.5824-1.1e-4 2.8651-1.2828 2.8652-2.8652v-2.168c-1.1e-4 -1.5824-1.2828-2.8651-2.8652-2.8652zm23.992 0c-1.5777-7.73e-4 -2.8571 1.2778-2.8574 2.8555v2.1875c2.76e-4 1.5777 1.2797 2.8563 2.8574 2.8555h25.779c1.5769-2.76e-4 2.8552-1.2786 2.8555-2.8555v-2.1875c-2.76e-4 -1.5769-1.2786-2.8552-2.8555-2.8555z" style="fill:#138e09"/></svg>
