<svg xmlns="http://www.w3.org/2000/svg" viewBox="0 0 512 512">
<style type="text/css">
   .green {fill:#348619;}
</style>
<path transform="translate(32) scale(1 .94)" d="M369.9 97.9L286 14C277 5 264.8-.1 252.1-.1H48C21.5 0 0 21.5 0 48v416c0 26.5 21.5 48 48 48h288c26.5 0 48-21.5 48-48V131.9c0-12.7-5.1-25-14.1-34zm-22.6 22.7c2.1 2.1 3.5 4.6 4.2 7.4H256V32.5c2.8.7 5.3 2.1 7.4 4.2l83.9 83.9zM336 480H48c-8.8 0-16-7.2-16-16V48c0-8.8 7.2-16 16-16h176v104c0 13.3 10.7 24 24 24h104v304c0 8.8-7.2 16-16 16zm-48-244v-8c0 6.6-5.4 12-12 12"/>
<path class="green" transform="translate(90 155) scale(0.15 0.165)" d="M512 1248v192q0 40-28 68t-68 28h-320q-40 0-68-28t-28-68v-192q0-40 28-68t68-28h320q40 0 68 28t28 68zm0-512v192q0 40-28 68t-68 28h-320q-40 0-68-28t-28-68v-192q0-40 28-68t68-28h320q40 0 68 28t28 68zm1280 512v192q0 40-28 68t-68 28h-960q-40 0-68-28t-28-68v-192q0-40 28-68t68-28h960q40 0 68 28t28 68zm-1280-1024v192q0 40-28 68t-68 28h-320q-40 0-68-28t-28-68v-192q0-40 28-68t68-28h320q40 0 68 28t28 68zm1280 512v192q0 40-28 68t-68 28h-960q-40 0-68-28t-28-68v-192q0-40 28-68t68-28h960q40 0 68 28t28 68zm0-512v192q0 40-28 68t-68 28h-960q-40 0-68-28t-28-68v-192q0-40 28-68t68-28h960q40 0 68 28t28 68z"/>
</svg>