<svg version="1.1" viewBox="0 0 128 128" xmlns="http://www.w3.org/2000/svg"><style type="text/css">.Line{fill:#000000;}.BackG{fill:#138e09;}.Paper{fill:#FFFFFF;}</style><path class="Paper" d="m108 24-21-21c-2.2-2.2-5.3-3.5-8.5-3.5h-51c-6.6 0.025-12 5.4-12 12v104c0 6.6 5.4 12 12 12h72c6.6 0 12-5.4 12-12v-83c0-3.2-1.3-6.2-3.5-8.5z"/><path class="Line" d="m108 24-21-21c-2.2-2.2-5.3-3.5-8.5-3.5h-51c-6.6 0.025-12 5.4-12 12v104c0 6.6 5.4 12 12 12h72c6.6 0 12-5.4 12-12v-83c0-3.2-1.3-6.2-3.5-8.5zm-5.6 5.7c0.52 0.52 0.88 1.2 1 1.8h-24v-24c0.7 0.18 1.3 0.52 1.8 1zm-2.8 90h-72c-2.2 0-4-1.8-4-4v-104c0-2.2 1.8-4 4-4h44v26c0 3.3 2.7 6 6 6h26v76c0 2.2-1.8 4-4 4z"/><path class="BackG" d="m35 56c-1.6 1.1e-4 -2.9 1.3-2.9 2.9v2.2c1.1e-4 1.6 1.3 2.9 2.9 2.9h10c1.6-1.1e-4 2.9-1.3 2.9-2.9v-2.2c-1.1e-4 -1.6-1.3-2.9-2.9-2.9zm24 0c-1.6-7.7e-4 -2.9 1.3-2.9 2.9v2.2c-7.7e-4 1.6 1.3 2.9 2.9 2.9h34c1.6-2.8e-4 2.9-1.3 2.9-2.9v-2.2c-2.8e-4 -1.6-1.3-2.9-2.9-2.9zm-24 17c-1.6 1.1e-4 -2.9 1.3-2.9 2.9v2.2c1.1e-4 1.6 1.3 2.9 2.9 2.9h10c1.6-1.1e-4 2.9-1.3 2.9-2.9v-2.2c-1.1e-4 -1.6-1.3-2.9-2.9-2.9zm24 0c-1.6-7.7e-4 -2.9 1.3-2.9 2.9v2.2c2.8e-4 1.6 1.3 2.9 2.9 2.9h34c1.6-2.8e-4 2.9-1.3 2.9-2.9v-2.2c-2.8e-4 -1.6-1.3-2.9-2.9-2.9zm-24 16c-1.6 1.1e-4 -2.9 1.3-2.9 2.9v2.2c1.1e-4 1.6 1.3 2.9 2.9 2.9h10c1.6-1.1e-4 2.9-1.3 2.9-2.9v-2.2c-1.1e-4 -1.6-1.3-2.9-2.9-2.9zm24 0c-1.6-7.7e-4 -2.9 1.3-2.9 2.9v2.2c2.8e-4 1.6 1.3 2.9 2.9 2.9h34c1.6-2.8e-4 2.9-1.3 2.9-2.9v-2.2c-2.8e-4 -1.6-1.3-2.9-2.9-2.9z"/></svg>
