<svg width="128" height="128" version="1.1" viewBox="0 0 128 128" xmlns="http://www.w3.org/2000/svg"><style type="text/css">.Invers{fill:#000000;}</style><path class="Invers" d="m116.7 23.482-12.17-12.17c-5.895-5.895-15.43-5.895-21.325 0l-10.763 10.785-8.2619-8.2619c-2.099-2.099-5.4931-2.099-7.5697 0l-33.851 33.807c-1.0495 1.0495-1.0495 2.7465 0 3.796l3.796 3.796c1.0495 1.0495 2.7465 1.0495 3.796 0l30.033-30.055 4.4882 4.4882-55.243 55.221-2.7689 24.987c-0.71454 6.5202 4.7785 12.013 11.276 11.276l24.964-2.7689 73.598-73.598c5.895-5.895 5.895-15.43 0-21.302zm-78.51 84.651-20.61 2.2999 2.2999-20.61 52.564-52.586 18.333 18.333zm70.941-70.918-10.785 10.785-18.333-18.333 10.785-10.785c1.697-1.697 4.4659-1.697 6.1629 0l12.17 12.17c1.697 1.697 1.697 4.4436 0 6.1629z" style="stroke-width:.22329"/></svg>
