<svg width="128" height="128" version="1.1" viewBox="0 0 128 128" xmlns="http://www.w3.org/2000/svg"><style type="text/css">.Invers{fill:#348619;}</style><path d="m22.68 7.7695v0.0019532c-2.3256-0.054942-4.6488 0.46356-6.752 1.5078-4.2062 2.0885-7.4961 6.7066-7.4961 12.408v84.193c0 10.639 11.966 17.349 21.018 11.98l16.893-9.9805v-9.7949l-21.188 12.52-0.005859 0.00195c-3.7779 2.2405-8.2813-0.19174-8.2812-4.7285v-84.191c0-2.756 1.1405-4.0253 2.8125-4.8555 0.83602-0.41511 1.8136-0.61405 2.7773-0.59375 0.96376 0.0203 1.9135 0.25955 2.6973 0.72266l65.576 38.77c0.44836-0.004501 0.91102-0.015625 1.3477-0.015625 3.9924 0 8.4977 0.18698 13.129 0.70312-0.91649-1.4899-2.1283-2.8299-3.6602-3.9121-0.26061-0.27053-0.55619-0.50504-0.87891-0.69726l-0.00977-0.00586-71.215-42.104c-2.1097-1.2466-4.438-1.8747-6.7637-1.9297z" style="color-rendering:auto;color:#000000;dominant-baseline:auto;font-feature-settings:normal;font-variant-alternates:normal;font-variant-caps:normal;font-variant-ligatures:normal;font-variant-numeric:normal;font-variant-position:normal;image-rendering:auto;isolation:auto;mix-blend-mode:normal;shape-padding:0;shape-rendering:auto;solid-color:#000000;text-decoration-color:#000000;text-decoration-line:none;text-decoration-style:solid;text-indent:0;text-orientation:mixed;text-transform:none;white-space:normal"/><path d="m92.078 65.715c-13.871 0-35.736 2.7805-35.736 13.113v34.966c0 10.335 21.862 13.113 35.736 13.113 13.871 0 35.734-2.7805 35.734-13.113v-34.966c0-10.335-21.86-13.113-35.734-13.113zm0 5.7359c15.501 0 28.076 4.2736 28.076 8.3362v0.54603c0 4.0626-12.575 8.3345-28.076 8.3345s-28.078-4.272-28.078-8.3345v-0.54603c0-4.0626 12.577-8.3362 28.078-8.3362zm-28.078 18.247c6.0323 3.3422 17.074 5.4725 28.078 5.4725s22.044-2.1304 28.076-5.4725v1.0461c0 0.12926-0.0139 0.25677-0.0391 0.38443l0.11719-0.01191v21.21l-0.0781 0.0188v1.4493c0 4.0625-12.575 7.3757-28.076 7.3757-15.501-1e-4 -28.078-3.3132-28.078-7.3758v-22.678l0.03711 0.0034c-0.024054-0.12486-0.03711-0.24954-0.03711-0.37593z" style="stroke-width:.13808"/></svg>
