<svg width="128" height="128" version="1.1" viewBox="0 0 128 128" xmlns="http://www.w3.org/2000/svg"><path d="m100.16 16h-80.127c-6.6371 0-12.017 5.3802-12.017 12.017v72.127c0 6.6371 5.3802 12.017 12.017 12.017h80.127c6.6371 0 12.017-5.3802 12.017-12.017v-72.127c0-6.6371-5.3802-12.017-12.017-12.017zm4.0058 84.144c0 2.2087-1.7971 4.0058-4.0058 4.0058h-80.127c-2.2087 0-4.0058-1.7971-4.0058-4.0058v-72.127c0-2.2087 1.7971-4.0058 4.0058-4.0058h80.127c2.2087 0 4.0058 1.7971 4.0058 4.0058zm-44.069-15.033c-3.8716 0-7.0101 3.1385-7.0101 7.0101 0 3.8716 3.1385 7.0101 7.0101 7.0101s7.0101-3.1385 7.0101-7.0101c0-3.8716-3.1385-7.0101-7.0101-7.0101zm1.9203-6.0087h-4.0058c-1.6591 0-3.0043-1.3452-3.0043-3.0043v-0.09539c0-17.611 19.388-13.928 19.388-24.891 0-5.0112-4.4467-10.067-14.381-10.067-7.2965 0-11.082 2.4157-14.824 7.1833-0.97841 1.2468-2.7675 1.5009-4.0679 0.59486l-3.2882-2.2908c-1.4083-0.98116-1.7175-2.947-0.6622-4.3004 5.3142-6.8166 11.619-11.201 22.842-11.201 13.099 0 24.395 7.4485 24.395 20.082 0 16.878-19.388 13.985-19.388 24.891v0.09539c0 1.6591-1.3452 3.0043-3.0043 3.0043z" style="stroke-width:.25036"/></svg>
