<svg width="128" height="128" version="1.1" viewBox="0 0 128 128" xmlns="http://www.w3.org/2000/svg"><style type="text/css">.Invers{fill:#000000;}</style><path class="Invers" d="m117.2 7.9611h-2.2701c-1.5044 0-2.7243 1.2198-2.7243 2.7243v23.58c-9.1352-15.84-27.787-26.482-48.571-26.417-30.963 0.096937-56.17 25.157-56.121 56.12 0.048568 31.054 25.237 56.21 56.301 56.21 14.513 0 27.743-5.491 37.726-14.508 1.1608-1.0484 1.2155-2.8516 0.10946-3.9577l-1.6048-1.6048c-1.0222-1.0222-2.6673-1.0702-3.7418-0.10314-8.602 7.7418-19.987 12.455-32.489 12.455-26.729 0-48.582-21.643-48.582-48.582 0-26.729 21.643-48.311 48.582-48.311 18.812 0 35.609 9.841 43.198 24.72h-24.604c-1.5044 0-2.7243 1.2198-2.7243 2.7243v2.2702c0 1.5044 1.2198 2.7243 2.7243 2.7243h34.311c1.5044 7.1e-5 3.2037-1.6991 3.2037-3.2036v-34.119c0-1.5044-1.2198-2.7243-2.7243-2.7243z" style="stroke-linejoin:round;stroke-width:.4;stroke:#000"/></svg>
