<svg width="128" height="128" version="1.1" viewBox="0 0 128 128" xmlns="http://www.w3.org/2000/svg"><style type="text/css">.Line{fill:#000000;}</style><path class="Line" d="m109.73 8.0244h-3.5342c-1.2863 0-2.1937 1.2123-2.1937 2.4985l0.0114 25.839c-8.2281-12.251-23.347-20.317-40.082-20.264-26.473 0.08287-48.025 21.507-47.983 47.978 0.0415 26.548 21.578 48.055 48.137 48.055 12.409 0 23.72-4.6943 32.256-12.403 0.99248-0.89629 1.0393-2.4379 0.09359-3.3835l-2.0695-2.4529c-0.79699-0.94464-2.7032-0.77671-3.593 0.02401-7.1232 6.4102-16.551 10.313-26.904 10.313-22.134 0-40.23-17.92-40.23-40.226 0-22.132 17.922-40.001 40.23-40.001 13.964 0 25.668 5.4563 32.888 16.019 0 0-17.15-0.18986-22.773-0.18986-1.2863 0-2.3293 1.0428-2.3293 2.329v3.6696c0 1.2861 1.0429 2.329 2.3293 2.329h35.336c1.2863 6.1e-5 2.7392-1.4526 2.7392-2.7388v-34.898c0-1.2861-1.0429-2.4985-2.3293-2.4985z"/></svg>
