<svg width="128" height="128" version="1.1" viewBox="0 0 128 128" xmlns="http://www.w3.org/2000/svg"><style type="text/css">.Line{fill:#000000;}</style><path class="Line" d="m76.803 8.1191c-2.0836 0.031397-4.1856 0.16856-6.1992 0.042969-12.13 0.037893-24.264-0.075567-36.391 0.058594-5.9993 0.39263-10.557 6.2451-9.7852 12.131 0.03746 30.03-0.074619 60.063 0.056641 90.09 0.52127 6.2354 6.9493 10.144 12.826 9.3984 21.508-0.0358 43.02 0.07112 64.525-0.05468 6.002-0.37339 10.557-6.2319 9.7852-12.113-0.0357-23.252 0.07062-46.507-0.05468-69.756-0.2448-2.4138-1.3988-4.7103-3.1465-6.3828-7.2952-6.9847-14.494-14.074-21.85-20.992-2.873-2.234-6.2949-2.4742-9.7676-2.4219zm-39.414 6.9922c0.36574 0.008753 0.72246 0.028329 1.0566 0.050781h34.064c0.07197 9.3487-0.14394 18.712 0.11133 28.051 0.80077 4.1636 5.3441 4.3836 8.7402 4.1777h22.992c-0.0493 20.892 0.09868 41.794-0.07422 62.68-0.33079 1.6302-1.9222 2.8128-3.5566 2.791-22.04-0.0474-44.09 0.09569-66.125-0.07031-3.6976-0.74836-2.8129-4.904-2.9023-7.6699v-86.471c0.054469-3.1664 3.1331-3.6003 5.6934-3.5391zm42.389 0.16016c2.573-0.11078 3.8427 2.676 5.7246 4.0625l17.787 17.15c2.6712 2.9204 0.28474 4.7302-2.7305 3.9277h-20.781v-25.141zm-27.656 16.654c-3.1333-0.082277-6.2707 0.97231-8.5605 3.3887-6.28 5.5612-4.1028 16.968 3.75 19.873 4.2585 2.0014 9.1994 0.8686 12.646-2l13 9.7168c-1.4555 3.0372-1.4406 6.6808-0.19726 9.8145l-12.732 10.723c-4.522-3.8767-12.038-4.3242-16.412 0.29102-6.1684 5.4622-4.0295 16.667 3.6836 19.52 7.4314 3.4925 16.982-2.7293 16.652-10.973 1.7e-4 -1.0752-0.14793-2.1517-0.4375-3.1875-0.17205-0.73655-0.4218-1.43-0.73242-2.084l12.41-10.453c1.0762 1.1263 2.3858 2.0403 3.9297 2.6113 7.4463 3.4996 17.016-2.7343 16.686-10.994 1.7e-4 -1.0774-0.14735-2.1555-0.4375-3.1934-1.9613-8.3966-13.572-11.608-19.662-5.6387l-12.854-9.6074c0.95836-1.7025 1.493-3.6461 1.4102-5.7168 1.73e-4 -1.0947-0.14854-2.1896-0.44336-3.2441-1.2642-5.4127-6.4771-8.7086-11.699-8.8457z"/></svg>
