<svg version="1.1" viewBox="0 0 128 128" xmlns="http://www.w3.org/2000/svg"><style type="text/css">.st1{fill:#334455;fill-opacity:1.0;}.BackG{fill:#138e09;fill-opacity:1.0;}.Paper{fill:#FFFFFF;fill-opacity:1.0;}</style><path class="Paper" d="m108 24-21-21c-2.2-2.2-5.3-3.5-8.5-3.5h-51c-6.6 0.025-12 5.4-12 12v104c0 6.6 5.4 12 12 12h72c6.6 0 12-5.4 12-12v-83c0-3.2-1.3-6.2-3.5-8.5z"/><path class="st1" d="m108 24-21-21c-2.2-2.2-5.3-3.5-8.5-3.5h-51c-6.6 0.025-12 5.4-12 12v104c0 6.6 5.4 12 12 12h72c6.6 0 12-5.4 12-12v-83c0-3.2-1.3-6.2-3.5-8.5zm-5.6 5.7c0.52 0.52 0.88 1.2 1 1.8h-24v-24c0.7 0.18 1.3 0.52 1.8 1zm-2.8 90h-72c-2.2 0-4-1.8-4-4v-104c0-2.2 1.8-4 4-4h44v26c0 3.3 2.7 6 6 6h26v76c0 2.2-1.8 4-4 4z"/><path class="BackG" d="m36 35c-6.3 5.6-4.1 17 3.8 20 4.3 2 9.2 0.87 13-2l21 18c-1.5 3-1.4 6.7-0.2 9.8l-13 11c-4.5-3.9-12-4.3-16 0.29-6.2 5.5-4 17 3.7 20 7.4 3.5 17-2.7 17-11 1.7e-4 -1.1-0.15-2.2-0.44-3.2-0.17-0.74-0.42-1.4-0.73-2.1l12-10c1.1 1.1 2.4 2 3.9 2.6 7.4 3.5 17-2.7 17-11 1.7e-4 -1.1-0.15-2.2-0.44-3.2-2-8.4-14-12-20-5.6l-21-18c0.96-1.7 1.5-3.6 1.4-5.7 1.7e-4 -1.1-0.15-2.2-0.44-3.2-1.3-5.4-7.1-8.8-11-8.7-4.2 0.0098-6.6 0.85-8.9 3.3z"/></svg>
