<svg width="128" height="128" version="1.1" viewBox="0 0 128 128" xmlns="http://www.w3.org/2000/svg"><style type="text/css">.Invers{fill:#000000;}</style><path class="Invers" d="m108.42 31.534-21.051-20.297c-2.0436-1.9627-4.8137-3.0749-7.6975-3.0749h-44.344c-6.0172 0.021808-10.899 4.7105-10.899 10.489v90.721c0 5.7791 4.8819 10.468 10.899 10.468h65.395c6.0172 0 10.898-4.6887 10.898-10.468v-70.423c0-2.7696-1.158-5.452-3.2016-7.4146zm-5.1317 4.9503c0.47685 0.45796 1.0824 0.24963 0.95369 3.9284h-24.464v-25.141c2.074-0.03911 1.984 0.45795 2.4608 0.91593zm-2.5658 76.377h-65.395c-1.9983 0-3.633-1.5702-3.633-3.4892v-90.721c0-1.9191 1.6349-3.4892 3.633-3.4892h37.183v26.994c0 2.9004 2.4296 5.2338 5.4495 5.2338h26.394v61.98c0 1.9192-1.6349 3.4892-3.633 3.4892z" style="stroke-width:.22253"/><ellipse cx="52.062" cy="44.016" rx="12.202" ry="12.129"/><ellipse cx="83.798" cy="68.172" rx="12.009" ry="11.937"/><ellipse cx="51.966" cy="92.279" rx="11.985" ry="11.913"/><rect transform="rotate(-53.222)" x="-6.7034" y="68.194" width="4.5013" height="32"/><rect transform="matrix(.64413 .76492 .76492 -.64413 0 0)" x="102.49" y="-14.913" width="4.5013" height="32"/></svg>
