<svg xmlns="http://www.w3.org/2000/svg" viewBox="0 0 512 512">
<style type="text/css">
   .st0{fill:#0040FF;}
</style>
<path transform="translate(32) scale(1 .94)" d="M369.9 97.9L286 14C277 5 264.8-.1 252.1-.1H48C21.5 0 0 21.5 0 48v416c0 26.5 21.5 48 48 48h288c26.5 0 48-21.5 48-48V131.9c0-12.7-5.1-25-14.1-34zm-22.6 22.7c2.1 2.1 3.5 4.6 4.2 7.4H256V32.5c2.8.7 5.3 2.1 7.4 4.2l83.9 83.9zM336 480H48c-8.8 0-16-7.2-16-16V48c0-8.8 7.2-16 16-16h176v104c0 13.3 10.7 24 24 24h104v304c0 8.8-7.2 16-16 16zm-48-244v-8c0 6.6-5.4 12-12 12"/>
<path class="st0" transform="translate(335 103) scale(-0.5 0.6)" d="M448 416c0 53.019-42.981 96-96 96s-96-42.981-96-96a95.942 95.942 0 0 1 4.438-28.924l-98.337-61.46C144.887 341.966 121.616 352 96 352c-53.019 0-96-42.981-96-96s42.981-96 96-96c25.616 0 48.887 10.034 66.101 26.385l98.337-61.461A95.942 95.942 0 0 1 256 96c0-53.019 42.981-96 96-96s96 42.981 96 96-42.981 96-96 96c-25.616 0-48.887-10.034-66.101-26.385l-98.337 61.461c5.917 18.75 5.922 39.083 0 57.848l98.337 61.461C303.113 330.034 326.384 320 352 320c53.019 0 96 42.981 96 96z"/>
</svg>