<svg width="128" height="128" version="1.1" viewBox="0 0 128 128" xmlns="http://www.w3.org/2000/svg"><path d="m122 81.872h-18v-45c0-11.578-9.4219-21-21-21h-68c-8.2725 0-15 6.7294-15 15v15c0 3.3075 2.6887 6 6 6h18v42c0 9.5831 7.5469 17.366 16.999 17.899v0.10125h66.5c11.302 0 20.501-9.1969 20.501-20.499v-3.5006c0-3.3075-2.6887-6-6-6zm-98-36h-18v-15c0-4.9631 4.0369-9 9-9 4.9631 0 9 4.0369 9 9zm30 48c0 6.6187-5.385 12-12 12s-12-5.3813-12-12v-63c0-3.375-1.1194-6.4912-3.0056-9h56.006c8.2725 0 15 6.7294 15 15v45h-38c-3.3112 0-6 2.6925-6 6zm68-2.4994c0 7.995-6.5044 14.499-14.501 14.499h-52.181c2.8781-3.1912 4.6819-7.3725 4.6819-12v-6h62z" style="stroke-width:.1875"/></svg>
