<svg width="128" height="128" version="1.1" viewBox="0 0 128 128" xmlns="http://www.w3.org/2000/svg"><style type="text/css">.Invers{fill:#000000;}</style><path class="Invers" d="m115.06 108.99-27.065-27.065c-0.48256-0.48256-1.112-0.73432-1.7834-0.73432h-2.161c7.1964-7.7838 11.602-18.169 11.602-29.604 0-24.107-19.533-43.64-43.64-43.64-24.107 0-43.64 19.533-43.64 43.64 0 24.107 19.533 43.64 43.64 43.64 11.434 0 21.82-4.4059 29.604-11.581v2.14c0 0.67138 0.27275 1.3008 0.73432 1.7834l27.065 27.065c0.98608 0.98609 2.5806 0.98609 3.5667 0l2.0771-2.0771c0.9861-0.9861 0.9861-2.5806 0-3.5667zm-63.047-20.477c-20.414 0-36.926-16.512-36.926-36.926s16.512-36.926 36.926-36.926c20.414 0 36.926 16.512 36.926 36.926s-16.512 36.926-36.926 36.926z" style="stroke-width:.20981"/></svg>
