<?xml version="1.0" encoding="utf-8"?>
<svg width="1792" height="1792" viewBox="0 0 1792 1792" xmlns="http://www.w3.org/2000/svg">
<style type="text/css">
   .green {fill:#348619;}
   .red {fill:#b40000; } 
   .yellow {fill:#F3C619;}
</style>
<g transform="scale(0.85 0.85)">
<path class="green" d="M1664 416v960q0 119-84.5 203.5t-203.5 84.5h-960q-119 0-203.5-84.5t-84.5-203.5v-960q0-119 84.5-203.5t203.5-84.5h960q119 0 203.5 84.5t84.5 203.5z"/>
<path class="yellow" d="m1664 416v960c0 79.333-28.167 147.17-84.5 203.5s-124.17 84.5-203.5 84.5h-960c-79.333 0-147.17-28.167-203.5-84.5l1367-1367c56.333 56.333 84.5 124.17 84.5 203.5z"/>
</g>
</svg>
