<svg width="128" height="128" version="1.1" viewBox="0 0 128 128" xmlns="http://www.w3.org/2000/svg"><style type="text/css">.Line{fill:#000000;}</style><path class="Line" d="m29.443 16c-7.3771 0-13.443 6.0681-13.443 13.445v69.111c0 7.3771 6.0661 13.443 13.443 13.443h69.113c7.3771 0 13.443-6.0661 13.443-13.443v-69.111c0-7.3771-6.0661-13.445-13.443-13.445zm0 8.0391h69.113c3.0289 0 5.4043 2.3774 5.4043 5.4062v69.111c0 3.0289-2.3754 5.4043-5.4043 5.4043h-69.113c-3.0289 0-5.4043-2.3754-5.4043-5.4043v-69.111c0-3.0289 2.3754-5.4062 5.4043-5.4062z"/></svg>
