<svg version="1.1" viewBox="0 0 96 96" xmlns="http://www.w3.org/2000/svg">
 <style type="text/css">.Fix{fill:#888;}</style>
 <g fill="#888">
  <path d="m78.727 67.711 6.0449 4.2715c0.93713-1.2122 1.7217-2.5466 2.3418-4.0098 1.1014-2.5505 1.6523-5.4359 1.6523-8.6562 0-2.9369-0.34674-5.5888-1.0391-7.959-0.6924-2.3959-1.7306-4.4328-3.1152-6.1074-1.3846-1.7003-3.101-3.0139-5.1465-3.9414s-4.4206-1.3906-7.127-1.3906c-3.084 0-5.9792 0.54105-8.6855 1.623-2.6749 1.0563-4.8512 3.2885-6.9766 5.8906l0.20508-23.697h-8.5879v22.477l9.4727 6.6914c0.93814-1.0907 1.8079-2.0315 2.7715-2.8203 1.2902-1.0563 2.5019-1.8934 3.6348-2.5117 1.1644-0.64412 2.2816-1.0959 3.3516-1.3535 1.07-0.28339 2.1236-0.42578 3.1621-0.42578 1.6994 0 3.1633 0.34932 4.3906 1.0449 1.2273 0.6698 2.2328 1.6094 3.0195 2.8203 0.78669 1.2108 1.355 2.6668 1.7012 4.3672 0.37763 1.7003 0.56641 3.5682 0.56641 5.6035 0 2.8081-0.39491 5.1658-1.1816 7.0723-0.14117 0.35151-0.29413 0.68541-0.45508 1.0117z"/>
  <path d="m48.293 62.301v14.617c2.5789 1.0278 6.3782 1.8628 9.0137 2.3008 2.6355 0.43798 5.4336 0.65625 8.2344 0.65625 2.3904 0 4.6165-0.20934 6.6855-0.62109l-6.8398-4.8438c-1.28-0.03944-2.6108-0.17216-4-0.4082-1.6679-0.30913-3.0606-0.72107-4.5059-1.2363v-4.3809l-8.5879-6.084z"/>
  <path d="m29.635 33.029 10.541 7.4473-7.9492-23.236h-6.6914l-3.541 10.391 6.1504 4.3457c0.1695-0.6638 0.34462-1.4301 0.54492-2.5723h0.15234c0.29661 1.7821 0.54401 2.7643 0.79297 3.625z" stroke-width=".9791"/>
  <path d="m17.588 40.553-13.205 38.742h9.0273l5.5-17.396h19.139l5.8457 17.396h2.7832v-18.139l-11.385-8.0645 0.64062 2.2734h-14.869l3.0938-10.158-6.5703-4.6543z" stroke-width=".9791"/>
  <path class="Fix" d="m96.212 68.065-0.25397 12-96-68v-12z"/>
 </g>
</svg>
