<svg version="1.1" viewBox="0 0 96 96" xmlns="http://www.w3.org/2000/svg">
 <style type="text/css">.Fix{fill:#888;}</style>
 <path d="m88.765 59.317c0 3.2204-0.55071 6.1058-1.6521 8.6563-1.07 2.5248-2.6119 4.676-4.626 6.4536-1.9826 1.7519-4.4057 3.1044-7.2694 4.0577-2.8637 0.92746-6.0893 1.3912-9.6768 1.3912-2.8008 0-5.5987-0.21898-8.2342-0.65696s-6.4345-1.2736-9.0134-2.3014v-53.184h8.5883l-0.20538 23.699c2.1254-2.6021 4.3016-4.8353 6.9765-5.8916 2.7064-1.082 5.6015-1.6231 8.6855-1.6231 2.7064 0 5.0823 0.46373 7.1278 1.3912s3.7606 2.2414 5.1452 3.9417c1.3846 1.6746 2.4231 3.7099 3.1155 6.1058 0.69232 2.3702 1.0385 5.0238 1.0385 7.9607zm-8.4023 0.30916c0-2.0353-0.18882-3.9031-0.56645-5.6034-0.34616-1.7004-0.91261-3.156-1.6993-4.3668-0.78673-1.2109-1.7937-2.1512-3.021-2.821-1.2273-0.6956-2.6906-1.0434-4.39-1.0434-1.0385 0-2.0927 0.1417-3.1627 0.42509-1.07 0.25763-2.1871 0.70848-3.3515 1.3526-1.1329 0.61831-2.3445 1.4556-3.6347 2.5119-1.2588 1.0305-2.3521 2.3187-3.6557 3.8644v18.82c1.4453 0.51526 2.8375 0.92747 4.5054 1.2366 1.6679 0.28339 3.2571 0.42509 4.7676 0.42509 1.8882 0 3.6819-0.24475 5.3812-0.73424 1.7308-0.4895 3.2413-1.301 4.5316-2.4346 1.3217-1.1593 2.3602-2.6793 3.1155-4.56 0.78673-1.9065 1.1801-4.2638 1.1801-7.0719z" fill="#888"/>
 <path d="m25.535 17.24-21.152 62.055h9.0273l5.5-17.396h19.139l5.8457 17.396h2.7832v-19.654c0-0.04843 0.0037-0.09539 0.0059-0.14323l-14.457-42.257zm3.1543 12.164h0.15234c0.31821 1.9118 0.58009 2.9291 0.84766 3.8335l6.2441 22.127h-14.869l6.7402-22.127c0.27545-0.97071 0.5488-1.9177 0.88476-3.8335z" fill="#888" stroke-width=".9791"/>
</svg>
