<svg version="1.1" viewBox="0 0 96 96" xmlns="http://www.w3.org/2000/svg">
  <style type="text/css" id="style2">.Fix{fill:#888;}</style>
  <path class="Fix"
     d="m 32.015839,65.508052 c -0.0022,1.778892 -0.64001,3.305064 -1.913431,4.578517 C 28.828956,71.360021 27.302784,71.997831 25.523892,72 L 14.491947,72.01591 C 12.713055,72.01811 11.188438,71.384024 9.918097,70.113651 8.6477563,68.84331 8.0136703,67.318694 8.015839,65.539801 L 8,14.507857 C 8.0022,12.728965 8.6400103,11.202793 9.913431,9.9293408 11.186883,8.6558887 12.713055,8.0180784 14.491947,8.0159099 L 25.523892,8 c 1.778892,-0.00217 3.303509,0.6319175 4.57385,1.9022586 C 31.368083,11.1726 32.002169,12.697216 32,14.476108 M 57.523438 8 L 46.492188 8.015625 C 44.713296 8.0177935 43.187514 8.6562354 41.914062 9.9296875 C 40.640641 11.20314 40.0022 12.72892 40 14.507812 L 40.015625 65.539062 C 40.013456 67.317955 40.647628 68.84294 41.917969 70.113281 C 43.18831 71.383654 44.713296 72.017825 46.492188 72.015625 L 57.523438 72 C 59.30233 71.997831 60.828111 71.359389 62.101562 70.085938 C 63.374984 68.812484 64.013425 67.286704 64.015625 65.507812 L 64 14.476562 C 64.002169 12.69767 63.367997 11.172685 62.097656 9.9023438 C 60.827315 8.6320027 59.302329 7.99783 57.523438 8 z M 89.523438,8 78.492188,8.015625 C 76.713296,8.0177935 75.187514,8.6562354 73.914062,9.9296875 72.640641,11.20314 72.0022,12.72892 72,14.507812 l 0.01563,51.03125 c -0.0022,1.778893 0.632003,3.303878 1.902344,4.574219 1.270341,1.270373 2.795327,1.904544 4.574219,1.902344 L 89.523438,72 c 1.778892,-0.0022 3.304673,-0.640611 4.578124,-1.914062 1.273422,-1.273454 1.911863,-2.799234 1.914063,-4.578126 L 96,14.476562 C 96.002169,12.69767 95.367997,11.172685 94.097656,9.9023438 92.827315,8.6320027 91.302329,7.99783 89.523438,8 Z z"/>
</svg>
