<svg width="128" height="128" version="1.1" viewBox="0 0 128 128" xmlns="http://www.w3.org/2000/svg"><style type="text/css">.Line{fill:#000000;}</style><path class="Line" d="m10.209 17.183 41.439 41.251c0.87645 0.92307 0.87645 2.4198 0 3.343l-41.439 41.251c-0.87645 0.92307-2.2975 0.92307-3.1742 0l-3.2237-3.4205c-0.87645-0.92307-0.87645-2.4198 0-3.343l36.068-36.159-36.068-36.159c-0.87645-0.92307-0.87645-2.4197 0-3.343l3.2237-3.4207c0.87645-0.92307 2.2975-0.92307 3.1742 1.98e-4zm101.91 84.683v-3.5156c0-1.3054-1.0049-2.3638-2.2444-2.3638h-53.348c-1.2395 0-2.2444 1.0584-2.2444 2.3638v3.5156c0 1.3054 1.0049 2.3638 2.2444 2.3638h53.348c1.2395 0 2.2444-1.0584 2.2444-2.3638z"/></svg>
