<?xml version="1.0" encoding="UTF-8"?>
<svg width="96" height="96" version="1.1" viewBox="0 0 96 96" xmlns="http://www.w3.org/2000/svg">
 <style type="text/css">.Fix{fill:#888;}</style>
 <path class="Fix" d="m71.877 0.033c-13.951 0.049826-23.811 8.6164-23.811 25.494v16.201h-40.052c-4.4014 0-7.9726 3.5709-7.9726 7.9726v38.317c0 4.4014 3.5709 7.9726 7.9726 7.9726h56.054c4.4014 0 7.9726-3.5708 7.9726-7.9726v-38.317c0-4.4014-3.5709-7.9726-7.9726-7.9726h-4.0655v-16.301c0-9.0641 5.2649-13.539 11.842-13.605 6.6436-0.06644 12.075 4.4877 12.075 13.456v13.287c0 2.209 1.7771 3.9861 3.9862 3.9861h3.9638c2.209 0 3.9861-1.7771 3.9861-3.9861v-13.287c0-16.439-10.026-25.295-23.978-25.245z"/>
</svg>
