<?xml version="1.0" encoding="UTF-8"?>
<svg width="96" height="96" version="1.1" viewBox="0 0 96 96" xmlns="http://www.w3.org/2000/svg">
 <style type="text/css">.Fix{fill:#888;}</style>
 <path class="Fix" d="m43.857 0.225c-13.978 0.04992-23.857 9.4377-23.857 25.543v16.232h-4.1237c-4.4097 0-7.9878 3.5777-7.9878 7.9878v38.39c0 4.4097 3.5777 7.9878 7.9878 7.9878h56.16c4.4098 0 7.987-3.5777 7.987-7.9878v-38.39c0-4.4097-3.5777-7.9878-7.987-7.9878h-40.078v-16.332c0-9.0814 5.275-13.565 11.864-13.631 6.6562-0.06657 12.098 4.4962 12.098 13.481v13.313l-0.02593 5.2402 12.002-1.84-0.0169-3.4002v-13.313c4e-5 -15.591-10.045-25.343-24.023-25.293z"/>
</svg>
