<svg version="1.1" viewBox="0 0 96 96" xmlns="http://www.w3.org/2000/svg">
 <style type="text/css">.Fix{fill:#888;}</style>
 <g class="Fix">
  <path d="m20.953 40.846c-3.7643 0.44754-6.7515 1.3329-8.9531 2.9785-2.9095 2.1686-4.3652 5.1788-4.3652 9.0312 0 1.5563 0.23552 2.9976 0.70312 4.3242 0.49358 1.3267 1.2466 2.4874 2.2598 3.4824 1.0391 0.96949 2.3509 1.8889 3.9355 2.5s3.4944 0.91602 5.7285 0.91602c2.416 0 4.7143-0.5 6.8965-1.5 2.2081-1 2.9107-2.5776 4.834-4.6328l0.054687 5.3828h7.9531v-8.9941l-8.1816-5.7969v3.8965c-2.7234 2.0155-3.1007 3.4955-5.127 4.4395-2.0003 0.91846-3.7812 1.3789-5.3398 1.3789-1.195 0-2.2078-0.15478-3.0391-0.46094-0.8313-0.30615-1.5058-0.71435-2.0254-1.2246-0.51956-0.53577-0.89706-1.1355-1.1309-1.7988-0.2338-0.68885-0.35156-1.4027-0.35156-2.1426-1e-6 -1.0715 0.18318-2.0272 0.54687-2.8691 0.38967-0.86744 0.97457-1.6084 1.7539-2.2207 0.77934-0.61231 1.779-1.0843 3-1.416 1.221-0.33167 2.6747-0.49609 4.3633-0.49609h3.2344l-6.7461-4.7773c-0.001247 1.48e-4 -0.002659-1.48e-4 -0.003906 0z"/>
  <path d="m47.527 7.8164v25.76l8.5898 6.0684v-1.6172c1.3036-1.5458 2.3955-2.8328 3.6543-3.8633 1.2902-1.0563 2.5019-1.8934 3.6348-2.5117 1.1644-0.64407 2.2816-1.0959 3.3516-1.3535 1.07-0.28339 2.1256-0.42578 3.1641-0.42578 1.6993 0 3.1614 0.34932 4.3887 1.0449 1.2273 0.66984 2.2348 1.6095 3.0215 2.8203 0.78673 1.2109 1.3531 2.6668 1.6992 4.3672 0.37763 1.7004 0.56641 3.5682 0.56641 5.6035 0 2.8082-0.39296 5.1658-1.1797 7.0723-0.50465 1.2566-1.1487 2.3369-1.9062 3.2715l5.6836 4.0156c1.7815-1.6896 3.1687-3.6907 4.1523-6.0117 1.1014-2.5505 1.6523-5.4359 1.6523-8.6562 0-2.937-0.34674-5.5907-1.0391-7.9609-0.69232-2.396-1.7306-4.4328-3.1152-6.1074-1.3846-1.7004-3.099-3.0139-5.1445-3.9414-2.0455-0.92746-4.4226-1.3906-7.1289-1.3906-3.084 0-5.9792 0.541-8.6855 1.623-2.6749 1.0563-4.8512 3.2886-6.9766 5.8906l0.20703-23.697h-8.5898zm0 51.85v1.334c0.99487 0.3965 2.187 0.75257 3.4082 1.0801l-3.4082-2.4141z"/>
  <path d="m8 72v16h79.529l-11.529-8.166v0.16602h-56v-8h-12z"/>
  <path class="Fix" d="M 96.25397,68 96,80 0,12 V 0 Z"/>
 </g>
</svg>
