<?xml version="1.0" encoding="UTF-8"?>
<svg width="96" height="96" version="1.1" viewBox="0 0 96 96" xmlns="http://www.w3.org/2000/svg">
 <style type="text/css">.Fix{fill:#888;}</style>
 <path class="Fix" d="m88.147 72.33q0 2.6948-1.8891 4.5793l-9.2175 9.195q-1.8891 1.8845-4.5905 1.8845t-4.5905-1.8845l-19.804-19.756-19.804 19.756q-1.8891 1.8845-4.5905 1.8845t-4.5905-1.8845l-9.2175-9.195q-1.8891-1.8845-1.8891-4.5793t1.8891-4.5793l19.804-19.756-19.804-19.756q-1.8891-1.8845-1.8891-4.5793 0-2.6948 1.8891-4.5793l9.2175-9.195q1.8891-1.8845 4.5905-1.8845t4.5905 1.8845l19.804 19.756 19.804-19.756q1.8891-1.8845 4.5905-1.8845t4.5905 1.8845l9.2175 9.195q1.8891 1.8845 1.8891 4.5793 0 2.6948-1.8891 4.5793l-19.804 19.756 19.804 19.756q1.8891 1.8845 1.8891 4.5793z" stroke-width=".91151"/>
</svg>
