<svg version="1.1" viewBox="0 0 96 96" xmlns="http://www.w3.org/2000/svg">
 <style type="text/css">.Fix{fill:#888;}</style>
 <path class="Fix" d="m90.147 68.33c0 1.7965-0.6297 3.323-1.8891 4.5793l-7.2175 7.195c-1.2594 1.2563-2.7896 1.8845-4.5905 1.8845s-3.3311-0.62817-4.5905-1.8845l-19.804-19.756-19.804 19.756c-1.2594 1.2563-2.7896 1.8845-4.5905 1.8845s-3.3311-0.62817-4.5905-1.8845l-7.2175-7.195c-1.2594-1.2563-1.8891-2.7828-1.8891-4.5793s0.6297-3.323 1.8891-4.5793l19.804-19.756-19.804-19.756c-1.2594-1.2563-1.8891-2.7828-1.8891-4.5793s0.6297-3.323 1.8891-4.5793l7.2175-7.195c1.2594-1.2563 2.7896-1.8845 4.5905-1.8845s3.3311 0.62817 4.5905 1.8845l19.804 19.756 19.804-19.756c1.2594-1.2563 2.7896-1.8845 4.5905-1.8845s3.3311 0.62817 4.5905 1.8845l7.2175 7.195c1.2594 1.2563 1.8891 2.7828 1.8891 4.5793s-0.6297 3.323-1.8891 4.5793l-19.804 19.756 19.804 19.756c1.2594 1.2563 1.8891 2.7828 1.8891 4.5793z"/>
</svg>
