<svg version="1.1" viewBox="0 0 128 128" xmlns="http://www.w3.org/2000/svg"><style type="text/css">.Fix{fill:#888;}</style><path class="Fix" d="m104 86.7q0 2.96-2.07 5.03l-10.1 10.1q-2.07 2.07-5.03 2.07t-5.03-2.07l-21.7-21.7-21.7 21.7q-2.07 2.07-5.03 2.07t-5.03-2.07l-10.1-10.1q-2.07-2.07-2.07-5.03t2.07-5.03l21.7-21.7-21.7-21.7q-2.07-2.07-2.07-5.03t2.07-5.03l10.1-10.1q2.07-2.07 5.03-2.07t5.03 2.07l21.7 21.7 21.7-21.7q2.07-2.07 5.03-2.07t5.03 2.07l10.1 10.1q2.07 2.07 2.07 5.03t-2.07 5.03l-21.7 21.7 21.7 21.7q2.07 2.07 2.07 5.03z"/></svg>
