<svg version="1.1" viewBox="0 0 96 96" xmlns="http://www.w3.org/2000/svg">
 <style type="text/css">.Fix{fill:#888;}</style>
 <path class="Fix" d="m8 8v9.6523l8 5.6504v-7.3027h32v-8h-40zm20.289 23.984 3.7109 2.623v-2.6074l-3.7109-0.015625zm-20.289 1.6816v30.334h40v-2l-8.4707-6h-23.529v-16h0.94141l-8.9414-6.334z"/>
 <path class="Fix" d="m36 31.988 11.018 13.229 29.178 20.611-8.1953-9.8281 20-24.012-12 0.011719-14 16-14-16-12-0.011719zm13.885 31.346-13.885 16.654h12.064l9.7617-11.029-7.9414-5.625z"/>
 <path class="Fix" d="M 96.253968,68 96,80 0,12 V 0 Z"/>
</svg>
