<svg width="128" height="128" version="1.1" viewBox="0 0 128 128" xmlns="http://www.w3.org/2000/svg"><path d="m124.26 51.975-11.7-16.175c-1.9893-2.7501-5.66-3.74-9.06-3.74h-15.48v-9.7014c0-3.54-2.86-6.4-6.4-6.4h-75.22c-3.54 0-6.4 2.86-6.4 6.4v69.098c0 8.84 7.16 16 16 16 5.26 0 9.88-2.58 12.8-6.48 2.92 3.92 7.54 6.48 12.8 6.48 8.84 0 16-7.16 16-16 0-1.1-0.12-2.16-0.32-3.2h32.64c-0.22 1.04-0.32 2.1-0.32 3.2 0 8.84 7.16 16 16 16 8.84 0 16-7.16 16-16 0-1.1-0.12-2.16-0.32-3.2h3.52c1.76 0 3.2-1.44 3.2-3.2v-24.042c0-3.4-1.7507-6.2899-3.74-9.04zm-108.26 49.082c-5.3 0-9.6-4.3-9.6-9.6 0-5.3 4.3-9.6 9.6-9.6 5.3 0 9.6 4.3 9.6 9.6 0 5.3-4.3 9.6-9.6 9.6zm25.6 0c-5.3 0-9.6-4.3-9.6-9.6 0-5.3 4.3-9.6 9.6-9.6 5.3 0 9.6 4.3 9.6 9.6 0 5.3-4.3 9.6-9.6 9.6zm40.02-19.2h-27.3c-2.92-3.86-7.5-6.4-12.72-6.4-5.22 0-9.8 2.54-12.72 6.4h-0.14c-2.94-3.86-7.54-6.4-12.74-6.4-3.62 0-6.92 1.24-9.6 3.28v-56.378h75.22zm6.4-43.417h15.48c1.7 0 3.32 0.66 4.52 1.88l10.92 15.395h-30.92zm17.58 62.617c-5.3 0-9.6-4.3-9.6-9.6 0-5.3 4.3-9.6 9.6-9.6s9.6 4.3 9.6 9.6c0 5.3-4.3 9.6-9.6 9.6zm16-19.2h-3.28c-2.92-3.86-7.5-6.4-12.72-6.4s-9.8 2.54-12.72 6.4h-4.8597v-19.742h33.58z" style="stroke-width:.2"/></svg>
