<svg version="1.1" viewBox="0 0 96 96" xmlns="http://www.w3.org/2000/svg">
 <style type="text/css">.Fix{fill:#888;}</style>
 <g class="Fix">
  <path d="m32.047 63.329-0.05532-5.3838c-1.9233 2.0552-2.6255 3.6338-4.8337 4.6338-2.1822 1-4.4812 1.5-6.8972 1.5-2.2341 0-4.1435-0.30556-5.7282-0.91667s-2.8966-1.5305-3.9357-2.5c-1.0131-0.995-1.7665-2.1558-2.2601-3.4825-0.46761-1.3267-0.70141-2.7681-0.70141-4.3244 0-3.8524 1.4548-6.863 4.3643-9.0315 2.9355-2.1941 7.2671-3.0342 12.976-3.2912h6.842v-3.3677c0-2.2722 0.52275-4.0821-0.958-5.4342-1.4808-1.3777-3.7408-2.0665-6.7803-2.0665-2.2081 0-4.3903 0.24237-6.5465 0.72712-2.1302 0.48474-4.3383 1.1736-6.6244 2.0665v-6.0083c0.85728-0.30615 1.8055-0.59955 2.8446-0.88019 1.0651-0.30616 2.1822-0.57404 3.3512-0.80366s2.39-0.4082 3.6629-0.53577c1.2729-0.15308 2.5588-0.22962 3.8577-0.22962 2.364 0 4.4942 0.25513 6.3906 0.76538 1.8964 0.51026 3.494 1.2884 4.793 2.3344 1.3249 1.046 2.338 2.3599 3.0394 3.9417s1.1517 3.4442 1.1517 5.5873v26.7zm-0.2291-17.706h-7.3486c-1.6886 0-3.1433 0.16583-4.3643 0.4975-1.221 0.33167-2.2211 0.80366-3.0005 1.416-0.77934 0.61231-1.3638 1.3522-1.7535 2.2196-0.36369 0.84192-0.54554 1.7987-0.54554 2.8702 0 0.73987 0.1169 1.4542 0.3507 2.1431 0.2338 0.66333 0.61048 1.2629 1.13 1.7987 0.51956 0.51026 1.195 0.91846 2.0263 1.2246 0.8313 0.30615 1.8444 0.45923 3.0394 0.45923 1.5587 0 3.3382-0.45923 5.3385-1.3777 2.0263-0.94398 2.404-2.4237 5.1275-4.4392z"/>
  <path d="m88 43.399c0 3.2204-0.55071 6.1058-1.6521 8.6563-1.07 2.5248-2.6119 4.676-4.626 6.4536-1.9826 1.7519-4.4057 3.1044-7.2694 4.0577-2.8637 0.92746-6.0893 1.3912-9.6768 1.3912-2.8008 0-5.5987-0.21898-8.2342-0.65696s-6.4345-1.2736-9.0134-2.3014v-53.184h8.5883l-0.20538 23.699c2.1254-2.6021 4.3016-4.8353 6.9765-5.8916 2.7064-1.082 5.6015-1.6231 8.6855-1.6231 2.7064 0 5.0823 0.46373 7.1278 1.3912 2.0455 0.92747 3.7606 2.2414 5.1452 3.9417 1.3846 1.6746 2.4231 3.7099 3.1155 6.1058 0.69232 2.3702 1.0385 5.0238 1.0385 7.9607zm-8.4023 0.30916c0-2.0353-0.18882-3.9031-0.56645-5.6034-0.34616-1.7004-0.91261-3.156-1.6993-4.3668-0.78673-1.2109-1.7937-2.1512-3.021-2.821-1.2273-0.6956-2.6906-1.0434-4.39-1.0434-1.0385 0-2.0927 0.1417-3.1627 0.42509-1.07 0.25763-2.1871 0.70848-3.3515 1.3526-1.1329 0.61831-2.3445 1.4556-3.6347 2.5119-1.2588 1.0305-2.3521 2.3187-3.6557 3.8644v18.82c1.4453 0.51526 2.8375 0.92747 4.5054 1.2366 1.6679 0.28339 3.2571 0.42509 4.7676 0.42509 1.8882 0 3.6819-0.24475 5.3812-0.73424 1.7308-0.4895 3.2413-1.301 4.5316-2.4346 1.3217-1.1593 2.3602-2.6793 3.1155-4.56 0.78673-1.9065 1.1801-4.2638 1.1801-7.0719z"/>
  <path d="m8 72v16h80v-16h-12v8h-56v-8z"/>
 </g>
</svg>
