<svg width="128" height="128" version="1.1" viewBox="0 0 128 128" xmlns="http://www.w3.org/2000/svg"><style type="text/css">.Invers{fill:#000000;}</style><path class="Invers" d="m12.608 7.5604h2.2216c1.4722 0 2.6661 1.1937 2.6661 2.6661v24.577c9.5968-16.346 27.381-27.307 47.721-27.244 30.301 0.094865 54.97 24.885 54.922 55.186-0.0475 30.39-24.698 55.009-55.098 55.009-14.203 0-27.15-5.3736-36.92-14.198-1.136-1.026-1.1895-2.7907-0.10712-3.8731l1.5705-1.5705c1.0004-1.0004 2.6103-1.0473 3.6618-0.10094 8.4182 7.5764 19.56 12.189 31.795 12.189 26.158 0 47.544-21.18 47.544-47.544 0-26.158-21.18-47.544-47.544-47.544-18.41 0-34.379 10.459-42.275 25.771h25.392c1.4722 0 2.6661 1.1937 2.6661 2.6661v2.2217c0 1.4722-1.1937 2.6661-2.6661 2.6661h-35.548c-1.4722 7e-5 -2.6661-1.1936-2.6661-2.666v-35.548c0-1.4722 1.1937-2.6661 2.6661-2.6661z" style="stroke-linejoin:round;stroke-width:1.564;stroke:#000"/></svg>
