<svg width="128" height="128" version="1.1" viewBox="0 0 128 128" xmlns="http://www.w3.org/2000/svg">
 <path d="m0.22514 32 59.662-26.32 60.113 26.32v24h-16v32l8 8 8 16v16l-120-0.22468v-15.775l8-16 8-8v-32h-16v-24" style="fill-opacity:.99597;fill:#fbfbfb"/>
 <path d="m105.82 112.03h-1.6972v-10.919c0-2.8454-2.2836-5.3006-5.0918-5.152l-3.0319 0.04133v-40h-8v40.138l-8-0.17958v-39.959h-8v39.959l-8 0.04133v-40h-8v40l-8-0.04133v-39.959h-8v40l-8 0.13825v-40.138h-8v39.959h-3.0417c-2.8121 0-5.0918 2.3066-5.0918 5.152v10.919h-1.6973c-2.8121 0-5.0918 2.3066-5.0918 5.152v1.0755c0 0.94846 0.75988 1.7173 1.6973 1.7173h98.441c0.93737 0 1.6972-0.76888 1.6972-1.7173v-1.0755c0-2.8454-2.2952-5.4479-5.0918-5.152zm-9.8808 0h-71.89v-7.9469h71.89zm13.332-77.888-46.057-19.807c-2.0904-0.70497-4.3503-0.70497-6.4406 0l-46.057 19.807c-0.98779 0.38018-1.6407 1.3384-1.6406 2.4077v5.9519c0 1.4226 1.2741 1.9766 2.5459 2.576h4.2431v0.42102c0 1.4226 1.1399 2.576 2.5459 2.576h83.165c1.4059 0 2.5459-3.9986 2.5459-2.576v-0.42102h4.2431c1.406 0 2.5459-1.1534 2.5459-2.576v-5.9519c0-1.0695-0.65281-2.0275-1.6406-2.4077zm-93.272 5.8585 44.534-18.584 43.466 18.584z" style="stroke-width:.21341"/>
</svg>
