<?xml version="1.0" encoding="utf-8"?>
<!-- Generator: Adobe Illustrator 20.1.0, SVG Export Plug-In . SVG Version: 6.00 Build 0)  -->
<svg version="1.0" id="Layer_1" xmlns="http://www.w3.org/2000/svg" xmlns:xlink="http://www.w3.org/1999/xlink" x="0px" y="0px"
	 viewBox="0 0 223.5 66" style="enable-background:new 0 0 223.5 66;" xml:space="preserve">
<style type="text/css">
	.st0{fill:#F39619;}
</style>
<path d="M88.2,19.3c6.4,0,9.7,3.2,9.7,3.2l-1.9,2.8c0,0-3-2.6-7.5-2.6c-6.3,0-10.1,4.6-10.1,10.3c0,6.2,4.2,10.5,9.9,10.5
	c4.6,0,7.6-3.3,7.6-3.3v-3.9h-4.4v-3.3h7.8v13.5H96v-1.7c0-0.6,0-1.1,0-1.1h-0.1c0,0-2.9,3.3-8.2,3.3c-7.2,0-13.2-5.7-13.2-13.9
	C74.6,25.4,80.4,19.3,88.2,19.3z"/>
<path d="M130.2,38.8h-10.1l-2.7,7.7h-3.9l9.6-26.8h3.9l9.6,26.8h-3.9L130.2,38.8z M125.1,23.4c0,0-0.6,2.4-1.1,3.8l-3,8.5h8.1
	l-3-8.5C125.8,25.9,125.2,23.4,125.1,23.4L125.1,23.4z"/>
<path d="M153.2,19.7h3.9l6.1,14.5c0.6,1.5,1.3,3.6,1.3,3.6h0.1c0,0,0.7-2.1,1.3-3.6l6.1-14.5h3.9l2.2,26.8h-3.7l-1.3-16.9
	c-0.1-1.6,0-3.9,0-3.9h-0.1c0,0-0.8,2.5-1.4,3.9l-5.3,12.1H163l-5.3-12.1c-0.6-1.4-1.4-4-1.4-4h-0.1c0,0,0,2.4-0.1,4l-1.3,16.9H151
	L153.2,19.7z"/>
<path d="M195.6,40.7c0,0,2.8,2.9,6.8,2.9c2.5,0,4.6-1.4,4.6-3.9c0-5.8-13-4.5-13-12.8c0-4.2,3.6-7.5,8.6-7.5c5,0,7.6,2.7,7.6,2.7
	l-1.7,3.1c0,0-2.5-2.3-5.9-2.3c-2.8,0-4.9,1.8-4.9,3.9c0,5.5,13,4.1,13,12.7c0,4.1-3.2,7.5-8.5,7.5c-5.7,0-8.9-3.5-8.9-3.5
	L195.6,40.7z"/>
<g>
	<path d="M3.1,34v28.7h27.9V35.2C18.2,25,6,32.1,3.1,34z"/>
	<path d="M34.5,36.6v26.1h27.9V27.8C60.9,29.4,48.4,40.4,34.5,36.6z"/>
	<g>
		<path class="st0" d="M32.9,30.4c14.2,5.3,29.5-12.6,29.5-12.6V3.2H3.1v28C13.7,24.5,19,25.2,32.9,30.4z"/>
	</g>
</g>
</svg>
