<svg width="128" height="128" version="1.1" viewBox="0 0 128 128" xmlns="http://www.w3.org/2000/svg"><style type="text/css">.Line{fill:#000000;}</style><path class="Line" d="m63.737 97.55 2.7776-2.7671c0.84994-0.84745 0.84994-2.2216 0-3.0692l-26.862-27.595h62.134c1.202 0 2.1837-0.97174 2.1766-2.1702l-0.0376-3.4831c-7e-3 -1.1985-1.0654-2.1702-2.2675-2.1702h-62.134l26.991-27.723c0.83725-0.85998 0.84994-2.2216 0-3.0692l-2.7776-2.7669c-0.84994-0.84745-2.2281-0.84745-3.0782 0l-35.984 35.873c-0.85001 0.84738-0.84994 2.2216 0 3.0692l35.984 35.873c0.84994 0.84744 2.2281 0.84744 3.0782-1.8e-4z" style="stroke-width:.66926"/></svg>
