<svg width="128" height="128" version="1.1" viewBox="0 0 128 128" xmlns="http://www.w3.org/2000/svg"><style type="text/css">.Line{fill:#000000;}</style><path class="Line" d="m39.788 38.799v-4.9695c0-0.9583 0.78406-1.7424 1.7424-1.7424h45.81c0.9583 0 1.7424 0.78406 1.7424 1.7424v4.9695c0 0.9583-0.78406 1.7424-1.7424 1.7424h-45.81c-0.9583 0-1.7424-0.78406-1.7424-1.7424zm1.7424 25.755h45.81c0.9583 0 1.7424-0.78406 1.7424-1.7424v-4.9695c0-0.9583-0.78406-1.7424-1.7424-1.7424h-45.81c-0.9583 0-1.7424 0.78406-1.7424 1.7424v4.9695c0 0.9583 0.78406 1.7424 1.7424 1.7424zm67.651 32.142c-0.91474 2.935-0.91474 11.65 0 14.585 1.5899 0.31608 2.8096 1.7836 2.8096 3.5446v1.4847c0 1.9166-1.5681 3.4847-3.4847 3.4847h-83.172c-9.6266 0-17.424-7.7971-17.424-17.424v-76.664c0-9.6266 7.7971-17.424 17.424-17.424h83.172c1.9166 0 3.4847 1.5681 3.4847 3.4847v81.383c0 1.761-1.1979 3.2059-2.8096 3.5445zm-6.9514 0.06777h-78.896c-3.8332 0-6.9695 3.2511-6.9695 7.2246 0 3.9961 3.1145 7.2245 6.9695 7.2245h78.896c-0.58805-3.9058-0.58805-10.543 0-14.449zm1.3068-78.026h-80.203c-3.855 0-6.9695 3.1145-6.9695 6.9695v63.806c2.1344-0.9708 4.4865-1.5123 6.9695-1.5126h80.203z"/></svg>
