<svg width="128" height="128" version="1.1" viewBox="0 0 128 128" xmlns="http://www.w3.org/2000/svg"><style type="text/css">.Line{fill:#000000;}</style><path class="Line" d="m120.24 107.64-34.345-97.819c-0.33502-1.0733-1.2447-1.7496-2.2108-1.7496-0.58629 0-0.96805 0.2247-2.2381 0.7221-1.2583 0.49303-1.9128 1.7976-1.2213 4.0097-3.2061 2.1139-11.522 5.2554-14.706 5.7636-0.25906-0.82462-0.38372-1.4442-1.2466-2.0136v-1.5009c0-3.8548-2.7912-6.9809-6.233-6.9809h-18.699c-1.1609 0-2.1854 0.45158-3.1165 1.0689-0.92908-0.61738-1.9536-1.0689-3.1145-1.0689h-18.699c-3.4418 0-6.233 3.1261-6.233 6.9809v97.736c0 3.8548 2.7912 6.9809 6.233 6.9809h18.699c1.1609 0 2.1854-0.45159 3.1165-1.069 0.93101 0.61957 1.9556 1.069 3.1165 1.069h18.699c3.4418 0 6.233-3.1261 6.233-6.9809v-78.78l29.496 84.011c0.33697 1.0733 1.2466 1.7496 2.2108 1.7496 0.58434 0 0.96612-0.22471 2.2381-0.7221 1.2544-0.49085 1.9147-1.7954 1.2213-4.0097 3.2061-2.1139 11.522-5.2554 14.706-5.7636 0.71096 2.2688 1.9732 2.7597 3.1905 2.2819l1.4706-0.57592c1.2135-0.47777 1.8582-1.9787 1.4336-3.3334zm-87.131 5.1419h-18.699v-13.961h18.699zm0-20.943h-18.699v-55.848h18.699zm0-62.828h-18.699v-13.961h18.699zm24.932 83.772h-18.699v-13.961h18.699zm0-20.943h-18.699v-55.848h18.699zm0-62.828h-18.699v-13.961h18.699zm39.57 80.181-30.262-84.788c4.9124-1.034 12.468-4.4351 14.706-5.7636l30.262 84.786c-4.9143 1.0362-12.468 4.4351-14.706 5.7658z"/></svg>
