<svg width="128" height="128" version="1.1" viewBox="0 0 128 128" xmlns="http://www.w3.org/2000/svg"><style type="text/css">.Line{fill:#000000;}</style><path d="m59.973 0.084523c-5.3617-4.5231e-4 -10.724 0.67737-15.929 2.035-2.6189 0.68317-4.443 3.0078-4.443 5.6656v8.9752c-2.877 1.2846-5.6206 2.8393-8.1915 4.6432l-7.9143-4.4838c-2.3428-1.3271-5.303-0.94544-7.2148 0.9318-7.5228 7.386-13.109 16.668-15.949 27.054-0.70181 2.5668 0.43527 5.2763 2.782 6.6052l7.928 4.4895c-0.30374 3.0856-0.30374 6.1909 0 9.2768l-7.928 4.4895c-2.3468 1.3286-3.4839 4.0386-2.782 6.6052 2.8392 10.385 8.4259 19.667 15.949 27.054 1.9121 1.8772 4.8719 2.2589 7.2148 0.9318l7.9143-4.4838c2.5706 1.8042 5.3137 3.3588 8.1915 4.6431v8.9752c3.36e-4 2.6578 1.8223 4.9824 4.4411 5.6656 10.397 2.712 21.441 2.7154 31.851 0 2.6189-0.68321 4.443-3.0078 4.443-5.6656v-8.9733c2.8769-1.2846 5.6187-2.8412 8.1896-4.6451l7.9143 4.4838c2.3428 1.3271 5.3053 0.94544 7.2175-0.9318 7.5228-7.386 13.109-16.668 15.949-27.054 0.70181-2.5668-0.43725-5.2763-2.784-6.6052l-7.928-4.4895c0.30363-3.0882 0.30352-6.1886 0-9.2768l7.928-4.4895c2.3468-1.3286 3.4859-4.0386 2.784-6.6052-2.8392-10.385-8.4263-19.667-15.949-27.054-1.9121-1.8772-4.8742-2.2589-7.2175-0.9318l-7.9143 4.4838c-2.5707-1.8042-5.3122-3.359-8.1896-4.6432v-8.9752c-3.16e-4 -2.6578-1.8243-4.9824-4.443-5.6656-5.1986-1.356-10.559-2.0345-15.921-2.035zm-0.0038 6.1444c3.1363 0 6.2736 0.25862 9.3766 0.77813 0.78442 0.13225 1.3577 0.79932 1.3579 1.5799v12.293c8.8864 3.1179 11.768 4.7472 18.994 10.766l10.857-6.1425c0.68747-0.39112 1.5622-0.24066 2.0729 0.35656 4.0275 4.7468 7.2041 10.134 9.3904 15.925 0.27661 0.73196-0.0244 1.5529-0.71305 1.9444l-10.857 6.1505c1.6799 9.1266 1.6816 12.389 0 21.524l10.857 6.1425c0.69155 0.39196 0.99305 1.2166 0.71305 1.9503-2.1862 5.791-5.3633 11.173-9.3904 15.919-0.50854 0.59991-1.3836 0.75373-2.0729 0.36444l-10.857-6.1505c-7.2281 6.0212-10.108 7.6482-18.994 10.766v12.293c-1.33e-4 0.78061-0.57346 1.4477-1.3579 1.5799-6.2057 1.0391-12.547 1.0391-18.753 0-0.78442-0.13224-1.3577-0.79932-1.3579-1.5799v-12.293c-8.8864-3.1179-11.771-4.7468-18.996-10.766l-10.855 6.1505c-0.68938 0.38933-1.5644 0.23547-2.073-0.36444-4.0275-4.7468-7.2045-10.128-9.3904-15.919-0.28-0.73364 0.0215-1.5583 0.71306-1.9503l10.857-6.1425c-1.6808-9.1308-1.6805-12.394 0-21.524l-10.857-6.1505c-0.68862-0.39147-0.98974-1.2124-0.71313-1.9444 2.1779-5.7765 5.3503-11.171 9.3824-15.925 0.5117-0.60144 1.3916-0.7522 2.081-0.35656l10.855 6.1425c7.2278-6.0212 10.11-7.6486 18.996-10.766v-12.293c1.29e-4 -0.78061 0.57346-1.4477 1.3579-1.5799 3.103-0.51951 6.24-0.77813 9.3766-0.77813zm0 32.572c-12.142 0-21.992 9.7815-21.992 21.837s9.8513 21.837 21.992 21.837 21.992-9.7815 21.992-21.837-9.8513-21.837-21.992-21.837zm0 7.2712c8.0889 0 14.67 6.5347 14.67 14.566 0 8.0317-6.5808 14.566-14.67 14.566s-14.67-6.5343-14.67-14.566c0-8.0317 6.5808-14.566 14.67-14.566z"/></svg>
