<svg width="128" height="128" version="1.1" viewBox="0 0 128 128" xmlns="http://www.w3.org/2000/svg"><style type="text/css">.Line{fill:#000000;}</style><path class="Line" d="m96 16h-72c-8.825 0-16 7.175-16 16v64c0 8.825 7.175 16 16 16h16v13c0 1.775 1.45 3 3 3 0.6 0 1.225-0.175 1.775-0.6l31.225-15.4h20c8.825 0 16-7.175 16-16v-64c0-8.825-7.175-16-16-16zm8 80c0 4.4-3.6 8-8 8h-22.675l-2.125 1.6-23.2 9.4v-11h-24c-4.4 0-8-3.6-8-8v-64c0-4.4 3.6-8 8-8h72c4.4 0 8 3.6 8 8zm-34-24h-44c-1.1 0-2 0.9-2 2v4c0 1.1 0.9 2 2 2h44c1.1 0 2-0.9 2-2v-4c0-1.1-0.9-2-2-2zm24-24h-68c-1.1 0-2 0.9-2 2v4c0 1.1 0.9 2 2 2h68c1.1 0 2-0.9 2-2v-4c0-1.1-0.9-2-2-2z"/></svg>
