<svg width="128" height="128" version="1.1" viewBox="0 0 128 128" xmlns="http://www.w3.org/2000/svg"><style type="text/css">.Line{fill:#000000;}</style><path class="Line" d="m116.49 16.485-12.97-12.97a12 12 0 0 0-8.4852-3.5148h-43.03c-6.6275 0-12 5.3725-12 12v12h-20c-6.6275 0-12 5.3725-12 12v80c0 6.6275 5.3725 12 12 12h56c6.6275 0 12-5.3725 12-12v-12h20c6.6275 0 12-5.3725 12-12v-67.03a12 12 0 0 0-3.5148-8.4852zm-20.485-8.3625a3.97 3.97 0 0 1 1.8578 1.0488l12.97 12.971a3.9712 3.9712 0 0 1 1.0488 1.8578h-15.877zm-16 107.88c0 2.2055-1.7945 4-4 4h-56c-2.2055 0-4-1.7945-4-4v-80c0-2.2055 1.7945-4 4-4h20v60c0 6.6275 5.3725 12 12 12h28zm32-24c0 2.2055-1.7945 4-4 4h-56c-2.2055 0-4-1.7945-4-4v-80c0-2.2055 1.7945-4 4-4h36v18c0 3.3 2.7 6 6 6h18z"/></svg>
