<svg width="128" height="128" version="1.1" viewBox="0 0 128 128" xmlns="http://www.w3.org/2000/svg"><style type="text/css">.Line{fill:#000000;}</style><path class="Line" d="m70.363 63.837 49.314-49.279c0.38983-0.39 0.38983-1.0221 0-1.4121-3.1242-3.1242-12.188-7.1242-15.309-4l-44.368 44.333-8.1567-8.1492c2.6143-3.844 4.1439-8.4852 4.1439-13.484 0-13.251-10.742-23.994-23.994-23.994-13.251 0-23.994 10.742-23.994 23.994 0 13.251 10.742 23.994 23.994 23.994 5.0012 0 9.6424-1.5296 13.486-4.1489l4.1542 12.147-4.1542 12.147c-3.844-2.6193-8.4852-4.1489-13.486-4.1489-13.251 0-23.994 10.742-23.994 23.994 0 13.251 10.742 23.994 23.994 23.994 13.251 0 23.994-10.742 23.994-23.994 0-4.9987-1.5296-9.6399-4.1439-13.484l8.1567-8.1492 44.368 44.333c3.1242 3.1242 12.188-0.87583 15.309-4 0.38983-0.38999 0.38983-1.0221 0-1.4121zm-38.37-15.996c-8.8201 0-15.996-7.1756-15.996-15.996 0-8.8201 7.1756-15.996 15.996-15.996 8.8201 0 15.996 7.1756 15.996 15.996 0 8.8201-7.1756 15.996-15.996 15.996zm0 63.983c-8.8201 0-15.996-7.1756-15.996-15.996 0-8.8201 7.1756-15.996 15.996-15.996 8.8201 0 15.996 7.1756 15.996 15.996 0 8.8201-7.1756 15.996-15.996 15.996z"/></svg>
