<svg width="128" height="128" version="1.0" viewBox="0 0 128 128" xmlns="http://www.w3.org/2000/svg"><style type="text/css">.Line{fill:#000000;}</style><path class="Line" d="m104.02 71.238v29.134c0 5.4014-1.9177 10.02-5.7532 13.855-3.8355 3.8355-8.4539 5.7532-13.855 5.7532h-64.803c-5.4014 0-10.02-1.9177-13.855-5.7532-3.8355-3.8355-5.7532-8.4539-5.7532-13.855v-64.719c0-5.4014 1.9177-10.02 5.7532-13.855 3.8355-3.8355 8.4539-5.7532 13.855-5.7532h47.932c0.63546 0 1.1574 0.20426 1.566 0.61276 0.40851 0.40851 0.61276 0.9305 0.61276 1.566v4.3574c0 0.63546-0.20425 1.1574-0.61276 1.566-0.40851 0.40851-0.9305 0.61276-1.566 0.61276h-47.932c-2.9957 0-5.5603 1.0667-7.6936 3.2s-3.2 4.6979-3.2 7.6936v64.719c0 2.9958 1.0667 5.5603 3.2 7.6936s4.6979 3.2 7.6936 3.2h64.803c2.9957 0 5.5603-1.0667 7.6936-3.2s3.2-4.6979 3.2-7.6936v-29.134c0-0.63546 0.20426-1.1574 0.61277-1.566 0.4085-0.40851 0.93049-0.61276 1.566-0.61276h4.3574c0.63545 0 1.1574 0.20425 1.566 0.61276 0.40851 0.40851 0.61276 0.9305 0.61276 1.566zm15.98-58.814v30.86c0 1.1801-0.43121 2.2014-1.2936 3.0638-0.86242 0.86241-1.8837 1.2936-3.0638 1.2936-1.1802 0-2.2014-0.4312-3.0638-1.2936l-11.983-11.983-46.383 46.383c-0.4539 0.4539-0.97589 0.68086-1.566 0.68086-0.59007 0-1.1121-0.22695-1.566-0.68086l-3.7617-3.7617c-0.4539-0.45391-0.68085-0.97589-0.68085-1.566 0-0.59007 0.22695-1.1121 0.68085-1.566l46.383-46.383-11.983-11.983c-0.86241-0.86241-1.2936-1.8837-1.2936-3.0638s0.43121-2.2014 1.2936-3.0638c0.86241-0.86241 1.8837-1.2936 3.0638-1.2936h30.86c1.1801 0 2.2014 0.4312 3.0638 1.2936 0.86241 0.86241 1.2936 1.8837 1.2936 3.0638z"/></svg>
