<svg width="128" height="128" version="1.1" viewBox="0 0 128 128" xmlns="http://www.w3.org/2000/svg"><style type="text/css">.Line{fill:#000000;}</style><path class="Line" d="m114.75 8h-1.7478v5.8333c0 1.925-1.1797 3.5-2.6216 3.5h-4.4676c-1.4419 0-2.6216-1.575-2.6216-3.5v-5.8333h-78.724v5.8333c0 1.925-1.1797 3.5-2.6216 3.5h-4.1964c-1.4419 0-2.6216-1.575-2.6216-3.5v-5.8333h-1.7478c-2.9057 0-5.2433 3.1208-5.2433 7v98c0 3.8792 2.3376 7 5.2433 7h1.7478v-5.8333c0-1.925 1.1797-3.5 2.6216-3.5h4.1964c1.4419 0 2.5322 1.5771 2.6216 3.5v5.8333h78.724v-5.8333c0-1.925 1.1798-3.5 2.6216-3.5h4.4676c1.4419 0 2.6216 1.575 2.6216 3.5v5.8333h1.7478c2.9057 0 5.2433-3.1208 5.2433-7v-98c0-3.8792-2.3376-7-5.2433-7zm-90.183 89.833c0 1.925-1.1797 3.5-2.6216 3.5h-4.1964c-1.4419 0-2.6216-1.575-2.6216-3.5v-11.667c0-1.925 1.1797-3.5 2.6216-3.5h4.1964c1.4419 0 2.6216 1.575 2.6216 3.5zm0-28c0 1.925-1.1797 3.5-2.6216 3.5h-4.1964c-1.4419 0-2.6216-1.575-2.6216-3.5v-11.667c0-1.925 1.1797-3.5 2.6216-3.5h4.1964c1.4419 0 2.6216 1.575 2.6216 3.5zm0-28c0 1.925-1.1797 3.5-2.6216 3.5h-4.1964c-1.4419 0-2.6216-1.575-2.6216-3.5v-11.667c0-1.925 1.1797-3.5 2.6216-3.5h4.1964c1.4419 0 2.6216 1.575 2.6216 3.5zm71.733 65.333c0 1.925-1.1797 3.5-2.6216 3.5h-59.499c-1.4419 0-2.6216-1.575-2.6216-3.5v-35c0-1.925 1.1797-3.5 2.6216-3.5h59.499c1.4419 0 2.6216 1.575 2.6216 3.5zm0-51.333c0 1.925-1.1797 3.5-2.6216 3.5h-59.499c-1.4419 0-2.6216-1.575-2.6216-3.5v-35c0-1.925 1.1797-3.5 2.6216-3.5h59.499c1.4419 0 2.6216 1.575 2.6216 3.5zm16.702 42c0 1.925-1.1797 3.5-2.6216 3.5h-4.4676c-1.4419 0-2.6216-1.575-2.6216-3.5v-11.667c0-1.925 1.1798-3.5 2.6216-3.5h4.4676c1.4419 0 2.6216 1.575 2.6216 3.5zm0-28c0 1.925-1.1797 3.5-2.6216 3.5h-4.4676c-1.4419 0-2.6216-1.575-2.6216-3.5v-11.667c0-1.925 1.1798-3.5 2.6216-3.5h4.4676c1.4419 0 2.6216 1.575 2.6216 3.5zm0-28c0 1.925-1.3181 2.8477-2.6216 3.5-1.3318 0.6664-4.4676 0-4.4676 0-1.4419 0-2.6216-1.575-2.6216-3.5v-11.667c0-1.925 1.1798-3.5 2.6216-3.5h4.4676c1.4419 0 2.6216 1.575 2.6216 3.5z"/></svg>
