<svg width="128" height="128" version="1.1" viewBox="0 0 128 128" xmlns="http://www.w3.org/2000/svg"><style type="text/css">.Line{fill:#000000;}</style><path class="Line" d="m116.96 55.886h-12.619v-11.957c0-6.6038-4.759-11.957-10.63-11.957h-33.433l-14.173-15.942h-35.433c-5.8706 0-10.63 5.3533-10.63 11.957v71.742c0 6.6038 4.759 11.957 10.63 11.957h85.271c6.2157 0 11.988-3.67 15.191-9.6753l14.938-28.015c4.2366-7.9425-0.84683-18.109-9.1147-18.109zm-105.47-31.886h31.683l14.173 15.942h35.554c1.957 0 3.5183 1.7845 3.5433 3.9857v11.957h-58.49c-6.2157 0-11.988 3.67-15.191 9.6753l-14.816 28.218v-65.793c0-2.2014 1.5862-3.9857 3.5433-3.9857zm108.52 45.893-14.943 28.015c-1.9209 3.6017-5.381 5.8053-9.1147 5.8051h-85.975l18.163-34.052c1.9211-3.6015 5.3811-5.8052 9.1149-5.8051h79.717c2.7542 0 4.4553 3.3799 3.0383 6.0363z"/></svg>
