<svg width="128" height="128" version="1.1" viewBox="0 0 128 128" xmlns="http://www.w3.org/2000/svg"><style type="text/css">.Line{fill:#000000;}</style><path class="Line" d="m51.936-0.041016c-15.232 0-43.664 3.5565-43.664 18.166v60.559c0 7.3815 7.2482 11.934 16.377 14.637v-6.3594c-6.285-2.1674-10.139-5.0806-10.139-8.2773v-8.043c2.707 1.8476 6.1748 3.3598 10.139 4.5566v-6.4043c-6.285-2.1674-10.139-5.0787-10.139-8.2754v-8.043c2.707 1.8476 6.1748 3.3578 10.139 4.5547v-6.4043c-6.285-2.1674-10.139-5.0787-10.139-8.2754v-8.043c3.4826 2.377 8.2229 4.1992 13.664 5.5059 1.1084-1.5246 2.404-2.8745 3.7949-3.9941 0.48506-0.39048 0.98175-0.76166 1.4883-1.1172-11.305-2.0882-18.947-6.0201-18.947-10.52v-6.0566c0-6.6709 16.763-12.111 37.426-12.111 20.663 0 37.426 5.4405 37.426 12.111v6.0566c0 0.60516-0.14945 1.1996-0.41602 1.7812 2.1847 0.23397 4.4122 0.54505 6.6543 0.92578v-8.7637c0-14.636-28.478-18.166-43.664-18.166zm23.951 32.336c-15.33 0-43.945 3.5047-43.945 17.896v59.656c0 14.418 28.662 17.896 43.945 17.896 15.33 0 43.945-3.5047 43.945-17.896v-59.656c0-14.418-28.662-17.896-43.945-17.896zm0 5.9668c20.796 0 37.668 5.3582 37.668 11.93v5.9668c0 6.5715-16.872 11.932-37.668 11.932-20.796 0-37.668-5.3602-37.668-11.932v-5.9668c0-6.5715 16.872-11.93 37.668-11.93zm-37.668 27.869c8.0927 5.4063 22.905 7.9238 37.668 7.9238 14.763 0 29.575-2.5175 37.668-7.9238v7.9238c0 6.5715-16.872 11.932-37.668 11.932-20.796 0-37.668-5.3602-37.668-11.932v-7.9238zm0 17.896c8.0927 5.4063 22.905 7.9238 37.668 7.9238 14.763 0 29.575-2.5175 37.668-7.9238v7.9238c0 6.5715-16.872 11.932-37.668 11.932-20.796 0-37.668-5.3602-37.668-11.932v-7.9238zm0 17.898c8.0927 5.4063 22.905 7.9219 37.668 7.9219 14.763 0 29.575-2.5156 37.668-7.9219v7.9219c0 6.5715-16.872 11.932-37.668 11.932-20.796 0-37.668-5.3602-37.668-11.932v-7.9219z"/></svg>
