<svg width="128" height="128" version="1.1" viewBox="0 0 128 128" xmlns="http://www.w3.org/2000/svg"><style type="text/css">.Line{fill:#000000;}</style><path class="Line" d="m59.988 12.773c-1.7663 0-3.532 0.66957-4.9745 2.0113l-47.848 44.265c-0.66727 0.62095-0.76419 1.7295-0.21468 2.5057l3.3737 4.1108c0.54952 0.75401 1.5303 0.86378 2.2171 0.24283l3.496-3.2707v45.933c0 1.9516 1.4121 3.5474 3.1392 3.5474h35.277c0.86352 0 1.5745-0.79796 1.5696-1.7737v-30.386h14.56v30.386c0 0.97578 0.70608 1.7737 1.5696 1.7737h28.665c1.727 0 3.141-1.5959 3.141-3.5474v-45.956l3.4942 3.2725c0.66727 0.62095 1.6694 0.50943 2.2189-0.24459l3.3736-4.109c0.51027-0.75401 0.41212-1.8637-0.25513-2.4846l-8.851-8.1841v-22.131c0-0.97578-0.70784-1.7755-1.5714-1.7755h-4.8903c-0.86353 0-1.5893 0.7999-1.5696 1.7755l0.11441 14.92-31.059-28.87c-1.4425-1.3417-3.21-2.0113-4.9763-2.0113zm-0.01935 9.6805c0.35326 0 0.70611 0.13332 0.99068 0.39944l35.083 32.589v48.337h-16.058v-30.692c0-0.97578-0.70608-1.7737-1.5696-1.7737h-28.719c-0.86352 0-1.5696 0.79793-1.5696 1.7737v30.692h-24.383v-48.185l35.235-32.742c0.28457-0.26612 0.63742-0.39944 0.99068-0.39944z"/></svg>
