<svg width="128" height="128" version="1.1" viewBox="0 0 128 128" xmlns="http://www.w3.org/2000/svg"><style type="text/css">.Line{fill:#000000;}</style><path class="Line" d="m73.342 16-9.3423 32h32l-48 64 13.315-48h-33.887l8.2126-48m33.413-8h-31.805c-6.6526 0-10.665 4.722-11.293 10.15l-6.6481 43.242c-0.7178 6.2058 3.8953 11.03 11.492 11.188h18.847l-9.6293 34.54c-1.9014 6.8203 1.182 14.045 7.7732 14.045 4.5532 0 8.563-3.5544 10.904-6.9878l43.304-58.726c4.7988-7.0387 0.59089-15.566-9.2475-15.525l-17.489 0.073809 5.6529-18.685c2.1953-6.7012-3.3668-13.315-11.861-13.315z"/></svg>
