<svg width="128" height="128" version="1.1" viewBox="0 0 128 128" xmlns="http://www.w3.org/2000/svg"><style type="text/css">.Line{fill:#000000;}</style><path class="Line" d="m29.443 16c-7.3771 0-13.443 6.0681-13.443 13.445v69.111c0 7.3771 6.0661 13.443 13.443 13.443h69.113c7.3771 0 13.443-6.0661 13.443-13.443v-69.111c0-7.3771-6.0661-13.445-13.443-13.445zm0 8.0391h69.113c3.0289 0 5.4043 2.3774 5.4043 5.4062v69.111c0 3.0289-2.3754 5.4043-5.4043 5.4043h-69.113c-3.0289 0-5.4043-2.3754-5.4043-5.4043v-69.111c0-3.0289 2.3754-5.4062 5.4043-5.4062z"/><path class="Line" d="m61.637 32h4.7263c4.6101 0 8.6869 2.7953 8.3214 6.2306l-2.6846 25.234c-0.36517 3.4324-2.7788 6.2306-6.2306 6.2306h-3.5388c-3.4518 0-5.8654-2.7982-6.2306-6.2306l-2.6846-25.234c-0.36548-3.4353 3.7114-6.2306 8.3214-6.2306z"/><path class="Line" d="m74.878 88a10.878 9.1525 0 0 1-10.878 9.1525 10.878 9.1525 0 0 1-10.878-9.1525 10.878 9.1525 0 0 1 10.878-9.1525 10.878 9.1525 0 0 1 10.878 9.1525z"/></svg>
