<svg width="128" height="128" version="1.1" viewBox="0 0 128 128" xmlns="http://www.w3.org/2000/svg"><style type="text/css">.Line{fill:#000000;}</style><path class="Line" d="m116.49 48.485-12.97-12.97a12 12 0 0 0-8.4852-3.5148h-7.0295v-12c0-6.6275-5.3725-12-12-12h-16.688c-1.6512-4.6558-6.0975-8-11.312-8s-9.6608 3.3442-11.312 8h-16.688c-6.6275 0-12 5.3725-12 12v72c0 6.6275 5.3725 12 12 12h20v12c0 6.6275 5.3725 12 12 12h56c6.6275 0 12-5.3725 12-12v-59.03a12 12 0 0 0-3.5148-8.4852zm-5.6568 5.6568a3.972 3.972 0 0 1 1.0488 1.858h-15.877v-15.877a3.97 3.97 0 0 1 1.8578 1.0488zm-62.828-46.642c2.4852 0 4.5 2.0148 4.5 4.5s-2.0148 4.5-4.5 4.5-4.5-2.0148-4.5-4.5 2.0148-4.5 4.5-4.5zm-28 88.5c-2.2055 0-4-1.7945-4-4v-72c0-2.2055 1.7945-4 4-4h16.688c1.6512 4.6558 6.0972 8 11.312 8s9.6608-3.3442 11.312-8h16.688c2.2055 0 4 1.7945 4 4v12h-28c-6.6275 0-12 5.3725-12 12v52zm88 24h-56c-2.2055 0-4-1.7945-4-4v-72c0-2.2055 1.7945-4 4-4h36v18c0 3.3 2.7 6 6 6h18v52c0 2.2055-1.7945 4-4 4z"/></svg>
