<svg width="128" height="128" version="1.1" viewBox="0 0 128 128" xmlns="http://www.w3.org/2000/svg"><style type="text/css">.Line{fill:#000000;}</style><path class="Line" d="m22.775 8.0117c-2.3256-0.054942-4.6508 0.46355-6.7539 1.5078-4.2062 2.0885-7.4961 6.7064-7.4961 12.408v84.191c0 10.636 11.96 17.349 21.012 11.986l0.0059-2e-3 71.217-42.084c8.62-5.0833 8.8721-17.635 0.875-23.279a4.217 4.217 0 0 0-0.87305-0.69336l-0.01176-0.005809-71.213-42.1c-2.1097-1.2466-4.4361-1.8747-6.7617-1.9297zm-0.22656 8.4668c0.96376 0.0203 1.9135 0.25955 2.6973 0.72266l71.221 42.104 2e-3 2e-3a4.217 4.217 0 0 0 0.01172 0.0059c3.761 2.2087 3.7399 7.2384-0.0059 9.4453a4.217 4.217 0 0 0-0.0039 2e-3l-71.225 42.086a4.217 4.217 0 0 0-0.0059 4e-3c-3.7779 2.2405-8.2812-0.19368-8.2812-4.7305v-84.191c0-2.756 1.1405-4.0253 2.8125-4.8555 0.83602-0.41511 1.8136-0.61405 2.7773-0.59375z"/></svg>
