<svg width="128" height="128" version="1.1" viewBox="0 0 128 128" xmlns="http://www.w3.org/2000/svg"><style type="text/css">.Line{fill:#000000;}</style><path class="Line" d="m116.44 32.62-20.936-20.969a11.981 12 0 0 0-8.4715-3.5145h-66.921c-6.6168 0-11.981 5.3722-11.981 12v87.995c0 6.6272 5.3638 11.999 11.981 11.999h87.857c6.6168 0 11.98-5.3722 11.98-11.999v-67.026a11.981 12 0 0 0-3.509-8.4848zm-36.426-16.484v23.999h-47.922v-23.999zm31.948 91.996c0 2.2054-1.7916 3.9998-3.9935 3.9998h-87.857c-2.2019 0-3.9935-1.7944-3.9935-3.9998v-87.995c0-2.2054 1.7916-3.9998 3.9935-3.9998h3.9935v25.999c0 3.3136 2.6819 5.9997 5.9903 5.9997h51.916c3.3084 0 5.9903-2.6861 5.9903-5.9997v-25.876a3.9656 3.9718 0 0 1 1.855 1.0487l20.936 20.969a3.9673 3.9735 0 0 1 1.1696 2.8283zm-47.922-49.998c-12.111 0-21.964 9.8683-21.964 21.999 0 12.13 9.8528 21.999 21.964 21.999 12.111 0 21.964-9.8683 21.964-21.999 0-12.13-9.8528-21.999-21.964-21.999zm0 35.999c-7.7072 0-13.977-6.2799-13.977-13.999 0-7.7191 6.27-13.999 13.977-13.999 7.707 0 13.977 6.2799 13.977 13.999 0 7.7191-6.27 13.999-13.977 13.999z"/></svg>
