<svg width="128" height="128" version="1.1" viewBox="0 0 128 128" xmlns="http://www.w3.org/2000/svg"><style type="text/css">.Line{fill:#000000;}</style><path class="Line" d="m125.05 122.02-2.9779 2.9779c-1.2386 1.2386-3.2414 1.2386-4.48 0l-33.995-33.995c-0.60612-0.60612-0.92234-1.3967-0.92234-2.24v-2.8756c-8.1401 7.368-18.927 11.846-30.773 11.846-25.192 0-45.553-20.096-45.884-45.289-0.3309-25.81 20.67-46.811 46.48-46.48 25.192 0.3309 45.289 20.692 45.289 45.884 0 11.846-4.4781 22.633-11.846 30.773h2.8756c0.84328 0 1.6339 0.34259 2.24 0.92234l33.995 33.995c1.2386 1.2386 1.2386 3.2414 0 4.48zm-34.323-70.171c0-21.464-17.361-38.825-38.825-38.825s-38.825 17.361-38.825 38.825 17.361 38.825 38.825 38.825 38.825-17.361 38.825-38.825z"/></svg>
